<?xml version="1.0" encoding="utf-8" ?>
<svg baseProfile="full" height="300mm" version="1.1" viewBox="0,0,200,300" width="200mm" xmlns="http://www.w3.org/2000/svg" xmlns:ev="http://www.w3.org/2001/xml-events" xmlns:xlink="http://www.w3.org/1999/xlink"><defs /><rect fill="#222222" height="300" width="200" x="0" y="0" /><text fill="#FFFFFF" style="font-size:12px; font-family:Arial; font-weight:bold;" x="10" y="20">Over 3km Runs</text><text fill="#FFFFFF" style="font-size:4px; font-family:Arial" x="10" y="280">ATHLETE</text><text fill="#FFFFFF" style="font-size:9px; font-family:Arial" x="10" y="290">hanyang</text><text fill="#FFFFFF" style="font-size:4px; font-family:Arial" x="120" y="280">STATISTICS</text><text fill="#FFFFFF" style="font-size:3px; font-family:Arial" x="120" y="285">Number: 10</text><text fill="#FFFFFF" style="font-size:3px; font-family:Arial" x="120" y="290">Weekly: 1.4</text><text fill="#FFFFFF" style="font-size:3px; font-family:Arial" x="141" y="285">Total: 48.8 km</text><text fill="#FFFFFF" style="font-size:3px; font-family:Arial" x="141" y="290">Avg: 4.9 km</text><text fill="#FFFFFF" style="font-size:3px; font-family:Arial" x="167" y="285">Min: 3.0 km</text><text fill="#FFFFFF" style="font-size:3px; font-family:Arial" x="167" y="290">Max: 11.3 km</text><polyline fill="none" points="18.570375128416345,37.36205280513968 15.667396782897413,35.13740980217699 14.054631035076454,33.741551194514614 13.328886448871344,33.0 13.691758742090315,33.130862041551154 14.215907610021532,33.43620669498341 14.820694765308872,34.090516148135066 17.320481674047187,35.92257885436993 18.207502835197374,36.751367304706946 20.22346001979895,38.32170020393096 21.43303433037363,39.063244879303966 24.49728925083764,41.375113624788355 25.989097567740828,42.16027458652388 27.198671878082678,43.33801411971217 28.609841907396913,44.34127191477455 29.3759056373965,45.12642902950756 31.472501109354198,46.5222613857477 33.32718171924353,47.91809052374447 35.14154318510555,49.6628724206239 37.84292581258342,51.320410565065686 38.68962782993913,52.19279723940417 39.2944149854593,52.89070567378076 39.939521284308285,53.370517255796585 40.62494672695175,53.67585170088569 41.47164874454029,54.679092364851385 42.72154219890945,55.37699793319916 43.93111650971696,55.85680754482746 44.576222808798775,56.20575975085376 44.85845681466162,56.51109276607167 45.543882257305086,57.55794764927123 46.793775711907074,58.38670648162952 48.245264884550124,59.608033219352365 50.70473264972679,61.30916278442601 51.5514346670825,62.09429789468413 57.276753071462736,66.41252280358458 58.002497657667845,67.06679661845556 58.849199675256386,67.59021516132634 59.57494426169433,68.2881058480707 59.85717826732434,68.85514143877663 60.341007991693914,69.50941261433763 62.71983746928163,71.99563663452864 63.60685863066465,73.21693592320662 64.37292236066423,74.48185044684215 65.74377324618399,77.7531688590534 66.34856040147133,80.02127258462133 66.67111355112866,82.94362447672756 66.55015611997806,84.86277327185962 66.38887954526581,85.73511162289651 65.94536896469072,86.91276640369324 65.82441153354011,87.0 65.82441153354011,86.60744871746283 66.26792211411521,84.38298664317699 66.34856040147133,83.64149746950716 66.22760297055356,82.02766495314427 66.22760297055356,81.11170404427685 66.10664553963579,80.37021086522145 66.06632639560848,79.84680336876772 65.78409238997847,79.1489260030794 65.34058180940337,77.27337659773184 64.49387979181483,75.26696847740095 63.364943768363446,73.21693592320662 61.83281630836427,71.34136814519297 60.74419942847453,70.12006507377373 59.85717826732434,69.33494036999764 59.29271025583148,68.68066900596023 58.97015710640699,68.1136332518654 58.728242244105786,67.80830608744873 57.8412210829556,66.97956015070667 56.59132762835361,66.23804966692114 54.938242737203836,64.84226276358822 54.01090243225917,64.27522341499571 51.30951980501413,62.35600937192794 50.70473264972679,61.83258630434284 50.0193072068505,61.00383218872594 49.61611577006988,60.698501439066604 48.4065414594952,60.13145820988575 48.20494574098848,59.956983263313305 47.92271173512563,59.477176900953054 47.55983944190666,59.171845381497405 47.156648005126044,58.91013252804987 46.511541705811396,58.692038397013675 46.027711981441826,58.34308762400178 45.543882257305086,57.8632799826446 44.89877595822327,57.601566563593224 44.77781852707267,57.47070981154684 44.25366965937428,56.38023577834247 43.850478222360834,56.031283672957215 43.608563360059634,55.85680754482746 42.96345706121065,55.72595041577006 41.47164874454029,55.02804524957901 40.302393577527255,54.199281819863245 39.61696813488379,53.41413647169247 38.367074680514634,52.32365513214609 37.84292581258342,51.62574604409747 37.238138657296076,51.05869431758765 36.47207492706366,50.578880903543904 35.02058575418778,49.88096980412956 33.60941572510637,48.746862551837694 32.601437132805586,47.78723167878343 31.512820253148675,46.91483865608461 29.658139643492177,45.64986654021777 28.89207591325976,45.34452804730972 28.569522763602436,45.08280921651749 28.005054752109572,44.64661091385642 26.714842153945938,43.33801411971217 26.110054998658597,42.5092346870224 25.142395549919456,41.72407417796785 24.174736101413146,41.24425336549757 22.924842647043988,40.415471066429745 20.58633231301792,38.53980167338159 15.70771592645906,35.48637395113474 14.054631035076454,34.003274928661995 13.530482167145237,33.39258603978669 13.36920559243299,33.17448271578178 13.36920559243299,33.130862041551154 13.490163023583591,33.130862041551154 14.377184184733778,33.741551194514614 14.861013909103349,34.22137795394519 17.52207739255391,36.35878344334196 19.73963029542938,37.97273768944433" stroke="#4dd2ff" stroke-linecap="round" stroke-linejoin="round" stroke-width="0.5"><title>2022-11-07 5.0km</title></polyline><polyline fill="none" points="78.50090189743787,36.938573975348845 77.04470710572787,36.019575665763114 75.83121144631878,35.188099806488026 75.0626641951967,34.57543265540153 73.40422012703493,33.04376207344467 75.10311405058019,34.31286082993029 76.11436043353751,35.23186172218993 78.29865262075327,37.02609755139565 81.77734017837793,39.345467719307635 84.20433149742894,41.22721436584834 84.97287874855101,41.57730612199521 85.45827701245435,41.92739767633611 85.86277556559071,42.23372762079816 86.14592455280945,42.62758017942542 87.44031992298551,43.809136323223356 90.99990719137713,46.391047304379754 96.13703881693073,50.50457771966467 97.35053447657265,51.29227185511263 99.17077796603553,52.91141770320246 100.30337391491048,53.74286929925438 102.0022678382229,55.14320625690743 102.77081508934498,55.62457134050783 103.41801277454942,55.84337352513103 104.26745973620564,56.32473805377958 104.91465742141008,57.024903960118536 107.30119888507761,59.16915702744154 107.78659714898095,59.47547827626113 108.9191930978559,60.394441096053924 109.88998962566257,61.05084225907922 111.58888354920782,62.58244221424684 113.44957689382136,64.02651863498613 115.55296937050298,65.47059162298683 117.73726155771874,67.17721891013207 118.74850794067606,67.78985317709157 119.2339062045794,68.22744870377937 120.44740186422132,69.89030883059604 122.18674564291723,71.94699795427732 123.44069115770981,73.60984789999202 124.12833869829774,75.01013906096341 124.89688594941981,76.80425739416387 125.38228421332315,78.51085284317378 125.98903204291128,79.99865009245696 126.39353059628047,82.49289024830796 126.43398045143113,83.41181825095555 126.39353059628047,84.46201998065226 126.3126308855135,85.33718670211965 126.02948189829476,87.0 126.43398045143113,84.11195293912897 126.59577987296507,82.18658060522284 126.43398045143113,81.70523656840669 126.15083146444522,79.254751923203 125.90813233237714,78.24830000917427 125.4227340684738,77.06681085220771 123.92608942161314,74.48503025382524 123.27889173664153,73.7848844716209 122.18674564291723,72.34083124744939 120.73055085144006,70.72173718712293 119.75975432363339,69.36519559810404 119.15300649381243,68.18368916533655 118.8294076512102,67.78985317709157 118.22265982162207,67.30849773361115 117.57546213641763,66.95842080784496 116.15971720009111,65.82066940603545 114.13722443440929,64.33283743442735 112.27653108956292,63.23884101281874 111.79113282565959,62.80124189250637 110.45628760010004,61.31340252555674 109.40459136175923,60.6132415625616 108.51469454471953,59.69427907373756 108.19109570235014,59.43171810725471 106.73490091064014,58.55651406629477 105.23825626377948,57.19994531053817 104.55060872342438,56.499779606063385 103.45846262970008,55.93089437694289 102.40676639135927,55.318248149589635 100.70787246781401,53.917911595490295 100.34382377006114,53.480305760283954 99.08987825526856,52.73637511685956 98.4831304254476,52.03620426723501 97.87638259562664,51.46731485752389 96.46063765930012,50.50457771966467 94.4381448936183,49.45431728329277 93.50779822119512,48.57909886573907 92.41565212723799,47.878923223761376 91.08080690191127,46.78489716706099 89.74596167635173,45.95343604614027 87.07627122523263,43.63409111351939 85.62007643352263,42.014920533285476 85.17512802523561,41.62106757739093 84.16388164227828,41.13969139527762 82.95038598240353,40.30822254595114 81.97958945506252,39.60803736880189 81.17059234855697,38.82032807957148 80.1997958207503,38.207664592773654 79.22899929317646,37.59500048792688 78.33910247590393,37.15738289174624 73.44466998241842,33.0 78.58180160797201,37.11362111469498 81.57509090169333,39.170421223156154" stroke="#4dd2ff" stroke-linecap="round" stroke-linejoin="round" stroke-width="0.5"><title>2022-10-25 5.0km</title></polyline><polyline fill="none" points="138.67372576659545,37.254194911627565 136.18599481182173,35.43097219965421 133.61801447160542,33.26046177634271 138.07185537437908,36.77668473467929 138.8743492309004,37.42783488210989 142.0040752706118,39.59833029046422 144.33130745426752,41.33472098677885 144.85292846080847,41.63858884410001 145.37454946758226,41.8556372197927 145.85604578140192,42.20291445823386 146.93941248743795,43.33156410057563 148.62464958569035,44.6338495220989 149.38701874925755,45.37181001139106 150.55063484120183,46.32681636174675 153.11861518165097,48.10659688414307 154.92422635830007,49.58250845159637 157.77307954849675,51.62273319455562 158.97682033316232,52.53432074014563 159.5385660326574,53.14204500435153 159.97993765352294,53.532724564836826 161.30405251658522,54.487717979587615 162.14667106582783,55.18225769401761 162.58804268669337,55.4861185674672 162.90904022939503,55.5729359316756 163.31028715753928,55.96361391595565 164.1529057067819,56.224065764807165 164.47390324948356,56.44110888603609 165.23627241281793,57.39609769108938 165.87826749798842,57.83018301118864 166.15914034773596,58.17745104210917 166.80113543267362,58.56812733766856 168.16537498869002,59.65333794069011 169.00799353793263,60.47809669171693 170.97410348593257,61.780345053062774 172.1778442703653,62.82214171567466 175.38781969598494,65.12276963185286 175.8693160098046,65.55684938572813 177.79530126508325,67.07612606190378 179.23979020654224,68.07450579205761 180.2830322200898,69.50696077663451 182.40964093944058,71.8509706792538 183.97450395929627,74.06474943802459 184.65662373718806,75.23674666503211 185.25849412963726,76.66918462509057 186.06098798592575,79.4038294578786 186.22148675704375,80.7494437887799 186.5023596067913,82.39890241849935 186.5023596067913,83.48407010757364 186.46223491407,84.17857640329748 186.301736142952,85.43736702436581 185.98073860025033,87.0 186.14123737136833,84.78626875550253 186.18136206432246,83.09340996458195 186.26161144999787,82.35549567022827 186.18136206432246,80.83625751343789 185.7801151361782,78.75272467080504 185.45911759347655,77.5373271862045 184.8973718942143,75.88785525067942 184.1350027306471,74.3251934631262 183.65350641682744,73.45704627479427 180.00215937034227,69.11629157303832 179.15954082086682,68.03109801211394 176.95268271607347,66.51182374358177 175.26744561758824,65.03595364355715 174.0637048331555,64.5150574510917 173.06058751256205,63.42985560389934 171.45559979975224,62.257835413794965 170.45248247939162,61.3028543140972 169.4894898517523,60.65172996930778 167.64375398191623,59.089028670976404 167.04188358969986,58.69835271325428 166.07889096206054,57.91700003761798 165.23627241281793,57.13564634893555 164.43377855652943,56.26747439522296 163.59116000728682,55.65975328342756 162.86891553667374,55.44270988064818 162.22692045150325,55.052031558647286 160.4213092746213,53.48931573732989 159.25769318290986,52.70795630675275 157.53233139170334,51.18864340230357 155.88721898617223,50.0600084788166 154.60322881583124,49.278644600883126 152.87786702462472,47.97636921930825 150.4302607625723,45.97954150044825 148.62464958569035,44.807487365673296 146.93941248743795,43.33156410057563 145.49492354597896,41.8556372197927 144.49180622538552,41.33472098677885 142.44544689171016,39.77196958538843 141.88370119221509,39.51151062431745 139.23547146632336,37.644884774810635 136.7076158185955,35.51779245393118 135.42362564848736,34.60617916012416 134.05938609247096,33.39069262234261 133.4976403932087,33.0 133.97913670679554,33.34728234342765 135.90512196230702,35.083691057458054 137.95148129598238,36.60304457653547 139.7169677799102,38.07898432575166 141.72320242109708,39.46810078661656" stroke="#4dd2ff" stroke-linecap="round" stroke-linejoin="round" stroke-width="0.5"><title>2022-10-19 5.1km</title></polyline><polyline fill="none" points="18.16212334530428,96.64159612392541 17.05381005606614,96.10868096200284 15.576059004524723,95.1760783198406 13.113140584668145,93.0 13.728870189748704,93.26645898254355 15.904448127141222,94.68757161067333 18.24422062584199,96.46395778772421 20.460847203619778,97.70742506510578 22.431181939318776,99.26175563386641 23.949981631478295,100.32758004392963 24.729905797867104,100.72726372256875 25.263538121944293,101.08253788587172 25.674024525331333,101.43781184445834 26.536045972257853,102.50363249139627 27.80855382233858,103.39181495597586 28.62952662911266,104.05795096443035 29.61469399696216,104.76849524665158 31.379785530967638,106.27839912637137 32.3239042586647,106.81130549497902 33.268022986128926,107.4774378077127 34.417384915286675,108.45443056419026 35.156260441523045,109.25378712220117 36.346671010833234,109.96432541456306 37.82442206284031,110.98572277481435 38.80958943068981,111.96270997042302 40.12314592092298,112.98410401929868 40.61572960508056,113.47259622695856 41.47775105200708,114.09431302227313 42.01138337608427,114.5828043501242 42.87340482301079,115.11570353899151 44.556399076478556,115.78182687720982 45.007934120250866,116.22590870270506 45.172128681559116,116.66999020834919 45.541566444560885,117.15847949491581 46.444636531639844,117.95782476541353 48.3739226271864,119.33447252359474 48.74336039018817,119.77855178969912 50.22111144196242,120.75552504928783 51.78095977450721,122.17657429899555 54.44912139582448,123.99728886276716 55.06485100090504,124.66340260358993 55.680580605519935,125.1518855561153 57.240428938297555,126.12885029974859 59.45705551607534,127.81633121037157 60.15488240146078,128.6156626609736 60.3601256031543,129.0153279977967 60.85270928707905,129.59262191544985 62.74094674224034,131.7685710544465 64.09555187309161,133.5892572896555 65.20386516209692,135.45434493100038 65.6554002056364,136.52010676427744 66.27112981071696,138.74043799983338 66.4353243720252,139.4509423064883 66.3942757314071,140.20585223514354 66.72266485425644,142.3373576325248 66.76371349440888,143.35870135744335 66.68161621387117,145.09054119844222 66.55847029271536,146.0674743472482 66.35322709125467,146.91118809382897 66.3942757314071,147.0 66.47637301217765,146.9555940485443 66.59951893310063,146.2006923839799 66.76371349440888,145.71222610858968 66.80476213479415,145.00172901712358 66.88685941556469,143.40310756798135 66.84581077517942,142.514982749708 66.76371349440888,142.07091986079467 66.47637301217765,139.095690255519 65.94274068786763,137.1862069744966 65.4091083635576,135.809599080123 64.95757332001813,134.87705650209682 64.05450323270634,133.27840880083386 62.6588494614698,131.50212871539406 61.63263345323503,130.3031367645017 60.6885147257708,129.32617863605265 59.53915279661305,127.8607385403593 58.67713134968653,127.4166650963598 57.158331657759845,125.86240552313393 56.665747973602265,125.41833063971717 55.762677886523306,124.79662526544416 54.20282955397852,123.55321263580117 53.17661354551092,122.9315053805476 51.41152201150544,121.55486565525644 50.63159784511663,120.75552504928783 49.93377095949836,120.35585435747635 49.3590899950359,119.77855178969912 48.3739226271864,119.15684072748991 46.896171575412154,117.95782476541353 46.403587891487405,117.6469683945761 45.993101488100365,117.24729568726616 45.623663725098595,117.11407139402581 45.172128681559116,116.62558207212714 44.761642278404906,116.003867829917 44.474301795940846,115.73741867695935 43.11969666508958,115.07129529083613 42.13452929724008,114.44957948097726 41.43670241162181,113.73904635885265 41.10831328900531,113.16173759417143 40.32838912284933,112.76206197869033 39.34322175499983,112.09593537717592 38.60434622876346,111.56303357757861 37.53708158037625,110.58604574843775 37.33183837868273,110.54163717397023 37.29078973853029,110.67486288788496 37.24974109814502,111.34099102515029 36.67506013344973,111.38539954199223 36.387719651218504,111.51862507348415 35.484649563906714,112.22916075511603 35.033114520367235,112.45120298757683 34.047947152284905,112.89528721268289 33.309071626281366,112.62883671594318 32.9806825038977,112.67324514017673" stroke="#4dd2ff" stroke-linecap="round" stroke-linejoin="round" stroke-width="0.5"><title>2022-10-15 3.9km</title></polyline><polyline fill="none" points="78.40636810078286,97.31494716968155 77.47977568721399,96.74833970121108 75.54601760674268,95.13568476989167 73.93455253960565,93.56661098002223 73.49139964627102,93.04358547896845 74.49856531294063,93.82812356104841 75.38487109984271,94.69983134767972 76.51289664697833,95.52795258135302 78.72866111411713,97.40211750235176 82.47531739505939,100.06080661440501 84.08678246219642,101.2811845887336 84.57022198219784,101.5862786975922 86.06082716933452,102.28363608272048 86.78598644956946,103.11174693348585 88.03487187670544,103.98344134108629 89.64633694384247,105.33456519048195 90.81464911741205,106.11908733093878 91.66066827764735,106.86002397380071 94.48073214502074,108.86490681016585 96.21305709215812,110.3903566909139 97.58280239929445,111.26204061001772 99.11369421286508,112.7874844460166 99.79856686666608,113.31049287575297 100.96687904023565,114.44367625564337 101.89347145380452,115.18460270256037 102.86035049404018,115.75119290250586 104.02866266760975,116.14344734547194 104.55238881427795,116.36136637063464 104.95525508141145,116.71003664750606 105.39840797474608,117.36379287508316 106.2041405083146,118.19188308238517 108.41990497568622,119.84806009673048 108.94363112235442,120.41464592918055 110.111943295924,121.1555650633527 111.03853570949286,122.11440024303738 112.81114728329703,123.33473372843582 113.9794594568666,124.24998222704744 115.51035127067007,125.25239566084929 117.88726224470884,127.12646849494195 118.69299477827735,127.56229855469428 119.13614767161198,127.91096237645252 119.86130695184693,129.08770129142795 122.60079756588675,132.18207788665313 123.60796323302202,133.4895561991143 124.69570215325803,135.27643865696155 125.94458758016117,138.24003695353167 126.14602071349509,139.19884505943628 126.38774047372863,140.8985466043814 126.54888698039576,142.7289890826214 126.54888698039576,143.51346273557283 126.42802710039541,144.29793537140358 126.42802710039541,145.25673387869028 126.10573408706114,147.0 126.1863073403947,146.7820920094382 126.14602071349509,145.99762259388808 126.34745384706184,143.99286280054366 126.30716722039506,141.63944065547548 126.02516083372757,139.15526290575508 125.54172131349333,137.41197418479715 124.69570215325803,135.36360351991607 124.09140275302343,134.09971177804982 123.72882311278954,133.4895561991143 123.24538359278813,132.96656521316618 122.39936443255283,131.78983384202002 120.82818599208258,129.91577545233304 120.54617960541509,129.61069563007914 120.22388659208082,129.3491985173314 119.82102032518014,128.91336974478327 119.1764342985116,127.95454534009332 115.34920476400293,124.99089666432701 114.50318560400046,124.46789833222283 113.8183129504323,123.98848279722733 113.17372692329809,123.42190031171776 111.23996884282678,121.89648329018382 109.95079678925686,120.76331387006212 106.80843990854919,118.32263406412676 105.23726146784611,117.05870672338642 104.91496845451184,116.579285317217 104.31066905451007,115.92552824190352 103.66608302760869,115.53327365760924 103.10207025404088,115.27177046006545 101.69203832023777,114.2693404891761 100.32229301333427,113.13615678279893 99.67770698666573,112.7439003897598 97.78423553262837,111.17487227468519 95.36703793192282,109.60584008990554 93.63471298478544,108.16755701205693 89.92834333050996,105.5089035317651 88.59888465004042,104.28853408707073 87.55143235670403,103.50400957243983 86.34283355623484,102.50156010076171 85.65796090266667,101.76061811920954 85.0939481293317,101.41193922550883 83.96592258219607,100.97609032585751 82.71703715529293,99.75571173615754 81.42786510149017,98.88401123590302 80.62213256815448,98.53533068409888 79.85668666101992,98.01230947946897 78.16464834054932,96.70475448935758 77.31862918054685,96.00739067204995 75.86831062007695,94.9613434386556 73.57197289937176,93.04358547896845 73.4511130193714,93.0 73.77340603270568,93.39226919657085 74.49856531294063,93.87170898017939 76.11003038007766,95.35361136315623 80.34012618125416,98.57891576399561" stroke="#4dd2ff" stroke-linecap="round" stroke-linejoin="round" stroke-width="0.5"><title>2022-10-12 5.0km</title></polyline><polyline fill="none" points="138.37721518985927,102.79457581136376 135.9164556961041,100.82254197471775 134.82278481009416,100.08302782062674 134.18481012666598,99.54071693273727 133.0,98.7519003287307 134.6405063290149,100.1323287889827 138.92405063286424,103.38618485390907 142.15949367079884,105.70331534498837 144.62025316455401,107.62603468867019 145.212658227887,108.02043798880186 145.94177215197124,108.31624031456886 146.67088607582264,108.80924390687142 147.7645569620654,109.94315082090907 150.27088607591577,111.81655812717509 151.3645569619257,112.80255991226295 160.3417721518781,119.55663393915165 161.48101265798323,120.54262457077857 164.76202531624585,123.1554928739206 166.31139240483753,124.14147832000162 167.95189873385243,124.93026565405307 168.7265822782647,126.06414585368475 169.3645569619257,126.55713665881194 169.91139240493067,127.09942613437306 172.23544303770177,128.77559088694397 173.14683544286527,129.76156823540805 174.42278480995446,130.59964786458295 175.42531645554118,131.53632388281403 180.3468354428187,134.98722446593456 183.08101265807636,137.15635306871263 183.76455696183257,137.60003761772532 184.58481012634002,138.43810764781665 185.54177215183154,139.76915793924127 187.0,141.2480996712693 186.04303797450848,140.3114369455143 184.99493670859374,138.73389682522975 184.539240506012,138.14231834269594 183.39999999990687,137.45214279991342 181.3037974680774,135.7267008983181 179.7544303794857,134.54353822290432 179.16202531638555,134.19844872393878 178.25063291122206,133.36037350189872 177.24810126586817,132.71949175733607 175.01518987328745,131.04333666461753 172.9189873416908,129.12068312050542 170.18481012643315,127.19802417460596 169.22784810117446,126.21204313251656 168.63544303784147,125.81765031797113 167.67848101258278,124.78236809821101 165.5367088606581,123.6977850451367 163.66835443023592,122.26810475764796 163.2582278479822,121.82441026810557 160.75189873413183,119.70453262445517 159.38481012638658,118.81714003300294 157.97215189854614,117.68324782466516 156.8329113922082,116.94375189393759 155.92151898727752,116.30285477417056" stroke="#4dd2ff" stroke-linecap="round" stroke-linejoin="round" stroke-width="0.5"><title>2022-10-09 3.0km</title></polyline><polyline fill="none" points="19.344768438953906,163.56636667612474 17.584905660478398,162.2135545690544 14.204116637818515,159.8586531409528 13.0,158.95677388610784 14.111492281313986,159.70834001299227 20.78044596896507,165.06948815268697 22.540308747673407,166.3220869009965 23.651801029220223,166.72291802393738 25.22641509445384,168.12582513445523 27.032590051414445,169.17800360976253 28.32933104620315,170.48069856408983 30.042881646659225,171.73328756471165 30.830188679276034,172.63515024795197 31.432246998418123,173.13618456659606 32.35849056602456,173.73742527258582 39.30531732412055,179.04836226440966 40.69468267564662,180.00031838187715 41.43567753001116,180.40114162041573 42.778730703284964,181.55350714433007 45.696397941792384,183.85823246376822 46.99313893658109,184.7600794226746 48.24356775311753,185.21100246347487 48.66037735831924,185.4615151375765 49.03087478573434,185.81223272980424 49.26243567769416,186.46356493182248 49.49399656942114,186.66397471737582 51.902229845756665,188.56786480004666 53.52315608924255,189.62001234659692 54.1715265866369,190.2713409823482 55.23670668946579,191.0228732659598 56.857632932951674,192.4758333778591 58.015437392750755,193.22736327908933 59.49742710124701,194.58011505496688 62.090909090824425,196.6342886464554 62.69296740996651,197.23550903762225 64.12864493997768,198.18744026101194 64.82332761585712,198.43794826115482 65.19382504280657,198.63835459627444 65.84219554020092,199.33977631444577 66.35162950260565,200.29170465789502 66.76843910804018,200.84282047161832 66.90737564326264,201.04322611389216 67.0,201.04322611389216 66.21269296738319,199.64038540580077 65.10120068630204,198.53815143590327 64.68439108063467,198.38784666825086 61.25728987995535,195.73245708504692 59.682675814954564,194.6302169219707 58.43224699818529,193.67828083003405 55.977701543830335,191.67420058796415 55.23670668946579,190.922669008316 53.98627787316218,190.12103442836087 52.92109777010046,189.1690921644331 51.16123499139212,188.06684159947326 50.46655231551267,187.3654085122398 50.32761578052305,187.26520372770028 50.00343053159304,187.26520372770028 49.81818181835115,187.16499892866705 49.077186963986605,186.1629501452553 48.15094339614734,185.31120754394215 47.132075471803546,184.81018199713435 46.57632933091372,184.70997684448957 45.51114922808483,184.15884824673412 45.279588336125016,183.95843773911474 44.909090909175575,183.4073085457785 44.44596912502311,183.05658974073594 43.89022298459895,182.40525434783194 42.778730703284964,181.65371275192592 40.833619211101905,179.79990667599486 39.35162950260565,178.64753824612126 37.59176672366448,177.64547718968242 35.183533447794616,175.69145397649845" stroke="#4dd2ff" stroke-linecap="round" stroke-linejoin="round" stroke-width="0.5"><title>2022-10-08 3.0km</title></polyline><polyline fill="none" points="85.7300380228553,163.09649113356136 85.07300380244851,162.60779899719637 84.04638783284463,162.0302532457863 82.19847908755764,160.4753196873935 77.06539923953824,157.09887902904302 73.94448669208214,154.65539070399245 73.04106463887729,153.90012871689396 73.0,153.76684709370602 73.24638783279806,153.90012871689396 74.35513307992369,154.74424499459565 76.44942965777591,156.56575512955897 79.20076045626774,158.65382110280916 81.7467680608388,160.69745329295984 83.84106463892385,162.0302532457863 84.70342205325142,162.4300926697906 85.7300380228553,163.18534420768265 86.71558935381472,164.07387424435 88.80988593166694,165.8065041329828 90.16501901159063,167.05044053768506 92.83422053232789,169.00519267463824 93.90190114080906,169.89371432474582 94.9695817490574,170.64895672060084 95.7908745247405,171.3597722481354 97.39239543722942,172.42599400313338 98.4600760457106,173.27008491830202 99.85627376451157,174.64728340459988 100.43117870739661,175.04711464711 101.21140684420243,175.9356275909813 102.7718631180469,177.26839460653719 103.26463878317736,177.44609665771713 104.00380228133872,177.4905221624067 104.61977186310105,177.7126496382407 105.0304182509426,178.11247889319202 106.09809885919094,179.00098742038244 107.2068441065494,180.20047190139303 107.82281368831173,180.55587426247075 108.39771863119677,180.91127641877392 109.05475285160355,181.53322969947476 109.54752851719968,181.84420610457892 110.08136882120743,182.5105835873983 113.53079847921617,184.9983864944661 115.29657794674858,186.37555878824787 116.0768060835544,187.17520580551354 117.96577946771868,188.4635238192277 118.82813688204624,188.86334610375343 119.73155893548392,189.7074145200313 120.01901140669361,190.06281140237115 120.3885931558907,190.68475545372348 122.35969581757672,192.8615546937799 123.59163498110138,194.41640658996766 124.16653992398642,195.34931584610604 125.27528517111205,197.65937078819843 126.13764258543961,199.7917215168709 126.42509505688213,200.81347029522294 126.75361216743477,202.36830214509973 126.83574144472368,203.523317553394 127.0,204.41178947268054 126.71254752832465,205.16698959789937 126.67148288968019,205.74449495208682 126.67148288968019,206.1887294719345 126.71254752832465,206.23315290629398 126.83574144472368,206.0110357023077 126.87680608360097,205.7000714823953 126.83574144472368,204.94487200991716 126.91787072247826,204.2340951912338 126.91787072247826,203.21235207933933 126.79467680607922,202.10175982053624 126.5072243346367,200.50250345485983 125.93231939175166,198.6366991205723 125.15209125471301,196.90416147059295 124.20760456286371,195.21604318160098 123.59163498110138,194.28313372388948 122.27756653982215,192.63943267433206 121.16882129269652,191.39554788701935 120.01901140669361,190.28493434982374 119.40304182516411,189.48529136471916 118.04790874524042,188.3302496667602 117.10342205315828,187.79715276882052 115.05019011418335,186.28670905559557 113.85931558930315,185.22051126597216 113.61292775673792,184.8206866197288" stroke="#4dd2ff" stroke-linecap="round" stroke-linejoin="round" stroke-width="0.5"><title>2022-10-04 3.0km</title></polyline><polyline fill="none" points="151.37228300981224,178.02074518811423 152.33762197359465,177.5856106490828 162.19212389714085,183.9820568114519 174.13819357613102,193.90294136706507 176.63198589952663,197.20986668369733 179.12577822315507,206.47786356083816 180.1313396440819,207.0 183.46980356099084,206.43435217050137 183.91225058608688,205.69465805619257 183.71113830199465,202.69236088375328 182.6251319674775,202.03968561138026 181.0966786078643,197.55796303250827 181.86090528778732,196.64420968905324 183.46980356099084,196.47016127646202 182.8664667084813,191.94488495058613 180.29222947126254,187.9417276387685 176.7124308135826,186.15770333557157 177.27554520894773,184.9393422473804 175.1839774537366,182.89423061115667 178.80399856856093,178.06425862468313 179.00511085265316,175.5839877325925 167.86349031049758,167.01174499781337 165.65125518478453,164.61845753586385 163.23790777497925,163.40005300345365 149.6427173661068,153.0 149.2807152546011,154.2619406642625 146.54558819020167,153.65272825903958 145.54002676904202,154.34897095779888 144.8160225462634,157.56908299896168 145.3389144851826,158.65695480874274 142.60378742055036,158.9180437514442 136.77153118001297,166.6201167893014 136.08774941391312,169.01339632004965 139.34576841723174,176.236691586324 140.23066246765666,174.8007421772345 142.24178530904464,174.9747968328884 145.8215839669574,174.0610093313153 151.61361775081605,177.9772317483439 152.09628723259084,179.02155343827326 151.29183809598908,179.45668694295455 152.13650968950242,178.8910133257741" stroke="#4dd2ff" stroke-linecap="round" stroke-linejoin="round" stroke-width="0.5"><title>2022-05-14 4.4km</title></polyline><polyline fill="none" points="21.723756461578887,221.6943481694325 20.799630377499852,219.55203197247465 20.931648389494512,218.6236892024608 23.4894973722985,215.28519703811617 24.46313021093374,215.28519703811617 24.31460994738154,214.8031650417979 25.13972252246458,213.0714127264655 26.030844103661366,213.44632920264849 26.360889133706223,213.33921026730968 26.26187562465202,213.0178531835263 26.459902642702218,213.0 32.97829198592808,217.69534295471385 36.82331658585463,221.01595004404953 38.85309352056356,222.39059694607568 40.78385694633471,224.72926441520394 41.67497852741508,226.47878748214862 41.92251229996327,227.8176998548879 41.82349879096728,229.9063887148659 41.39444025186822,230.37053940475744 40.701345688838046,230.63831825356465 41.047892970382236,235.2619207600219 40.10726463474566,241.1528723872907 40.338296155794524,242.0097264184442 40.849865952390246,242.29534377079108 41.42744475492509,244.0625938228477 39.727712850202806,248.97155566122092 39.793721856200136,251.0779167653527 38.62206199957291,252.07753950427286 38.539550742076244,252.41669630382967 39.31515656260308,253.4698644621094 36.92233009485062,256.07599017076427 36.36125354381511,257.16484280156146 33.67138654895825,260.4670715506072 40.91587495832937,266.9286028046772 41.06439522182336,267.0 47.813816086156294,259.3425337236986 48.77094667323399,259.4674826228875 49.46404123632237,258.71778828365495 49.00197819422465,258.2536906524765 49.00197819422465,257.557542577546 50.932741619995795,254.5230281483091 52.61597127321875,255.2191847400827 52.56646451872075,255.05853339235182 53.60610636335332,255.34413571642654 52.8470027942094,255.68328804909834 53.985658147896174,254.9335822721623 54.117676159890834,255.04068323614774 54.035164902335964,254.4873277575971 53.87014238740085,255.2191847400827 53.358572590805124,255.54048712344957 53.32556808780646,255.36198585075908 53.87014238740085,255.36198585075908 52.83050054276828,255.46908662978967 53.85364013584331,255.39768611555337 53.82063563284464,255.57618736255972 53.17704782425426,255.54048712344957 53.39157709380379,255.46908662978967 53.11103881825693,255.57618736255972 53.34207033930579,255.48693675511458 53.32556808780646,255.7189882676903 53.07803431531647,255.89748928345216 52.02189021912636,254.8264812618727 51.345297907537315,254.68367984288489 51.11426638654666,254.8443314334727 52.104401476623025,253.18425997978193 52.83050054276828,251.18501939441194 54.76126396848122,243.17004486577935 55.503865286009386,241.45634186196548 55.850412567553576,241.25997930315498 56.279471106710844,241.75981096523174 57.50063771777786,242.2417905422917 58.65579532290576,242.11683296410774 59.200369622558355,242.6523649985611 59.101356113445945,243.20574688576744 58.3752570473589,243.97333907167194 57.43462871178053,246.70451990677975 57.38512195722433,247.8291150368168 57.731669238826726,249.63202674635977 57.3686197057832,251.30997240313445 53.9526536448393,257.78959215292707 50.734714602003805,262.6982823058206 49.480543487821706,263.5193628123816 48.50691064924467,263.5015132650151 47.6652958226623,263.0374245836283 47.10421927162679,262.30559066809656 45.91605716344202,259.39608325964946 37.763944921432994,251.93473650253145 37.20286837039748,250.3103465703898 37.367890885449015,246.72237066294474 37.037845855462365,245.90123454850982 36.24573778331978,245.45496378064854 35.437127459736075,245.3478586768324 34.84304640558548,245.8476820987562 34.595512633095495,246.72237066294474" stroke="#4dd2ff" stroke-linecap="round" stroke-linejoin="round" stroke-width="0.5"><title>2021-12-11 11.3km</title></polyline></svg>