<?xml version="1.0" encoding="utf-8" ?>
<svg baseProfile="full" height="300mm" version="1.1" viewBox="0,0,200,300" width="200mm" xmlns="http://www.w3.org/2000/svg" xmlns:ev="http://www.w3.org/2001/xml-events" xmlns:xlink="http://www.w3.org/1999/xlink"><defs /><rect fill="#222222" height="300" width="200" x="0" y="0" /><text fill="#FFFFFF" style="font-size:12px; font-family:Arial; font-weight:bold;" x="10" y="20">Over 3km Runs</text><text fill="#FFFFFF" style="font-size:4px; font-family:Arial" x="10" y="280">ATHLETE</text><text fill="#FFFFFF" style="font-size:9px; font-family:Arial" x="10" y="290">hanyang</text><text fill="#FFFFFF" style="font-size:4px; font-family:Arial" x="120" y="280">STATISTICS</text><text fill="#FFFFFF" style="font-size:3px; font-family:Arial" x="120" y="285">Number: 3</text><text fill="#FFFFFF" style="font-size:3px; font-family:Arial" x="120" y="290">Weekly: 1.0</text><text fill="#FFFFFF" style="font-size:3px; font-family:Arial" x="141" y="285">Total: 18.8 km</text><text fill="#FFFFFF" style="font-size:3px; font-family:Arial" x="141" y="290">Avg: 6.3 km</text><text fill="#FFFFFF" style="font-size:3px; font-family:Arial" x="167" y="285">Min: 3.0 km</text><text fill="#FFFFFF" style="font-size:3px; font-family:Arial" x="167" y="290">Max: 11.3 km</text><polyline fill="none" points="33.59505703416653,49.644736700400244 32.609505703439936,48.91169849579455 31.06958174938336,48.04537986870855 28.297718631336465,45.71297953114845 20.59809885919094,40.64831854356453 15.916730038123205,36.98308605601778 14.561596958432347,35.850193075311836 14.5,35.65027064061724 14.869581749197096,35.850193075311836 16.532699619885534,37.11636749189347 19.674144486663863,39.848632694396656 23.801140684401616,42.98073165427195 27.62015209114179,46.04617993941065 30.76159695838578,48.04537986870855 32.05513307987712,48.645139004744124 33.59505703416653,49.77801631158218 35.07338403048925,51.11081136652501 38.21482889750041,53.70975619950332 40.247528517385945,55.5756608065567 44.251330798491836,58.50778901198646 45.85285171098076,59.84057148708962 47.45437262370251,60.973435080901254 48.68631178699434,62.03965837229043 51.08859315584414,63.63899100472918 52.69011406879872,64.90512737748213 54.78441064665094,66.97092510689981 55.6467680609785,67.5706719707232 56.81711026607081,68.90344138647197 59.15779467695393,70.90259190980578 59.89695817488246,71.1691449866048 61.00570342200808,71.23578324361006 61.92965779476799,71.56897445739014 62.54562737653032,72.16871833981713 64.14714828878641,73.50148113060277 65.81026615970768,75.30070785211865 66.73422053246759,75.83381139370613 67.59657794679515,76.36691462813178 68.58212927752174,77.29984454921214 69.3212927756831,77.76630915683927 70.12205323181115,78.76587538106833 75.29619771870784,82.49757974169916 77.94486692035571,84.56333818240091 79.11520912544802,85.76280870824121 81.9486692014616,87.69528572884155 83.24220532318577,88.29501915565925 84.59733840310946,89.56112178007606 85.02851711004041,90.09421710355673 85.58288973360322,91.02713318058522 88.53954372624867,94.29233204072807 90.38745247153565,96.62460988492239 91.24980988586321,98.02397376915906 92.91292775655165,101.48905618226854 94.20646387827583,104.68758227536455 94.63764258543961,106.22020544286352 95.13041825103574,108.5524532176787 95.25361216720194,110.28497633012012 95.5,111.61768420902081 95.06882129260339,112.75048439681996 95.0072243346367,113.61674242810113 95.0072243346367,114.28309420793084 95.06882129260339,114.34972935944097 95.25361216720194,114.01655355351977 95.31520912563428,113.55010722356383 95.25361216720194,112.41730801493395 95.37680608360097,111.35114278685069 95.37680608360097,109.81852811900899 95.19201520900242,108.15263973083347 94.76083650183864,105.75375518231886 93.89847908751108,102.95504868088756 92.7281368819531,100.35624220594764 91.31140684429556,97.82406477240147 90.38745247153565,96.42470058589242 88.41634980984963,93.95914901152719 86.7532319391612,92.09332183055812 85.02851711004041,90.42740152479382 84.10456273774616,89.22793704707874 82.0718631176278,87.49537450011121 80.65513307973742,86.695729153289 77.57528517115861,84.43006358342245 75.78897338407114,82.83076689898735 75.41939163487405,82.2310299295932" stroke="#4dd2ff" stroke-linecap="round" stroke-linejoin="round" stroke-width="0.5"><title>2022-10-04 3.0km</title></polyline><polyline fill="none" points="132.0584245142527,72.03111778217135 133.50643296027556,71.37841597362421 148.28818584559485,80.97308521723608 166.2072903639637,95.8544120506267 169.9479788490571,100.8148000256042 173.68866733461618,114.71679534134455 175.19700946589,115.5 180.2047053410206,114.65152825578116 180.8683758790139,113.54198708431795 180.56670745275915,109.03854132565903 178.93769795098342,108.0595284170704 176.6450179114472,101.33694454882061 177.79135793144815,99.96631453360897 180.2047053410206,99.70524191478034 179.29970006248914,92.9173274259665 175.43834420642816,86.91259145818185 170.06864622002468,84.23655500344466 170.91331781307235,82.40901337115793 167.77596618048847,79.34134591679322 173.20599785260856,72.09638793708291 173.50766627886333,68.37598159897607 156.7952354652807,55.51761749677826 153.47688277694397,51.92768630385399 149.85686166211963,50.100079505180474 129.46407604892738,34.5 128.9210728816688,36.392910996451974 124.81838228483684,35.47909238858847 123.31004015333019,36.523456436698325 122.2240338192787,41.35362449847162 123.00837172754109,42.98543221311411 118.9056811304763,43.37706562719541 110.15729676978663,54.93017518398119 109.13162412075326,58.520094480132684 114.01865262561478,69.35503737948602 115.34599370113574,67.20111326588085 118.36267796321772,67.46219524933258 123.73237595031969,66.09151399700204 132.42042662599124,71.96584762260318 133.14443084876984,73.5323301574681 131.9377571437508,74.18503041449003 133.2047645340208,73.33651998866117" stroke="#4dd2ff" stroke-linecap="round" stroke-linejoin="round" stroke-width="0.5"><title>2022-05-14 4.4km</title></polyline><polyline fill="none" points="27.585634692455642,197.54152225414873 26.199445566278882,194.32804795869743 26.397472584270872,192.93553380368394 30.23424605850596,187.9277955571597 31.694695316487923,187.9277955571597 31.47191492107231,187.20474756270414 32.70958378375508,184.60711908969097 34.046266155550256,185.16949380398728 34.54133370053023,185.0088154009718 34.39281343703624,184.52677977530402 34.68985396414064,184.5 44.46743797895033,191.54301443207078 50.23497487884015,196.52392506608157 53.27964028099086,198.5858954191208 56.17578541953117,202.09389662279864 57.51246779120993,204.7181812232302 57.88376845000312,206.72654978232458 57.735248186509125,209.85958307230612 57.09166037791874,210.55580910714343 56.05201853334438,210.95747738034697 56.57183945563156,217.89288114002557 55.160896952147596,226.7293085809506 55.50744423374999,228.01458962768083 56.27479892864358,228.44301565617207 57.14116713241674,231.09389073424973 54.59156927536242,238.4573334918241 54.69058278435841,241.61687514802907 52.933092999388464,243.1163092564093 52.80932611320168,243.62504445575178 53.972734843962826,245.20479669317137 50.38349514233414,249.1139852561464 49.54188031575177,250.74726420233492 45.50707982352469,255.70060732591082 56.373812437523156,265.392904206994 56.59659283282235,265.5 66.72072412923444,254.01380058555515 68.1564200099092,254.2012239343312 69.19606185459998,253.07668242548243 68.50296729139518,252.38053597870748 68.50296729139518,251.33631386631168 71.3991124300519,246.7845422224491 73.92395690991543,247.8287771101168 73.84969677811023,247.58780008854228 75.40915954508819,248.01620357463253 74.27050419140141,248.52493207363295 75.97848722187337,247.40037340822164 76.17651423986536,247.5610248542216 76.05274735356215,246.7309916364029 75.80521358107217,247.8287771101168 75.037858886295,248.3107306851598 74.988352131797,248.04297877612407 75.80521358107217,248.04297877612407 74.24575081421062,248.20362994467723 75.78046020376496,248.0965291733155 75.73095344938338,248.36428104384686 74.7655717364978,248.3107306851598 75.087365640793,248.20362994467723 74.66655822750181,248.36428104384686 75.01310550898779,248.2304051326646 74.988352131797,248.57848240152816 74.61705147300381,248.84623392517096 73.03283532871865,247.23972189280903 72.01794686133508,247.02551976434188 71.6713995798491,247.26649715020903 73.15660221490543,244.77638996965834 74.24575081421062,241.77752909160336 77.14189595275093,229.75506729865447 78.2557979291305,227.18451279294095 78.77561885141768,226.8899689547252 79.41920666012447,227.63971644785488 81.2509565766668,228.36268581345212 82.98369298444595,228.17524944615434 83.80055443383753,228.9785474978562 83.65203417022713,229.8086203286366 82.56288557115477,230.96000860750792 81.1519430676708,235.05677986016963 81.0776829358656,236.7436725552252 81.59750385826919,239.44804011951783 81.0529295586748,241.96495860468713 75.92898046737537,251.6843882293906 71.10207190306392,259.04742345871637 69.22081523179077,260.2790442185651 67.76036597392522,260.25226989752264 66.49794373405166,259.55613687544246 65.65632890746929,258.45838600213756 63.87408574519213,254.0941248894669 51.6459173822077,242.90210475379718 50.80430255562533,240.46551985558472 51.05183632823173,235.08355599440983 50.556768783251755,233.85185182275018 49.36860667495057,233.1824456709728 48.155691189691424,233.02178801523405 47.264569608378224,233.77152314814157 46.89326894970145,235.08355599440983" stroke="#4dd2ff" stroke-linecap="round" stroke-linejoin="round" stroke-width="0.5"><title>2021-12-11 11.3km</title></polyline></svg>