<?xml version="1.0" encoding="utf-8" ?>
<svg baseProfile="full" height="300mm" version="1.1" viewBox="0,0,200,300" width="200mm" xmlns="http://www.w3.org/2000/svg" xmlns:ev="http://www.w3.org/2001/xml-events" xmlns:xlink="http://www.w3.org/1999/xlink"><defs /><rect fill="#222222" height="300" width="200" x="0" y="0" /><text fill="#FFFFFF" style="font-size:12px; font-family:Arial; font-weight:bold;" x="10" y="20">Over 3km Runs</text><text fill="#FFFFFF" style="font-size:4px; font-family:Arial" x="10" y="280">ATHLETE</text><text fill="#FFFFFF" style="font-size:9px; font-family:Arial" x="10" y="290">hanyang</text><text fill="#FFFFFF" style="font-size:4px; font-family:Arial" x="120" y="280">STATISTICS</text><text fill="#FFFFFF" style="font-size:3px; font-family:Arial" x="120" y="285">Number: 11</text><text fill="#FFFFFF" style="font-size:3px; font-family:Arial" x="120" y="290">Weekly: 1.6</text><text fill="#FFFFFF" style="font-size:3px; font-family:Arial" x="141" y="285">Total: 53.8 km</text><text fill="#FFFFFF" style="font-size:3px; font-family:Arial" x="141" y="290">Avg: 4.9 km</text><text fill="#FFFFFF" style="font-size:3px; font-family:Arial" x="167" y="285">Min: 3.0 km</text><text fill="#FFFFFF" style="font-size:3px; font-family:Arial" x="167" y="290">Max: 11.3 km</text><polyline fill="none" points="35.86703910632059,50.92763289558934 37.07374301692471,51.776161444198806 38.22011173190549,52.75523185933707 39.96983240242116,53.66902995907003 41.659217877546325,54.77864069840871 43.0469273745548,55.88825007900596 43.89162011188455,56.736773982760496 45.27932960912585,57.45475512690609 46.24469273770228,58.172735702304635 47.93407821236178,59.67396597616607 50.10614525154233,61.30573519220343 51.4938547485508,62.61114844970871 53.66592178796418,64.37345336435828 56.200000000186265,66.7231879197061 57.58770949742757,67.76751243323088 60.54413407854736,70.57412860030308 61.207821229239926,71.4226387537783 62.17318435758352,72.98911694984417 63.50055865943432,74.6861319403979 63.922905028099194,75.66517760488205 64.46592178801075,76.51368299196474 65.00893854768947,78.08015238877852 65.25027932994999,79.5813496868941 65.55195530736819,80.82146731833927 65.91396648064256,81.7352371190791 66.2759776536841,83.17115923034726 66.63798882695846,83.82385034713661 66.81899441359565,83.82385034713661 66.93966480460949,83.75858125655213 66.93966480460949,83.4322357334313 66.6983240225818,82.71427516901167 66.57765363133512,80.95200591778848 65.91396648064256,78.34123035822995 65.25027932994999,76.51368299196474 63.37988826818764,73.18492653407156 62.112849162425846,71.55317870690487 58.49273743038066,67.8327826752793 56.86368715087883,66.39683626248734 55.47597765363753,64.9608875742415 54.389944134280086,64.17764187639114 50.95083798910491,60.914110848272685 46.968715084251016,57.58529709215509 46.30502793309279,56.93258707859786 46.00335195544176,56.8673160513863 45.58100558700971,56.8673160513863 45.70167597779073,57.25894214399159 46.425698324339464,58.23800663551083 47.69273743033409,59.15179920644732 49.02011173218489,60.52248633513227 51.131843575742096,62.0889833723777 57.82905027945526,67.76751243323088 58.79441340803169,68.81183574331226 59.94078212301247,69.72561765252613 60.604469273705035,70.57412860030308 63.13854748639278,74.16397382016294 63.98324022372253,74.94721088762162 64.82793296128511,77.10110933298711 65.43128491658717,80.23404338862747 66.2759776536841,82.97535180370323 66.51731843594462,83.62804306135513 66.81899441359565,83.75858125655213 66.93966480460949,83.69331216131104 66.93966480460949,83.4322357334313 66.6983240225818,82.58373682340607 66.63798882695846,81.27835233387304 65.73296089400537,77.94961337570567 65.43128491658717,77.10110933298711 65.0692737433128,76.38314375333721 64.94860335206613,75.92625627008965 64.52625698340125,75.01248061278602 63.37988826818764,73.11965667747427 62.59553072648123,72.0753383312258 59.82011173199862,69.13818653090857 57.76871508406475,67.18008004245348 56.200000000186265,65.74413259536959 53.484916201326996,63.45966605853755 51.07150838011876,61.109923041425645 49.20111731882207,59.73923680122243 47.81340782158077,58.30327756394399 46.18435754207894,56.9978581010364 44.97765363147482,56.41041872929782 44.49497206718661,56.4756897893385 44.374301676405594,57.06312911893474 44.55530726280995,57.25894214399159 47.02905027940869,58.8907157087815 48.23575419001281,59.86977843713248 49.50279329624027,61.109923041425645 52.39888268173672,63.65547770156991 53.66592178796418,64.89561712532304 55.65698324027471,66.20102521171793 60.72513966518454,70.63939864042914 62.35418994422071,72.79330732347444 64.58659217879176,76.44841337495018 64.88826815667562,77.29691802873276 65.25027932994999,79.71188846474979 65.43128491658717,80.42985140741803 66.09497206727974,82.06158325326396 66.33631284930743,83.17115923034726 66.6983240225818,83.82385034713661 67.0,84.08492666226812 66.75865921820514,82.12685246596811 66.45698324055411,80.8867366205086 65.85363128525205,78.53703878610395 65.18994413432665,76.77476141270017 63.319553072797135,73.18492653407156 62.65586592210457,72.20587819028879 59.759776536375284,69.00764623004943 58.01005586609244,67.50643141765613 55.71731843613088,65.41778058547061 53.36424581031315,63.52493661100743 51.4938547485508,61.827900720760226 50.64916201122105,61.30573519220343 48.41675977665,59.086528339015786 45.58100558700971,56.671502941520885 43.83128491649404,55.62716564111179 42.98659217916429,54.909183049050625 39.60782122914679,52.75523185933707 35.92737430194393,50.73181850236142 32.06592178763822,48.12095588154625 29.35083798901178,46.61970646830741 28.385474860668182,45.90171673934674 26.93743016780354,45.11845456802985 25.670391061576083,44.1393759016064 23.256983240367845,42.70339194405824 19.81787709519267,40.28832288336707 18.61117318458855,39.63560041051824 17.46480446937494,38.85233282262925 13.90502793318592,36.3067084858194 13.181005586637184,35.91507333773188 13.0,35.91507333773188 13.0,36.11089093290502 13.181005586637184,36.3067084858194 14.146368715213612,36.959433356591035" stroke="#4dd2ff" stroke-linecap="round" stroke-linejoin="round" stroke-width="0.5"><title>2022-11-09 5.0km</title></polyline><polyline fill="none" points="78.57037512841634,37.36205280513968 75.66739678289741,35.13740980217699 74.05463103507645,33.741551194514614 73.32888644887134,33.0 73.69175874209031,33.130862041551154 74.21590761002153,33.43620669498341 74.82069476530887,34.090516148135066 77.32048167404719,35.92257885436993 78.20750283519737,36.751367304706946 80.22346001979895,38.32170020393096 81.43303433037363,39.063244879303966 84.49728925083764,41.375113624788355 85.98909756774083,42.16027458652388 87.19867187808268,43.33801411971217 88.60984190739691,44.34127191477455 89.3759056373965,45.12642902950756 91.4725011093542,46.5222613857477 93.32718171924353,47.91809052374447 95.14154318510555,49.6628724206239 97.84292581258342,51.320410565065686 98.68962782993913,52.19279723940417 99.2944149854593,52.89070567378076 99.93952128430828,53.370517255796585 100.62494672695175,53.67585170088569 101.47164874454029,54.679092364851385 102.72154219890945,55.37699793319916 103.93111650971696,55.85680754482746 104.57622280879878,56.20575975085376 104.85845681466162,56.51109276607167 105.54388225730509,57.55794764927123 106.79377571190707,58.38670648162952 108.24526488455012,59.608033219352365 110.7047326497268,61.30916278442601 111.5514346670825,62.09429789468413 117.27675307146274,66.41252280358458 118.00249765766785,67.06679661845556 118.84919967525639,67.59021516132634 119.57494426169433,68.2881058480707 119.85717826732434,68.85514143877663 120.34100799169391,69.50941261433763 122.71983746928163,71.99563663452864 123.60685863066465,73.21693592320662 124.37292236066423,74.48185044684215 125.74377324618399,77.7531688590534 126.34856040147133,80.02127258462133 126.67111355112866,82.94362447672756 126.55015611997806,84.86277327185962 126.38887954526581,85.73511162289651 125.94536896469072,86.91276640369324 125.82441153354011,87.0 125.82441153354011,86.60744871746283 126.26792211411521,84.38298664317699 126.34856040147133,83.64149746950716 126.22760297055356,82.02766495314427 126.22760297055356,81.11170404427685 126.10664553963579,80.37021086522145 126.06632639560848,79.84680336876772 125.78409238997847,79.1489260030794 125.34058180940337,77.27337659773184 124.49387979181483,75.26696847740095 123.36494376836345,73.21693592320662 121.83281630836427,71.34136814519297 120.74419942847453,70.12006507377373 119.85717826732434,69.33494036999764 119.29271025583148,68.68066900596023 118.97015710640699,68.1136332518654 118.72824224410579,67.80830608744873 117.8412210829556,66.97956015070667 116.59132762835361,66.23804966692114 114.93824273720384,64.84226276358822 114.01090243225917,64.27522341499571 111.30951980501413,62.35600937192794 110.7047326497268,61.83258630434284 110.0193072068505,61.00383218872594 109.61611577006988,60.698501439066604 108.4065414594952,60.13145820988575 108.20494574098848,59.956983263313305 107.92271173512563,59.477176900953054 107.55983944190666,59.171845381497405 107.15664800512604,58.91013252804987 106.5115417058114,58.692038397013675 106.02771198144183,58.34308762400178 105.54388225730509,57.8632799826446 104.89877595822327,57.601566563593224 104.77781852707267,57.47070981154684 104.25366965937428,56.38023577834247 103.85047822236083,56.031283672957215 103.60856336005963,55.85680754482746 102.96345706121065,55.72595041577006 101.47164874454029,55.02804524957901 100.30239357752725,54.199281819863245 99.61696813488379,53.41413647169247 98.36707468051463,52.32365513214609 97.84292581258342,51.62574604409747 97.23813865729608,51.05869431758765 96.47207492706366,50.578880903543904 95.02058575418778,49.88096980412956 93.60941572510637,48.746862551837694 92.60143713280559,47.78723167878343 91.51282025314867,46.91483865608461 89.65813964349218,45.64986654021777 88.89207591325976,45.34452804730972 88.56952276360244,45.08280921651749 88.00505475210957,44.64661091385642 86.71484215394594,43.33801411971217 86.1100549986586,42.5092346870224 85.14239554991946,41.72407417796785 84.17473610141315,41.24425336549757 82.92484264704399,40.415471066429745 80.58633231301792,38.53980167338159 75.70771592645906,35.48637395113474 74.05463103507645,34.003274928661995 73.53048216714524,33.39258603978669 73.36920559243299,33.17448271578178 73.36920559243299,33.130862041551154 73.49016302358359,33.130862041551154 74.37718418473378,33.741551194514614 74.86101390910335,34.22137795394519 77.52207739255391,36.35878344334196 79.73963029542938,37.97273768944433" stroke="#4dd2ff" stroke-linecap="round" stroke-linejoin="round" stroke-width="0.5"><title>2022-11-07 5.0km</title></polyline><polyline fill="none" points="138.50090189743787,36.938573975348845 137.04470710572787,36.019575665763114 135.83121144631878,35.188099806488026 135.0626641951967,34.57543265540153 133.40422012703493,33.04376207344467 135.1031140505802,34.31286082993029 136.1143604335375,35.23186172218993 138.29865262075327,37.02609755139565 141.77734017837793,39.345467719307635 144.20433149742894,41.22721436584834 144.972878748551,41.57730612199521 145.45827701245435,41.92739767633611 145.8627755655907,42.23372762079816 146.14592455280945,42.62758017942542 147.4403199229855,43.809136323223356 150.99990719137713,46.391047304379754 156.13703881693073,50.50457771966467 157.35053447657265,51.29227185511263 159.17077796603553,52.91141770320246 160.30337391491048,53.74286929925438 162.0022678382229,55.14320625690743 162.77081508934498,55.62457134050783 163.41801277454942,55.84337352513103 164.26745973620564,56.32473805377958 164.91465742141008,57.024903960118536 167.3011988850776,59.16915702744154 167.78659714898095,59.47547827626113 168.9191930978559,60.394441096053924 169.88998962566257,61.05084225907922 171.58888354920782,62.58244221424684 173.44957689382136,64.02651863498613 175.55296937050298,65.47059162298683 177.73726155771874,67.17721891013207 178.74850794067606,67.78985317709157 179.2339062045794,68.22744870377937 180.44740186422132,69.89030883059604 182.18674564291723,71.94699795427732 183.4406911577098,73.60984789999202 184.12833869829774,75.01013906096341 184.8968859494198,76.80425739416387 185.38228421332315,78.51085284317378 185.98903204291128,79.99865009245696 186.39353059628047,82.49289024830796 186.43398045143113,83.41181825095555 186.39353059628047,84.46201998065226 186.3126308855135,85.33718670211965 186.02948189829476,87.0 186.43398045143113,84.11195293912897 186.59577987296507,82.18658060522284 186.43398045143113,81.70523656840669 186.15083146444522,79.254751923203 185.90813233237714,78.24830000917427 185.4227340684738,77.06681085220771 183.92608942161314,74.48503025382524 183.27889173664153,73.7848844716209 182.18674564291723,72.34083124744939 180.73055085144006,70.72173718712293 179.7597543236334,69.36519559810404 179.15300649381243,68.18368916533655 178.8294076512102,67.78985317709157 178.22265982162207,67.30849773361115 177.57546213641763,66.95842080784496 176.1597172000911,65.82066940603545 174.1372244344093,64.33283743442735 172.27653108956292,63.23884101281874 171.7911328256596,62.80124189250637 170.45628760010004,61.31340252555674 169.40459136175923,60.6132415625616 168.51469454471953,59.69427907373756 168.19109570235014,59.43171810725471 166.73490091064014,58.55651406629477 165.23825626377948,57.19994531053817 164.55060872342438,56.499779606063385 163.45846262970008,55.93089437694289 162.40676639135927,55.318248149589635 160.707872467814,53.917911595490295 160.34382377006114,53.480305760283954 159.08987825526856,52.73637511685956 158.4831304254476,52.03620426723501 157.87638259562664,51.46731485752389 156.46063765930012,50.50457771966467 154.4381448936183,49.45431728329277 153.50779822119512,48.57909886573907 152.415652127238,47.878923223761376 151.08080690191127,46.78489716706099 149.74596167635173,45.95343604614027 147.07627122523263,43.63409111351939 145.62007643352263,42.014920533285476 145.1751280252356,41.62106757739093 144.16388164227828,41.13969139527762 142.95038598240353,40.30822254595114 141.97958945506252,39.60803736880189 141.17059234855697,38.82032807957148 140.1997958207503,38.207664592773654 139.22899929317646,37.59500048792688 138.33910247590393,37.15738289174624 133.44466998241842,33.0 138.581801607972,37.11362111469498 141.57509090169333,39.170421223156154" stroke="#4dd2ff" stroke-linecap="round" stroke-linejoin="round" stroke-width="0.5"><title>2022-10-25 5.0km</title></polyline><polyline fill="none" points="18.673725766595453,97.25419491162756 16.18599481182173,95.4309721996542 13.61801447160542,93.26046177634271 18.071855374379084,96.77668473467929 18.874349230900407,97.42783488210989 22.004075270611793,99.59833029046422 24.331307454267517,101.33472098677885 24.85292846080847,101.63858884410001 25.374549467582256,101.8556372197927 25.856045781401917,102.20291445823386 26.93941248743795,103.33156410057563 28.62464958569035,104.6338495220989 29.38701874925755,105.37181001139106 30.550634841201827,106.32681636174675 33.118615181650966,108.10659688414307 34.924226358300075,109.58250845159637 37.77307954849675,111.62273319455562 38.97682033316232,112.53432074014563 39.5385660326574,113.14204500435153 39.97993765352294,113.53272456483683 41.304052516585216,114.48771797958761 42.14667106582783,115.18225769401761 42.58804268669337,115.4861185674672 42.90904022939503,115.5729359316756 43.31028715753928,115.96361391595565 44.152905706781894,116.22406576480716 44.473903249483556,116.44110888603609 45.236272412817925,117.39609769108938 45.87826749798842,117.83018301118864 46.159140347735956,118.17745104210917 46.80113543267362,118.56812733766856 48.16537498869002,119.65333794069011 49.007993537932634,120.47809669171693 50.974103485932574,121.78034505306277 52.17784427036531,122.82214171567466 55.387819695984945,125.12276963185286 55.869316009804606,125.55684938572813 57.79530126508325,127.07612606190378 59.23979020654224,128.0745057920576 60.28303222008981,129.50696077663451 62.40964093944058,131.8509706792538 63.97450395929627,134.0647494380246 64.65662373718806,135.23674666503211 65.25849412963726,136.66918462509057 66.06098798592575,139.4038294578786 66.22148675704375,140.7494437887799 66.50235960679129,142.39890241849935 66.50235960679129,143.48407010757364 66.46223491407,144.17857640329748 66.301736142952,145.4373670243658 65.98073860025033,147.0 66.14123737136833,144.78626875550253 66.18136206432246,143.09340996458195 66.26161144999787,142.35549567022827 66.18136206432246,140.8362575134379 65.78011513617821,138.75272467080504 65.45911759347655,137.5373271862045 64.8973718942143,135.88785525067942 64.1350027306471,134.3251934631262 63.65350641682744,133.45704627479427 60.00215937034227,129.11629157303832 59.15954082086682,128.03109801211394 56.95268271607347,126.51182374358177 55.26744561758824,125.03595364355715 54.0637048331555,124.5150574510917 53.06058751256205,123.42985560389934 51.455599799752235,122.25783541379496 50.45248247939162,121.3028543140972 49.489489851752296,120.65172996930778 47.643753981916234,119.0890286709764 47.041883589699864,118.69835271325428 46.07889096206054,117.91700003761798 45.236272412817925,117.13564634893555 44.43377855652943,116.26747439522296 43.59116000728682,115.65975328342756 42.86891553667374,115.44270988064818 42.22692045150325,115.05203155864729 40.42130927462131,113.48931573732989 39.25769318290986,112.70795630675275 37.53233139170334,111.18864340230357 35.88721898617223,110.0600084788166 34.603228815831244,109.27864460088313 32.87786702462472,107.97636921930825 30.43026076257229,105.97954150044825 28.62464958569035,104.8074873656733 26.93941248743795,103.33156410057563 25.494923545978963,101.8556372197927 24.491806225385517,101.33472098677885 22.445446891710162,99.77196958538843 21.883701192215085,99.51151062431745 19.23547146632336,97.64488477481063 16.707615818595514,95.51779245393118 15.42362564848736,94.60617916012416 14.059386092470959,93.39069262234261 13.497640393208712,93.0 13.979136706795543,93.34728234342765 15.905121962307021,95.08369105745805 17.951481295982376,96.60304457653547 19.716967779910192,98.07898432575166 21.723202421097085,99.46810078661656" stroke="#4dd2ff" stroke-linecap="round" stroke-linejoin="round" stroke-width="0.5"><title>2022-10-19 5.1km</title></polyline><polyline fill="none" points="78.16212334530428,96.64159612392541 77.05381005606614,96.10868096200284 75.57605900452472,95.1760783198406 73.11314058466814,93.0 73.7288701897487,93.26645898254355 75.90444812714122,94.68757161067333 78.24422062584199,96.46395778772421 80.46084720361978,97.70742506510578 82.43118193931878,99.26175563386641 83.9499816314783,100.32758004392963 84.7299057978671,100.72726372256875 85.2635381219443,101.08253788587172 85.67402452533133,101.43781184445834 86.53604597225785,102.50363249139627 87.80855382233858,103.39181495597586 88.62952662911266,104.05795096443035 89.61469399696216,104.76849524665158 91.37978553096764,106.27839912637137 92.3239042586647,106.81130549497902 93.26802298612893,107.4774378077127 94.41738491528668,108.45443056419026 95.15626044152305,109.25378712220117 96.34667101083323,109.96432541456306 97.82442206284031,110.98572277481435 98.80958943068981,111.96270997042302 100.12314592092298,112.98410401929868 100.61572960508056,113.47259622695856 101.47775105200708,114.09431302227313 102.01138337608427,114.5828043501242 102.87340482301079,115.11570353899151 104.55639907647856,115.78182687720982 105.00793412025087,116.22590870270506 105.17212868155912,116.66999020834919 105.54156644456089,117.15847949491581 106.44463653163984,117.95782476541353 108.3739226271864,119.33447252359474 108.74336039018817,119.77855178969912 110.22111144196242,120.75552504928783 111.78095977450721,122.17657429899555 114.44912139582448,123.99728886276716 115.06485100090504,124.66340260358993 115.68058060551994,125.1518855561153 117.24042893829755,126.12885029974859 119.45705551607534,127.81633121037157 120.15488240146078,128.6156626609736 120.3601256031543,129.0153279977967 120.85270928707905,129.59262191544985 122.74094674224034,131.7685710544465 124.09555187309161,133.5892572896555 125.20386516209692,135.45434493100038 125.6554002056364,136.52010676427744 126.27112981071696,138.74043799983338 126.4353243720252,139.4509423064883 126.3942757314071,140.20585223514354 126.72266485425644,142.3373576325248 126.76371349440888,143.35870135744335 126.68161621387117,145.09054119844222 126.55847029271536,146.0674743472482 126.35322709125467,146.91118809382897 126.3942757314071,147.0 126.47637301217765,146.9555940485443 126.59951893310063,146.2006923839799 126.76371349440888,145.71222610858968 126.80476213479415,145.00172901712358 126.88685941556469,143.40310756798135 126.84581077517942,142.514982749708 126.76371349440888,142.07091986079467 126.47637301217765,139.095690255519 125.94274068786763,137.1862069744966 125.4091083635576,135.809599080123 124.95757332001813,134.87705650209682 124.05450323270634,133.27840880083386 122.6588494614698,131.50212871539406 121.63263345323503,130.3031367645017 120.6885147257708,129.32617863605265 119.53915279661305,127.8607385403593 118.67713134968653,127.4166650963598 117.15833165775985,125.86240552313393 116.66574797360227,125.41833063971717 115.7626778865233,124.79662526544416 114.20282955397852,123.55321263580117 113.17661354551092,122.9315053805476 111.41152201150544,121.55486565525644 110.63159784511663,120.75552504928783 109.93377095949836,120.35585435747635 109.3590899950359,119.77855178969912 108.3739226271864,119.15684072748991 106.89617157541215,117.95782476541353 106.4035878914874,117.6469683945761 105.99310148810036,117.24729568726616 105.6236637250986,117.11407139402581 105.17212868155912,116.62558207212714 104.7616422784049,116.003867829917 104.47430179594085,115.73741867695935 103.11969666508958,115.07129529083613 102.13452929724008,114.44957948097726 101.43670241162181,113.73904635885265 101.10831328900531,113.16173759417143 100.32838912284933,112.76206197869033 99.34322175499983,112.09593537717592 98.60434622876346,111.56303357757861 97.53708158037625,110.58604574843775 97.33183837868273,110.54163717397023 97.2907897385303,110.67486288788496 97.24974109814502,111.34099102515029 96.67506013344973,111.38539954199223 96.3877196512185,111.51862507348415 95.48464956390671,112.22916075511603 95.03311452036723,112.45120298757683 94.0479471522849,112.89528721268289 93.30907162628137,112.62883671594318 92.9806825038977,112.67324514017673" stroke="#4dd2ff" stroke-linecap="round" stroke-linejoin="round" stroke-width="0.5"><title>2022-10-15 3.9km</title></polyline><polyline fill="none" points="138.40636810078286,97.31494716968155 137.479775687214,96.74833970121108 135.54601760674268,95.13568476989167 133.93455253960565,93.56661098002223 133.49139964627102,93.04358547896845 134.49856531294063,93.82812356104841 135.3848710998427,94.69983134767972 136.51289664697833,95.52795258135302 138.72866111411713,97.40211750235176 142.4753173950594,100.06080661440501 144.08678246219642,101.2811845887336 144.57022198219784,101.5862786975922 146.06082716933452,102.28363608272048 146.78598644956946,103.11174693348585 148.03487187670544,103.98344134108629 149.64633694384247,105.33456519048195 150.81464911741205,106.11908733093878 151.66066827764735,106.86002397380071 154.48073214502074,108.86490681016585 156.21305709215812,110.3903566909139 157.58280239929445,111.26204061001772 159.11369421286508,112.7874844460166 159.79856686666608,113.31049287575297 160.96687904023565,114.44367625564337 161.89347145380452,115.18460270256037 162.86035049404018,115.75119290250586 164.02866266760975,116.14344734547194 164.55238881427795,116.36136637063464 164.95525508141145,116.71003664750606 165.39840797474608,117.36379287508316 166.2041405083146,118.19188308238517 168.41990497568622,119.84806009673048 168.94363112235442,120.41464592918055 170.111943295924,121.1555650633527 171.03853570949286,122.11440024303738 172.81114728329703,123.33473372843582 173.9794594568666,124.24998222704744 175.51035127067007,125.25239566084929 177.88726224470884,127.12646849494195 178.69299477827735,127.56229855469428 179.13614767161198,127.91096237645252 179.86130695184693,129.08770129142795 182.60079756588675,132.18207788665313 183.60796323302202,133.4895561991143 184.69570215325803,135.27643865696155 185.94458758016117,138.24003695353167 186.1460207134951,139.19884505943628 186.38774047372863,140.8985466043814 186.54888698039576,142.7289890826214 186.54888698039576,143.51346273557283 186.4280271003954,144.29793537140358 186.4280271003954,145.25673387869028 186.10573408706114,147.0 186.1863073403947,146.7820920094382 186.1460207134951,145.99762259388808 186.34745384706184,143.99286280054366 186.30716722039506,141.63944065547548 186.02516083372757,139.15526290575508 185.54172131349333,137.41197418479715 184.69570215325803,135.36360351991607 184.09140275302343,134.09971177804982 183.72882311278954,133.4895561991143 183.24538359278813,132.96656521316618 182.39936443255283,131.78983384202002 180.82818599208258,129.91577545233304 180.5461796054151,129.61069563007914 180.22388659208082,129.3491985173314 179.82102032518014,128.91336974478327 179.1764342985116,127.95454534009332 175.34920476400293,124.99089666432701 174.50318560400046,124.46789833222283 173.8183129504323,123.98848279722733 173.1737269232981,123.42190031171776 171.23996884282678,121.89648329018382 169.95079678925686,120.76331387006212 166.8084399085492,118.32263406412676 165.2372614678461,117.05870672338642 164.91496845451184,116.579285317217 164.31066905451007,115.92552824190352 163.6660830276087,115.53327365760924 163.10207025404088,115.27177046006545 161.69203832023777,114.2693404891761 160.32229301333427,113.13615678279893 159.67770698666573,112.7439003897598 157.78423553262837,111.17487227468519 155.36703793192282,109.60584008990554 153.63471298478544,108.16755701205693 149.92834333050996,105.5089035317651 148.59888465004042,104.28853408707073 147.55143235670403,103.50400957243983 146.34283355623484,102.50156010076171 145.65796090266667,101.76061811920954 145.0939481293317,101.41193922550883 143.96592258219607,100.97609032585751 142.71703715529293,99.75571173615754 141.42786510149017,98.88401123590302 140.62213256815448,98.53533068409888 139.85668666101992,98.01230947946897 138.16464834054932,96.70475448935758 137.31862918054685,96.00739067204995 135.86831062007695,94.9613434386556 133.57197289937176,93.04358547896845 133.4511130193714,93.0 133.77340603270568,93.39226919657085 134.49856531294063,93.87170898017939 136.11003038007766,95.35361136315623 140.34012618125416,98.57891576399561" stroke="#4dd2ff" stroke-linecap="round" stroke-linejoin="round" stroke-width="0.5"><title>2022-10-12 5.0km</title></polyline><polyline fill="none" points="18.37721518985927,162.79457581136376 15.916455696104094,160.82254197471775 14.822784810094163,160.08302782062674 14.18481012666598,159.54071693273727 13.0,158.7519003287307 14.640506329014897,160.1323287889827 18.924050632864237,163.38618485390907 22.159493670798838,165.70331534498837 24.620253164554015,167.6260346886702 25.212658227887005,168.02043798880186 25.941772151971236,168.31624031456886 26.670886075822636,168.80924390687142 27.7645569620654,169.94315082090907 30.27088607591577,171.81655812717509 31.3645569619257,172.80255991226295 40.341772151878104,179.55663393915165 41.48101265798323,180.54262457077857 44.762025316245854,183.1554928739206 46.311392404837534,184.14147832000162 47.95189873385243,184.93026565405307 48.72658227826469,186.06414585368475 49.3645569619257,186.55713665881194 49.911392404930666,187.09942613437306 52.23544303770177,188.77559088694397 53.14683544286527,189.76156823540805 54.422784809954464,190.59964786458295 55.42531645554118,191.53632388281403 60.3468354428187,194.98722446593456 63.08101265807636,197.15635306871263 63.76455696183257,197.60003761772532 64.58481012634002,198.43810764781665 65.54177215183154,199.76915793924127 67.0,201.2480996712693 66.04303797450848,200.3114369455143 64.99493670859374,198.73389682522975 64.53924050601199,198.14231834269594 63.39999999990687,197.45214279991342 61.30379746807739,195.7267008983181 59.75443037948571,194.54353822290432 59.16202531638555,194.19844872393878 58.250632911222056,193.36037350189872 57.24810126586817,192.71949175733607 55.015189873287454,191.04333666461753 52.91898734169081,189.12068312050542 50.18481012643315,187.19802417460596 49.22784810117446,186.21204313251656 48.63544303784147,185.81765031797113 47.67848101258278,184.782368098211 45.53670886065811,183.6977850451367 43.66835443023592,182.26810475764796 43.2582278479822,181.82441026810557 40.75189873413183,179.70453262445517 39.38481012638658,178.81714003300294 37.972151898546144,177.68324782466516 36.83291139220819,176.9437518939376 35.92151898727752,176.30285477417056" stroke="#4dd2ff" stroke-linecap="round" stroke-linejoin="round" stroke-width="0.5"><title>2022-10-09 3.0km</title></polyline><polyline fill="none" points="79.3447684389539,163.56636667612474 77.5849056604784,162.2135545690544 74.20411663781852,159.8586531409528 73.0,158.95677388610784 74.11149228131399,159.70834001299227 80.78044596896507,165.06948815268697 82.54030874767341,166.3220869009965 83.65180102922022,166.72291802393738 85.22641509445384,168.12582513445523 87.03259005141445,169.17800360976253 88.32933104620315,170.48069856408983 90.04288164665923,171.73328756471165 90.83018867927603,172.63515024795197 91.43224699841812,173.13618456659606 92.35849056602456,173.73742527258582 99.30531732412055,179.04836226440966 100.69468267564662,180.00031838187715 101.43567753001116,180.40114162041573 102.77873070328496,181.55350714433007 105.69639794179238,183.85823246376822 106.99313893658109,184.7600794226746 108.24356775311753,185.21100246347487 108.66037735831924,185.4615151375765 109.03087478573434,185.81223272980424 109.26243567769416,186.46356493182248 109.49399656942114,186.66397471737582 111.90222984575666,188.56786480004666 113.52315608924255,189.62001234659692 114.1715265866369,190.2713409823482 115.23670668946579,191.0228732659598 116.85763293295167,192.4758333778591 118.01543739275075,193.22736327908933 119.49742710124701,194.58011505496688 122.09090909082443,196.6342886464554 122.69296740996651,197.23550903762225 124.12864493997768,198.18744026101194 124.82332761585712,198.43794826115482 125.19382504280657,198.63835459627444 125.84219554020092,199.33977631444577 126.35162950260565,200.29170465789502 126.76843910804018,200.84282047161832 126.90737564326264,201.04322611389216 127.0,201.04322611389216 126.21269296738319,199.64038540580077 125.10120068630204,198.53815143590327 124.68439108063467,198.38784666825086 121.25728987995535,195.73245708504692 119.68267581495456,194.6302169219707 118.43224699818529,193.67828083003405 115.97770154383034,191.67420058796415 115.23670668946579,190.922669008316 113.98627787316218,190.12103442836087 112.92109777010046,189.1690921644331 111.16123499139212,188.06684159947326 110.46655231551267,187.3654085122398 110.32761578052305,187.26520372770028 110.00343053159304,187.26520372770028 109.81818181835115,187.16499892866705 109.0771869639866,186.1629501452553 108.15094339614734,185.31120754394215 107.13207547180355,184.81018199713435 106.57632933091372,184.70997684448957 105.51114922808483,184.15884824673412 105.27958833612502,183.95843773911474 104.90909090917557,183.4073085457785 104.44596912502311,183.05658974073594 103.89022298459895,182.40525434783194 102.77873070328496,181.65371275192592 100.8336192111019,179.79990667599486 99.35162950260565,178.64753824612126 97.59176672366448,177.64547718968242 95.18353344779462,175.69145397649845" stroke="#4dd2ff" stroke-linecap="round" stroke-linejoin="round" stroke-width="0.5"><title>2022-10-08 3.0km</title></polyline><polyline fill="none" points="145.7300380228553,163.09649113356136 145.0730038024485,162.60779899719637 144.04638783284463,162.0302532457863 142.19847908755764,160.4753196873935 137.06539923953824,157.09887902904302 133.94448669208214,154.65539070399245 133.0410646388773,153.90012871689396 133.0,153.76684709370602 133.24638783279806,153.90012871689396 134.3551330799237,154.74424499459565 136.4494296577759,156.56575512955897 139.20076045626774,158.65382110280916 141.7467680608388,160.69745329295984 143.84106463892385,162.0302532457863 144.70342205325142,162.4300926697906 145.7300380228553,163.18534420768265 146.71558935381472,164.07387424435 148.80988593166694,165.8065041329828 150.16501901159063,167.05044053768506 152.8342205323279,169.00519267463824 153.90190114080906,169.89371432474582 154.9695817490574,170.64895672060084 155.7908745247405,171.3597722481354 157.39239543722942,172.42599400313338 158.4600760457106,173.27008491830202 159.85627376451157,174.64728340459988 160.4311787073966,175.04711464711 161.21140684420243,175.9356275909813 162.7718631180469,177.26839460653719 163.26463878317736,177.44609665771713 164.00380228133872,177.4905221624067 164.61977186310105,177.7126496382407 165.0304182509426,178.11247889319202 166.09809885919094,179.00098742038244 167.2068441065494,180.20047190139303 167.82281368831173,180.55587426247075 168.39771863119677,180.91127641877392 169.05475285160355,181.53322969947476 169.54752851719968,181.84420610457892 170.08136882120743,182.5105835873983 173.53079847921617,184.9983864944661 175.29657794674858,186.37555878824787 176.0768060835544,187.17520580551354 177.96577946771868,188.4635238192277 178.82813688204624,188.86334610375343 179.73155893548392,189.7074145200313 180.0190114066936,190.06281140237115 180.3885931558907,190.68475545372348 182.35969581757672,192.8615546937799 183.59163498110138,194.41640658996766 184.16653992398642,195.34931584610604 185.27528517111205,197.65937078819843 186.1376425854396,199.7917215168709 186.42509505688213,200.81347029522294 186.75361216743477,202.36830214509973 186.83574144472368,203.523317553394 187.0,204.41178947268054 186.71254752832465,205.16698959789937 186.6714828896802,205.74449495208682 186.6714828896802,206.1887294719345 186.71254752832465,206.23315290629398 186.83574144472368,206.0110357023077 186.87680608360097,205.7000714823953 186.83574144472368,204.94487200991716 186.91787072247826,204.2340951912338 186.91787072247826,203.21235207933933 186.79467680607922,202.10175982053624 186.5072243346367,200.50250345485983 185.93231939175166,198.6366991205723 185.152091254713,196.90416147059295 184.2076045628637,195.21604318160098 183.59163498110138,194.28313372388948 182.27756653982215,192.63943267433206 181.16882129269652,191.39554788701935 180.0190114066936,190.28493434982374 179.4030418251641,189.48529136471916 178.04790874524042,188.3302496667602 177.10342205315828,187.79715276882052 175.05019011418335,186.28670905559557 173.85931558930315,185.22051126597216 173.61292775673792,184.8206866197288" stroke="#4dd2ff" stroke-linecap="round" stroke-linejoin="round" stroke-width="0.5"><title>2022-10-04 3.0km</title></polyline><polyline fill="none" points="31.372283009812236,238.02074518811423 32.33762197359465,237.5856106490828 42.192123897140846,243.9820568114519 54.138193576131016,253.90294136706507 56.631985899526626,257.2098666836973 59.125778223155066,266.47786356083816 60.13133964408189,267.0 63.46980356099084,266.43435217050137 63.912250586086884,265.69465805619257 63.71113830199465,262.6923608837533 62.6251319674775,262.03968561138026 61.096678607864305,257.55796303250827 61.86090528778732,256.64420968905324 63.46980356099084,256.470161276462 62.86646670848131,251.94488495058613 60.292229471262544,247.9417276387685 56.712430813582614,246.15770333557157 57.27554520894773,244.9393422473804 55.18397745373659,242.89423061115667 58.80399856856093,238.06425862468313 59.00511085265316,235.5839877325925 47.86349031049758,227.01174499781337 45.65125518478453,224.61845753586385 43.23790777497925,223.40005300345365 29.642717366106808,213.0 29.28071525460109,214.2619406642625 26.54558819020167,213.65272825903958 25.540026769042015,214.34897095779888 24.81602254626341,217.56908299896168 25.338914485182613,218.65695480874274 22.60378742055036,218.9180437514442 16.77153118001297,226.6201167893014 16.087749413913116,229.01339632004965 19.34576841723174,236.236691586324 20.230662467656657,234.8007421772345 22.241785309044644,234.9747968328884 25.821583966957405,234.0610093313153 31.613617750816047,237.9772317483439 32.09628723259084,239.02155343827326 31.29183809598908,239.45668694295455 32.13650968950242,238.8910133257741" stroke="#4dd2ff" stroke-linecap="round" stroke-linejoin="round" stroke-width="0.5"><title>2022-05-14 4.4km</title></polyline><polyline fill="none" points="81.72375646157889,221.6943481694325 80.79963037749985,219.55203197247465 80.93164838949451,218.6236892024608 83.4894973722985,215.28519703811617 84.46313021093374,215.28519703811617 84.31460994738154,214.8031650417979 85.13972252246458,213.0714127264655 86.03084410366137,213.44632920264849 86.36088913370622,213.33921026730968 86.26187562465202,213.0178531835263 86.45990264270222,213.0 92.97829198592808,217.69534295471385 96.82331658585463,221.01595004404953 98.85309352056356,222.39059694607568 100.78385694633471,224.72926441520394 101.67497852741508,226.47878748214862 101.92251229996327,227.8176998548879 101.82349879096728,229.9063887148659 101.39444025186822,230.37053940475744 100.70134568883805,230.63831825356465 101.04789297038224,235.2619207600219 100.10726463474566,241.1528723872907 100.33829615579452,242.0097264184442 100.84986595239025,242.29534377079108 101.42744475492509,244.0625938228477 99.7277128502028,248.97155566122092 99.79372185620014,251.0779167653527 98.6220619995729,252.07753950427286 98.53955074207624,252.41669630382967 99.31515656260308,253.4698644621094 96.92233009485062,256.07599017076427 96.36125354381511,257.16484280156146 93.67138654895825,260.4670715506072 100.91587495832937,266.9286028046772 101.06439522182336,267.0 107.8138160861563,259.3425337236986 108.770946673234,259.4674826228875 109.46404123632237,258.71778828365495 109.00197819422465,258.2536906524765 109.00197819422465,257.557542577546 110.9327416199958,254.5230281483091 112.61597127321875,255.2191847400827 112.56646451872075,255.05853339235182 113.60610636335332,255.34413571642654 112.8470027942094,255.68328804909834 113.98565814789617,254.9335822721623 114.11767615989083,255.04068323614774 114.03516490233596,254.4873277575971 113.87014238740085,255.2191847400827 113.35857259080512,255.54048712344957 113.32556808780646,255.36198585075908 113.87014238740085,255.36198585075908 112.83050054276828,255.46908662978967 113.8536401358433,255.39768611555337 113.82063563284464,255.57618736255972 113.17704782425426,255.54048712344957 113.39157709380379,255.46908662978967 113.11103881825693,255.57618736255972 113.34207033930579,255.48693675511458 113.32556808780646,255.7189882676903 113.07803431531647,255.89748928345216 112.02189021912636,254.8264812618727 111.34529790753732,254.68367984288489 111.11426638654666,254.8443314334727 112.10440147662302,253.18425997978193 112.83050054276828,251.18501939441194 114.76126396848122,243.17004486577935 115.50386528600939,241.45634186196548 115.85041256755358,241.25997930315498 116.27947110671084,241.75981096523174 117.50063771777786,242.2417905422917 118.65579532290576,242.11683296410774 119.20036962255836,242.6523649985611 119.10135611344595,243.20574688576744 118.3752570473589,243.97333907167194 117.43462871178053,246.70451990677975 117.38512195722433,247.8291150368168 117.73166923882673,249.63202674635977 117.3686197057832,251.30997240313445 113.9526536448393,257.78959215292707 110.7347146020038,262.6982823058206 109.4805434878217,263.5193628123816 108.50691064924467,263.5015132650151 107.6652958226623,263.0374245836283 107.10421927162679,262.30559066809656 105.91605716344202,259.39608325964946 97.763944921433,251.93473650253145 97.20286837039748,250.3103465703898 97.36789088544901,246.72237066294474 97.03784585546236,245.90123454850982 96.24573778331978,245.45496378064854 95.43712745973608,245.3478586768324 94.84304640558548,245.8476820987562 94.5955126330955,246.72237066294474" stroke="#4dd2ff" stroke-linecap="round" stroke-linejoin="round" stroke-width="0.5"><title>2021-12-11 11.3km</title></polyline></svg>