<?xml version="1.0" encoding="utf-8" ?>
<svg baseProfile="full" height="300mm" version="1.1" viewBox="0,0,200,300" width="200mm" xmlns="http://www.w3.org/2000/svg" xmlns:ev="http://www.w3.org/2001/xml-events" xmlns:xlink="http://www.w3.org/1999/xlink"><defs /><rect fill="#222222" height="300" width="200" x="0" y="0" /><text fill="#FFFFFF" style="font-size:12px; font-family:Arial; font-weight:bold;" x="10" y="20">Over 3km Runs</text><text fill="#FFFFFF" style="font-size:4px; font-family:Arial" x="10" y="280">ATHLETE</text><text fill="#FFFFFF" style="font-size:9px; font-family:Arial" x="10" y="290">hanyang</text><text fill="#FFFFFF" style="font-size:4px; font-family:Arial" x="120" y="280">STATISTICS</text><text fill="#FFFFFF" style="font-size:3px; font-family:Arial" x="120" y="285">Number: 6</text><text fill="#FFFFFF" style="font-size:3px; font-family:Arial" x="120" y="290">Weekly: 1.5</text><text fill="#FFFFFF" style="font-size:3px; font-family:Arial" x="141" y="285">Total: 29.8 km</text><text fill="#FFFFFF" style="font-size:3px; font-family:Arial" x="141" y="290">Avg: 5.0 km</text><text fill="#FFFFFF" style="font-size:3px; font-family:Arial" x="167" y="285">Min: 3.0 km</text><text fill="#FFFFFF" style="font-size:3px; font-family:Arial" x="167" y="290">Max: 11.3 km</text><polyline fill="none" points="21.20849080127664,39.753262892889325 19.97303424985148,38.99778626818443 17.394690142478794,36.84757969318889 15.24607005319558,34.7554813066381 14.65519952843897,34.05811397189973 15.998087084386498,35.10416474804515 17.179828133434057,36.266441796848085 18.683862196281552,37.370603441784624 21.63821481913328,39.86949000315508 26.633756527211517,43.41440881922608 28.78237661672756,45.041579451586585 29.42696264339611,45.4483715967508 31.414436226245016,46.3781814436079 32.38131526648067,47.48232924460899 34.04649583576247,48.644588454742916 36.195115925278515,50.446086920564994 37.75286549027078,51.4921164411935 38.88089103717357,52.4800319650094 42.640976193826646,55.15320908022113 44.950742790009826,57.18714225455187 46.777069865958765,58.349387480004225 48.81825895095244,60.383312594669405 49.731422489043325,61.080657167651225 51.28917205380276,62.59156834083842 52.52462860522792,63.579470270022284 53.813800659030676,64.33492386998842 55.37155022402294,64.85792979394319 56.06985175283626,65.14848849416012 56.6070067754481,65.61338219663594 57.19787729997188,66.48505716671934 58.2721873447299,67.58917744318023 61.22653996781446,69.7974134622491 61.92484149662778,70.55286123882979 63.48259106162004,71.540753417823 64.7180476130452,72.81920032401104 67.08152971137315,74.44631163787562 68.63927927613258,75.66664296935778 70.68046836135909,77.00319421448512 73.84968299325556,79.50195799325593 74.92399303801358,80.08306473953417 75.51486356253736,80.54794983525062 76.48174260277301,82.11693505523726 80.13439675490372,86.2427705154987 81.47728431085125,87.9860749320942 82.92760287132114,90.36858487594873 84.59278344060294,94.32004927133676 84.86136095179245,95.59846007917076 85.18365396512672,97.86472880578367 85.39851597417146,100.30531877680914 85.39851597417146,101.35128364741104 85.23736946750432,102.39724716189085 85.23736946750432,103.67564517154824 84.80764544964768,106.0 84.91507645417005,105.70945601252606 84.86136095179245,104.66349679179257 85.12993846298195,101.99048373400001 85.07622296083719,98.85258754057577 84.70021444512531,95.54035054094857 84.05562841822393,93.21596557972953 82.92760287132114,90.48480469320202 82.12187033775263,88.79961570398882 81.63843081751838,87.9860749320942 80.99384479084983,87.2887536175549 79.86581924371421,85.71977845602669 77.77091465657577,83.22103393636644 77.3949061408639,82.81426084006671 76.96518212300725,82.46559802308911 76.42802710062824,81.88449299300555 75.56857906491496,80.60606045339955 70.46560635231435,76.65452888573054 69.3375808056444,75.95719777629711 68.42441726755351,75.31797706295038 67.56496923137456,74.56253374897642 64.9866251242347,72.52864438685356 63.267729052575305,71.01775182673009 59.07791987829842,67.76351208548294 56.98301529092714,66.07827563112369 56.5532912730705,65.43904708954506 55.74755873950198,64.56737098918529 54.8881107037887,64.04436487675412 54.13609367236495,63.695693946734536 52.25605109403841,62.359120652196 50.42972401808947,60.848209043673705 49.57027598237619,60.32520051964093 47.04564737714827,58.23316303291358 43.822717242874205,56.14112011983525 41.512950646923855,54.22340934933163 36.57112444099039,50.67853804229526 34.79851286718622,49.05137878272217 33.40190980909392,48.00534609652823 31.79044474195689,46.668746800976805 30.877281204098836,45.68082415894605 30.125264172675088,45.215918967325706 28.621230110060424,44.63478710112395 26.956049540778622,43.00761564815184 25.23715346911922,41.84534831449855 24.16284342459403,41.380440912093036 23.142248881747946,40.68307930591982 20.886197787942365,38.93967265239917 19.758172241039574,38.00985422934173 17.824414160335436,36.61512458487414 14.762630532961339,34.05811397189973 14.601484026061371,34.0 15.031208043918014,34.5230255954084 15.998087084386498,35.16227864025859 18.14670717390254,37.138148484169506 23.786834908649325,41.43855435191654" stroke="#4dd2ff" stroke-linecap="round" stroke-linejoin="round" stroke-width="0.5"><title>2022-10-12 5.0km</title></polyline><polyline fill="none" points="121.16962025291286,47.05943441513227 117.88860759488307,44.43005596625153 116.4303797467146,43.44403709413018 115.57974683539942,42.72095591027755 114.0,41.66920043824939 116.1873417722527,43.5097717185854 121.89873417722993,47.84824647183996 126.21265822765417,50.93775379325962 129.4936708859168,53.50137958483538 130.2835443036165,54.027250651677605 131.25569620239548,54.421653752739076 132.22784810094163,55.07899187580915 133.68607594934292,56.590867761173286 137.02784810122102,59.08874416950857 138.48607594915666,60.40341321629239 150.45569620234892,69.4088452521828 151.97468354413286,70.72349942766596 156.34936708840542,74.20732383179711 158.41518987319432,75.5219710933161 160.60253164521419,76.57368753867922 161.63544303760864,78.08552780479658 162.48607594915666,78.74284887837712 163.21518987300806,79.46590151247801 166.31392405019142,81.70078784920042 167.52911392366514,83.01542431378039 169.23037974652834,84.13286381942453 170.56708860746585,85.38176517706597 177.1291139239911,89.982965954463 180.77468354417942,92.87513742485316 181.6860759491101,93.46671682363376 182.77974683512002,94.5841435304028 184.05569620244205,96.35887725226348 186.0,98.3307995616924 184.72405063267797,97.08191592729418 183.326582278125,94.97852910024812 182.71898734150454,94.18975779018365 181.1999999997206,93.26952373317908 178.40506329084747,90.96893453103257 176.33924050582573,89.39138429710874 175.54936708835885,88.9312649652129 174.33417721488513,87.81383133580675 172.9974683544133,86.95932234305656 170.02025316446088,84.7244488861179 167.2253164553549,82.16091082728235 163.5797468351666,79.59736556606367 162.3037974680774,78.28272417664994 161.51392405037768,77.75686709058937 160.23797468328848,76.37649079755647 157.38227848079987,74.93038006010465 154.89113924023695,73.02413967676694 154.344303797232,72.43254702410195 151.0025316455867,69.60604349919595 149.1797468350269,68.42285337724024 147.29620253131725,66.91099709947594 145.77721518976614,65.9250025251531 144.56202531629242,65.0704730321304" stroke="#4dd2ff" stroke-linecap="round" stroke-linejoin="round" stroke-width="0.5"><title>2022-10-09 3.0km</title></polyline><polyline fill="none" points="22.459691252093762,128.08848890149966 20.11320754745975,126.28473942540586 15.605488850735128,123.14487085462315 14.0,121.94236518145772 15.481989708496258,122.94445335067576 24.373927959008142,130.0926508702105 26.720411663874984,131.7627825346426 28.20240137237124,132.2972240318777 30.30188679252751,134.1677668459597 32.710120068630204,135.57067147974158 34.4391080616042,137.3075980854337 36.723842195700854,138.97771675291006 37.77358490577899,140.18020033062203 38.576329331379384,140.84824608883355 39.81132075493224,141.64990036340896 49.073756432393566,148.73114968591835 50.926243567839265,150.00042450916953 51.91423670691438,150.53485549392644 53.70497427135706,152.07134285912616 57.59519725595601,155.14430995169096 59.32418524893001,156.34677256352734 60.991423670900986,156.94800328463316 61.54716981132515,157.28202018345473 62.04116638121195,157.74964363971958 62.34991423692554,158.6180865757633 62.658662092871964,158.88529962318717 65.86963979457505,161.42381973337615 68.03087478573434,162.8266831288347 68.89536878233775,163.6951213098364 70.31560891959816,164.69716435461305 72.47684391099028,166.63444450381212 74.02058319072239,167.6364843721385 75.99656946840696,169.4401534066419 79.45454545482062,172.17905152856838 80.25728988018818,172.98067871684907 82.17152658686973,174.24992034799652 83.097770154709,174.5839310148731 83.59176672413014,174.85113946173806 84.45626072050072,175.78636841924163 85.13550600386225,177.0556062104879 85.69125214428641,177.7904272955493 85.87650085776113,178.05763481854228 86.0,178.05763481854228 84.95025728992186,176.1871805411065 83.46826758189127,174.71753524790984 82.91252144123428,174.51712889102055 78.34305317350663,170.97660944674863 76.24356775335036,169.50695589598035 74.57632933114655,168.23770777339814 71.30360205867328,165.5656007839134 70.31560891959816,164.56355867779348 68.64837049762718,163.49471257120604 67.22813036036678,162.22545621928293 64.88164665549994,160.7557887993171 63.95540308766067,159.820544682967 63.77015437418595,159.68693830358097 63.33790737576783,159.68693830358097 63.09090909129009,159.5533319049282 62.10291595198214,158.2172668603016 60.867924528429285,157.08161005860893 59.50943396240473,156.41357599617913 58.768439108273014,156.2799691259861 57.34819897101261,155.5451309956261 57.039451115066186,155.27791698550573 56.545454545877874,154.5430780610186 55.9279588337522,154.07545298768673 55.18696397962049,153.20700579707045 53.70497427135706,152.20495033590123 51.11149228177965,149.73320890130708 49.135506003629416,148.1967176615144 46.789022298529744,146.8606362529099 43.57804459705949,144.2552719686646" stroke="#4dd2ff" stroke-linecap="round" stroke-linejoin="round" stroke-width="0.5"><title>2022-10-08 3.0km</title></polyline><polyline fill="none" points="130.9733840301633,127.46198817808181 130.09733840287663,126.81039866287028 128.72851711022668,126.0403376610484 126.26463878317736,123.96709291654406 119.4205323192291,119.46517203870462 115.25931558921002,116.20718760526506 114.05475285183638,115.20017162244767 114.0,115.02246279158862 114.32851711031981,115.20017162244767 115.8068441064097,116.32565999275539 118.59923954354599,118.75434017274529 122.26768060820177,121.53842813707888 125.6623574141413,124.26327105722157 128.45475285174325,126.0403376610484 129.60456273751333,126.57345689303475 130.9733840301633,127.58045894355746 132.28745247144252,128.76516565907514 135.0798479085788,131.07533884397708 136.88669201545417,132.73392071691342 140.44562737620436,135.34025689953705 141.8692015206907,136.52495243295562 143.29277566540986,137.53194229409564 144.38783269934356,138.47969633084722 146.52319391607307,139.90132533747237 147.94676806079224,141.02677989104996 149.80836501903832,142.8630445394083 150.57490494288504,143.39615286281332 151.6152091252152,144.58083678793628 153.69581749057397,146.3578594753635 154.35285171098076,146.59479554358404 155.33840304147452,146.6540295498562 156.15969581739046,146.95019951759605 156.70722433459014,147.4833051909227 158.13079847884364,148.6679832271766 159.60912547516637,150.26729586848523 160.4304182510823,150.74116568325553 161.1969581746962,151.2150352249737 162.07300380198285,152.04430626594694 162.73003802262247,152.45894147269428 163.44182509486564,153.3474447831395 168.04106463864446,156.664515325916 170.39543726225384,158.50074505095836 171.43574144458398,159.56694107397925 173.95437262346968,161.28469842561753 175.10418250923976,161.81779480498517 176.30874524707906,162.94321936002234 176.6920152087696,163.4170818697894 177.1847908741329,164.24634060490644 179.81292775645852,167.14873959170654 181.45551330782473,169.2218754532514 182.22205323167145,170.4657544614165 183.70038022799417,173.5458277175203 184.85019011376426,176.38896202249452 185.23346007568762,177.75129372696392 185.6714828896802,179.82440286013298 185.7809885928873,181.36442340450594 186.0,182.5490526302019 185.61673003761098,183.5559861304937 185.56197718600743,184.3259932693909 185.56197718600743,184.91830596252112 185.61673003761098,184.97753720835317 185.7809885928873,184.68138093641028 185.83574144472368,184.26676197646884 185.7809885928873,183.25982934655622 185.89049429632723,182.31212692160625 185.89049429632723,180.94980277243303 185.72623574128374,179.46901309402892 185.34296577936038,177.33667127316585 184.57642585528083,174.84893216070486 183.53612167271785,172.5388819607906 182.27680608350784,170.28805757540977 181.45551330782473,169.0441782984999 179.70342205301858,166.8525768990512 178.22509505669586,165.19406384933973 176.6920152087696,163.713245799765 175.87072243331932,162.64705515292007 174.0638783266768,161.10699955560267 172.80456273723394,160.3962036917219 170.06692015193403,158.38227874075528 168.4790874524042,156.96068168792408 168.1505703420844,156.4275821595802" stroke="#4dd2ff" stroke-linecap="round" stroke-linejoin="round" stroke-width="0.5"><title>2022-10-04 3.0km</title></polyline><polyline fill="none" points="38.496377346105874,227.3609935841523 39.78349596471526,226.78081419877708 52.92283186293207,235.3094090819941 68.85092476801947,248.53725515608676 72.17598119936883,252.94648891163524 75.50103763095103,265.30381808115635 76.84178619203158,266.0 81.29307141457684,265.2458028940018 81.88300078152679,264.2595440749428 81.61485106917098,260.2564811783377 80.16684262314811,259.38624748185975 78.12890481040813,253.4106173767359 79.14787371712737,252.19227958546253 81.29307141457684,251.9602150353603 80.48862227797508,245.92651326750638 77.05630596145056,240.58897018508287 72.28324108454399,238.21027111419244 73.03406027844176,236.5857896632515 70.24530327157117,233.8589741482865 75.07199809141457,227.41901149967453 75.34014780353755,224.11198364349548 60.48465374717489,212.68232666380936 57.53500691289082,209.49127671454335 54.31721036648378,207.8667373379576 36.190289821475744,194.0 35.70762033946812,195.68258755240822 32.060784253524616,194.8703043454443 30.72003569197841,195.79862794373184 29.754696728428826,200.09211066528223 30.451885980088264,201.5426064116764 26.805049893911928,201.8907250019256 19.028708240017295,212.16015571908792 18.11699921847321,215.35119509341894 22.461024556308985,224.98225544847082 23.640883289976045,223.06765623629326 26.322380411904305,223.29972911055665 31.09544528927654,222.08134577510646 38.81815700116567,227.30297566449735 39.46171631012112,228.69540458440315 38.38911746116355,229.27558259066427 39.51534625259228,228.52135110105155" stroke="#4dd2ff" stroke-linecap="round" stroke-linejoin="round" stroke-width="0.5"><title>2022-05-14 4.4km</title></polyline><polyline fill="none" points="125.63167528214399,205.59246422591968 124.399507169961,202.7360426299565 124.57553118595388,201.49825226992834 127.985996496398,197.0469293841452 129.28417361457832,197.0469293841452 129.08614659646992,196.40422005573055 130.18629669665825,194.09521696862066 131.37445880484302,194.59510560354101 131.81451884494163,194.4522803564032 131.68250083283056,194.02380424470175 131.9465368569363,194.0 140.6377226478653,200.2604572729324 145.76442211447284,204.68793339206604 148.47079136082903,206.5207959281106 151.04514259507414,209.63901922028163 152.2333047032589,211.97171664287453 152.56334973336197,213.75693313984084 152.4313317212509,216.5418516198406 151.85925366915762,217.16071920635295 150.9351275850786,217.51775767141953 151.39719062717631,223.68256101338193 150.14301951299421,231.53716318306397 150.45106154098175,232.67963522460195 151.133154603187,233.06045836105477 151.90325967327226,235.41679176379694 149.63695046689827,241.96207421497093 149.7249624748947,244.77055568713695 148.16274933272507,246.10338600570685 148.05273432284594,246.5555950717826 149.0868754168041,247.95981928281253 145.8964401264675,251.43465356100933 145.14833805838134,252.88645706875832 141.56184873194434,257.28942873416236 151.22116661106702,265.9048037395696 151.41919362917542,266.0 160.4184214482084,255.79004496493144 161.6945955642732,255.956643497193 162.61872164846864,254.95705104488297 162.00263759237714,254.3382542032923 162.00263759237714,253.4100567700516 164.57698882662226,249.3640375310788 166.82129503099713,250.29224632011028 166.7552860248834,250.07804452313576 168.14147515106015,250.45884762192145 167.12933705898467,250.91105073213112 168.6475441971561,249.91144302953035 168.82356821314897,250.05424431487336 168.71355320315342,249.31643701012945 168.49352318316232,250.29224632011028 167.8114301210735,250.72064949793275 167.76742411707528,250.4826478010218 168.49352318316232,250.4826478010218 167.10733405698556,250.62544883973897 168.4715201810468,250.53024815407116 168.427514177165,250.768249816756 167.56939709896687,250.72064949793275 167.85543612507172,250.62544883973897 167.48138509097043,250.768249816756 167.7894271190744,250.64924900681945 167.76742411707528,250.95865102356765 167.43737908708863,251.1966523779265 166.02918695879634,249.76864168251632 165.12706387671642,249.57823979051318 164.81902184872888,249.79244191129692 166.1392019687919,247.5790133063856 167.10733405698556,244.91335919254925 169.6816852913471,234.2267264877155 170.67182038142346,231.9417891492776 171.13388342340477,231.67997240420664 171.70596147561446,232.34641462031868 173.334183623665,232.98905405637925 174.87439376383554,232.82244395214366 175.600492830039,233.53648666475783 175.46847481792793,234.27432918103295 174.50034272985067,235.29778542890563 173.24617161566857,238.93935987571604 173.18016260967124,240.43882004907937 173.64222565176897,242.8427023284603 173.15815960767213,245.07996320418897 168.60353819315787,253.71945620389306 164.31295280263294,260.2643764077511 162.64072465046775,261.3591504165088 161.34254753228743,261.3353510200395 160.2203944302164,260.7165661115141 159.47229236213025,259.7407875574718 157.8880762179615,255.86144434619928 147.01859322853852,245.91298200338497 146.27049116056878,243.74712876052945 146.4905211806763,238.96316088392632 146.05046114057768,237.86831273135613 144.99431704438757,237.27328504086472 143.91616994631477,237.13047823577654 143.12406187411398,237.79690946501796 142.79401684412733,238.96316088392632" stroke="#4dd2ff" stroke-linecap="round" stroke-linejoin="round" stroke-width="0.5"><title>2021-12-11 11.3km</title></polyline></svg>