<?xml version="1.0" encoding="utf-8" ?>
<svg baseProfile="full" height="300mm" version="1.1" viewBox="0,0,200,300" width="200mm" xmlns="http://www.w3.org/2000/svg" xmlns:ev="http://www.w3.org/2001/xml-events" xmlns:xlink="http://www.w3.org/1999/xlink"><defs /><rect fill="#222222" height="300" width="200" x="0" y="0" /><text fill="#FFFFFF" style="font-size:12px; font-family:Arial; font-weight:bold;" x="10" y="20">Over 3km Runs</text><text fill="#FFFFFF" style="font-size:4px; font-family:Arial" x="10" y="280">ATHLETE</text><text fill="#FFFFFF" style="font-size:9px; font-family:Arial" x="10" y="290">hanyang</text><text fill="#FFFFFF" style="font-size:4px; font-family:Arial" x="120" y="280">STATISTICS</text><text fill="#FFFFFF" style="font-size:3px; font-family:Arial" x="120" y="285">Number: 4</text><text fill="#FFFFFF" style="font-size:3px; font-family:Arial" x="120" y="290">Weekly: 1.3</text><text fill="#FFFFFF" style="font-size:3px; font-family:Arial" x="141" y="285">Total: 21.8 km</text><text fill="#FFFFFF" style="font-size:3px; font-family:Arial" x="141" y="290">Avg: 5.4 km</text><text fill="#FFFFFF" style="font-size:3px; font-family:Arial" x="167" y="285">Min: 3.0 km</text><text fill="#FFFFFF" style="font-size:3px; font-family:Arial" x="167" y="290">Max: 11.3 km</text><polyline fill="none" points="24.01715265843086,50.349550014245324 21.377358490601182,48.3203318536398 16.306174956960604,44.787979711429216 14.5,43.43516082916176 16.16723842197098,44.562510019517504 26.170668953564018,52.604232229001354 28.810463121626526,54.48313035146566 30.477701543830335,55.08437703590607 32.83962264168076,57.18873770174105 35.54888507700525,58.767005414702 37.49399656918831,60.72104784613475 40.06432246998884,62.59993134706747 41.24528301903047,63.952725371927954 42.148370497627184,64.70427684992319 43.53773584915325,65.60613790887874 53.95797598618083,73.5725433966727 56.04202401358634,75.00047757278662 57.15351629513316,75.6017124307109 59.16809605504386,77.3302607164951 63.54459691280499,80.78734869562322 65.48970840498805,82.14011913398281 67.3653516296763,82.81650369527051 67.99056603759527,83.19227270642295 68.54631217871793,83.71834909473546 68.89365351642482,84.69534739776282 69.24099485436454,84.99596207606373 72.85334476875141,87.8517972000991 75.28473413386382,89.4300185199827 76.25728987995535,90.40701147355139 77.85506003443152,91.53430989891058 80.28644939954393,93.71375006675953 82.02315608924255,94.841044918634 84.24614065187052,96.87017258245032 88.13636363646947,99.95143296965398 89.03945111506619,100.85326355649158 91.19296740996651,102.28116039151791 92.23499142378569,102.65692239173222 92.79073756444268,102.95753189444076 93.76329331053421,104.00966447166866 94.5274442541413,105.43755698681343 95.15265866206028,106.2642307074857 95.36106346501037,106.56483917083824 95.5,106.56483917083824 94.3190394511912,104.46057810873026 92.65180102945305,102.80722715391312 92.02658662106842,102.58177000237629 86.88593482016586,98.59868562757038 84.52401372231543,96.94532538304338 82.64837049739435,95.51742124510929 78.9665523157455,92.51130088191712 77.85506003443152,91.38400351256132 75.97941680974327,90.18155164259952 74.3816466552671,88.75363824667875 71.7418524872046,87.100262399239 70.69982847338542,86.04811276838882 70.49142367090099,85.89780559157953 70.00514579750597,85.89780559157953 69.72727272752672,85.74749839305878 68.61578044597991,84.24442521785386 67.22641509422101,82.96681131597143 65.69811320770532,82.21527299570153 64.86449399660341,82.06496526679257 63.26672384212725,81.23827237007208 62.919382504420355,80.93765660870122 62.36363636376336,80.11096281866776 61.66895368765108,79.58488461113302 60.83533447701484,78.60788152174791 59.16809605504386,77.48056912788888 56.25042881676927,74.6998600140214 54.02744425390847,72.97130736918189 51.38765008561313,71.46821578452364 47.775300171691924,68.53718096477678" stroke="#4dd2ff" stroke-linecap="round" stroke-linejoin="round" stroke-width="0.5"><title>2022-10-08 3.0km</title></polyline><polyline fill="none" points="123.59505703416653,49.644736700400244 122.60950570343994,48.91169849579455 121.06958174938336,48.04537986870855 118.29771863133647,45.71297953114845 110.59809885919094,40.64831854356453 105.9167300381232,36.98308605601778 104.56159695843235,35.850193075311836 104.5,35.65027064061724 104.8695817491971,35.850193075311836 106.53269961988553,37.11636749189347 109.67414448666386,39.848632694396656 113.80114068440162,42.98073165427195 117.62015209114179,46.04617993941065 120.76159695838578,48.04537986870855 122.05513307987712,48.645139004744124 123.59505703416653,49.77801631158218 125.07338403048925,51.11081136652501 128.2148288975004,53.70975619950332 130.24752851738594,55.5756608065567 134.25133079849184,58.50778901198646 135.85285171098076,59.84057148708962 137.4543726237025,60.973435080901254 138.68631178699434,62.03965837229043 141.08859315584414,63.63899100472918 142.69011406879872,64.90512737748213 144.78441064665094,66.97092510689981 145.6467680609785,67.5706719707232 146.8171102660708,68.90344138647197 149.15779467695393,70.90259190980578 149.89695817488246,71.1691449866048 151.00570342200808,71.23578324361006 151.929657794768,71.56897445739014 152.54562737653032,72.16871833981713 154.1471482887864,73.50148113060277 155.81026615970768,75.30070785211865 156.7342205324676,75.83381139370613 157.59657794679515,76.36691462813178 158.58212927752174,77.29984454921214 159.3212927756831,77.76630915683927 160.12205323181115,78.76587538106833 165.29619771870784,82.49757974169916 167.9448669203557,84.56333818240091 169.11520912544802,85.76280870824121 171.9486692014616,87.69528572884155 173.24220532318577,88.29501915565925 174.59733840310946,89.56112178007606 175.0285171100404,90.09421710355673 175.58288973360322,91.02713318058522 178.53954372624867,94.29233204072807 180.38745247153565,96.62460988492239 181.24980988586321,98.02397376915906 182.91292775655165,101.48905618226854 184.20646387827583,104.68758227536455 184.6376425854396,106.22020544286352 185.13041825103574,108.5524532176787 185.25361216720194,110.28497633012012 185.5,111.61768420902081 185.0688212926034,112.75048439681996 185.0072243346367,113.61674242810113 185.0072243346367,114.28309420793084 185.0688212926034,114.34972935944097 185.25361216720194,114.01655355351977 185.31520912563428,113.55010722356383 185.25361216720194,112.41730801493395 185.37680608360097,111.35114278685069 185.37680608360097,109.81852811900899 185.19201520900242,108.15263973083347 184.76083650183864,105.75375518231886 183.89847908751108,102.95504868088756 182.7281368819531,100.35624220594764 181.31140684429556,97.82406477240147 180.38745247153565,96.42470058589242 178.41634980984963,93.95914901152719 176.7532319391612,92.09332183055812 175.0285171100404,90.42740152479382 174.10456273774616,89.22793704707874 172.0718631176278,87.49537450011121 170.65513307973742,86.695729153289 167.5752851711586,84.43006358342245 165.78897338407114,82.83076689898735 165.41939163487405,82.2310299295932" stroke="#4dd2ff" stroke-linecap="round" stroke-linejoin="round" stroke-width="0.5"><title>2022-10-04 3.0km</title></polyline><polyline fill="none" points="42.05842451425269,222.03111778217135 43.50643296027556,221.37841597362421 58.28818584559485,230.97308521723608 76.2072903639637,245.8544120506267 79.94797884905711,250.8148000256042 83.68866733461618,264.71679534134455 85.19700946589,265.5 90.2047053410206,264.65152825578116 90.86837587901391,263.54198708431795 90.56670745275915,259.038541325659 88.93769795098342,258.0595284170704 86.64501791144721,251.3369445488206 87.79135793144815,249.96631453360897 90.2047053410206,249.70524191478034 89.29970006248914,242.9173274259665 85.43834420642816,236.91259145818185 80.06864622002468,234.23655500344466 80.91331781307235,232.40901337115793 77.77596618048847,229.34134591679322 83.20599785260856,222.0963879370829 83.50766627886333,218.37598159897607 66.79523546528071,205.51761749677826 63.47688277694397,201.927686303854 59.85686166211963,200.10007950518047 39.46407604892738,184.5 38.921072881668806,186.39291099645197 34.818382284836844,185.47909238858847 33.31004015333019,186.52345643669832 32.2240338192787,191.35362449847162 33.00837172754109,192.9854322131141 28.905681130476296,193.3770656271954 20.157296769786626,204.9301751839812 19.13162412075326,208.52009448013268 24.018652625614777,219.35503737948602 25.34599370113574,217.20111326588085 28.36267796321772,217.46219524933258 33.73237595031969,216.09151399700204 42.42042662599124,221.96584762260318 43.144430848769844,223.5323301574681 41.93775714375079,224.18503041449003 43.204764534020796,223.33651998866117" stroke="#4dd2ff" stroke-linecap="round" stroke-linejoin="round" stroke-width="0.5"><title>2022-05-14 4.4km</title></polyline><polyline fill="none" points="117.58563469245564,197.54152225414873 116.19944556627888,194.32804795869743 116.39747258427087,192.93553380368394 120.23424605850596,187.9277955571597 121.69469531648792,187.9277955571597 121.47191492107231,187.20474756270414 122.70958378375508,184.60711908969097 124.04626615555026,185.16949380398728 124.54133370053023,185.0088154009718 124.39281343703624,184.52677977530402 124.68985396414064,184.5 134.46743797895033,191.54301443207078 140.23497487884015,196.52392506608157 143.27964028099086,198.5858954191208 146.17578541953117,202.09389662279864 147.51246779120993,204.7181812232302 147.88376845000312,206.72654978232458 147.73524818650912,209.85958307230612 147.09166037791874,210.55580910714343 146.05201853334438,210.95747738034697 146.57183945563156,217.89288114002557 145.1608969521476,226.7293085809506 145.50744423375,228.01458962768083 146.27479892864358,228.44301565617207 147.14116713241674,231.09389073424973 144.59156927536242,238.4573334918241 144.6905827843584,241.61687514802907 142.93309299938846,243.1163092564093 142.80932611320168,243.62504445575178 143.97273484396283,245.20479669317137 140.38349514233414,249.1139852561464 139.54188031575177,250.74726420233492 135.5070798235247,255.70060732591082 146.37381243752316,265.392904206994 146.59659283282235,265.5 156.72072412923444,254.01380058555515 158.1564200099092,254.2012239343312 159.19606185459998,253.07668242548243 158.50296729139518,252.38053597870748 158.50296729139518,251.33631386631168 161.3991124300519,246.7845422224491 163.92395690991543,247.8287771101168 163.84969677811023,247.58780008854228 165.4091595450882,248.01620357463253 164.27050419140141,248.52493207363295 165.97848722187337,247.40037340822164 166.17651423986536,247.5610248542216 166.05274735356215,246.7309916364029 165.80521358107217,247.8287771101168 165.037858886295,248.3107306851598 164.988352131797,248.04297877612407 165.80521358107217,248.04297877612407 164.24575081421062,248.20362994467723 165.78046020376496,248.0965291733155 165.73095344938338,248.36428104384686 164.7655717364978,248.3107306851598 165.087365640793,248.20362994467723 164.6665582275018,248.36428104384686 165.0131055089878,248.2304051326646 164.988352131797,248.57848240152816 164.6170514730038,248.84623392517096 163.03283532871865,247.23972189280903 162.01794686133508,247.02551976434188 161.6713995798491,247.26649715020903 163.15660221490543,244.77638996965834 164.24575081421062,241.77752909160336 167.14189595275093,229.75506729865447 168.2557979291305,227.18451279294095 168.77561885141768,226.8899689547252 169.41920666012447,227.63971644785488 171.2509565766668,228.36268581345212 172.98369298444595,228.17524944615434 173.80055443383753,228.9785474978562 173.65203417022713,229.8086203286366 172.56288557115477,230.96000860750792 171.1519430676708,235.05677986016963 171.0776829358656,236.7436725552252 171.5975038582692,239.44804011951783 171.0529295586748,241.96495860468713 165.92898046737537,251.6843882293906 161.10207190306392,259.04742345871637 159.22081523179077,260.2790442185651 157.76036597392522,260.25226989752264 156.49794373405166,259.55613687544246 155.6563289074693,258.45838600213756 153.87408574519213,254.0941248894669 141.6459173822077,242.90210475379718 140.80430255562533,240.46551985558472 141.05183632823173,235.08355599440983 140.55676878325175,233.85185182275018 139.36860667495057,233.1824456709728 138.15569118969142,233.02178801523405 137.26456960837822,233.77152314814157 136.89326894970145,235.08355599440983" stroke="#4dd2ff" stroke-linecap="round" stroke-linejoin="round" stroke-width="0.5"><title>2021-12-11 11.3km</title></polyline></svg>