<?xml version="1.0" encoding="utf-8" ?>
<svg baseProfile="full" height="300mm" version="1.1" viewBox="0,0,200,300" width="200mm" xmlns="http://www.w3.org/2000/svg" xmlns:ev="http://www.w3.org/2001/xml-events" xmlns:xlink="http://www.w3.org/1999/xlink"><defs /><rect fill="#222222" height="300" width="200" x="0" y="0" /><text fill="#FFFFFF" style="font-size:12px; font-family:Arial; font-weight:bold;" x="10" y="20">Over 3km Runs</text><text fill="#FFFFFF" style="font-size:4px; font-family:Arial" x="10" y="280">ATHLETE</text><text fill="#FFFFFF" style="font-size:9px; font-family:Arial" x="10" y="290">hanyang</text><text fill="#FFFFFF" style="font-size:4px; font-family:Arial" x="120" y="280">STATISTICS</text><text fill="#FFFFFF" style="font-size:3px; font-family:Arial" x="120" y="285">Number: 7</text><text fill="#FFFFFF" style="font-size:3px; font-family:Arial" x="120" y="290">Weekly: 1.8</text><text fill="#FFFFFF" style="font-size:3px; font-family:Arial" x="141" y="285">Total: 33.7 km</text><text fill="#FFFFFF" style="font-size:3px; font-family:Arial" x="141" y="290">Avg: 4.8 km</text><text fill="#FFFFFF" style="font-size:3px; font-family:Arial" x="167" y="285">Min: 3.0 km</text><text fill="#FFFFFF" style="font-size:3px; font-family:Arial" x="167" y="290">Max: 11.3 km</text><polyline fill="none" points="18.16212334530428,36.64159612392541 17.05381005606614,36.108680962002836 15.576059004524723,35.1760783198406 13.113140584668145,33.0 13.728870189748704,33.266458982543554 15.904448127141222,34.68757161067333 18.24422062584199,36.46395778772421 20.460847203619778,37.70742506510578 22.431181939318776,39.261755633866414 23.949981631478295,40.32758004392963 24.729905797867104,40.72726372256875 25.263538121944293,41.082537885871716 25.674024525331333,41.43781184445834 26.536045972257853,42.503632491396274 27.80855382233858,43.39181495597586 28.62952662911266,44.05795096443035 29.61469399696216,44.76849524665158 31.379785530967638,46.27839912637137 32.3239042586647,46.811305494979024 33.268022986128926,47.477437807712704 34.417384915286675,48.45443056419026 35.156260441523045,49.253787122201174 36.346671010833234,49.96432541456306 37.82442206284031,50.98572277481435 38.80958943068981,51.96270997042302 40.12314592092298,52.984104019298684 40.61572960508056,53.47259622695856 41.47775105200708,54.09431302227313 42.01138337608427,54.582804350124206 42.87340482301079,55.11570353899151 44.556399076478556,55.781826877209824 45.007934120250866,56.225908702705055 45.172128681559116,56.66999020834919 45.541566444560885,57.15847949491581 46.444636531639844,57.957824765413534 48.3739226271864,59.33447252359474 48.74336039018817,59.77855178969912 50.22111144196242,60.755525049287826 51.78095977450721,62.17657429899555 54.44912139582448,63.997288862767164 55.06485100090504,64.66340260358993 55.680580605519935,65.1518855561153 57.240428938297555,66.12885029974859 59.45705551607534,67.81633121037157 60.15488240146078,68.61566266097361 60.3601256031543,69.0153279977967 60.85270928707905,69.59262191544985 62.74094674224034,71.76857105444651 64.09555187309161,73.5892572896555 65.20386516209692,75.45434493100038 65.6554002056364,76.52010676427744 66.27112981071696,78.74043799983338 66.4353243720252,79.45094230648829 66.3942757314071,80.20585223514354 66.72266485425644,82.3373576325248 66.76371349440888,83.35870135744335 66.68161621387117,85.09054119844222 66.55847029271536,86.06747434724821 66.35322709125467,86.91118809382897 66.3942757314071,87.0 66.47637301217765,86.9555940485443 66.59951893310063,86.20069238397991 66.76371349440888,85.71222610858968 66.80476213479415,85.00172901712358 66.88685941556469,83.40310756798135 66.84581077517942,82.514982749708 66.76371349440888,82.07091986079467 66.47637301217765,79.095690255519 65.94274068786763,77.1862069744966 65.4091083635576,75.80959908012301 64.95757332001813,74.87705650209682 64.05450323270634,73.27840880083386 62.6588494614698,71.50212871539406 61.63263345323503,70.30313676450169 60.6885147257708,69.32617863605265 59.53915279661305,67.8607385403593 58.67713134968653,67.4166650963598 57.158331657759845,65.86240552313393 56.665747973602265,65.41833063971717 55.762677886523306,64.79662526544416 54.20282955397852,63.553212635801174 53.17661354551092,62.931505380547605 51.41152201150544,61.554865655256435 50.63159784511663,60.755525049287826 49.93377095949836,60.355854357476346 49.3590899950359,59.77855178969912 48.3739226271864,59.15684072748991 46.896171575412154,57.957824765413534 46.403587891487405,57.646968394576106 45.993101488100365,57.24729568726616 45.623663725098595,57.114071394025814 45.172128681559116,56.625582072127145 44.761642278404906,56.003867829917 44.474301795940846,55.73741867695935 43.11969666508958,55.07129529083613 42.13452929724008,54.44957948097726 41.43670241162181,53.73904635885265 41.10831328900531,53.16173759417143 40.32838912284933,52.762061978690326 39.34322175499983,52.09593537717592 38.60434622876346,51.56303357757861 37.53708158037625,50.586045748437755 37.33183837868273,50.54163717397023 37.29078973853029,50.674862887884956 37.24974109814502,51.34099102515029 36.67506013344973,51.38539954199223 36.387719651218504,51.518625073484145 35.484649563906714,52.22916075511603 35.033114520367235,52.451202987576835 34.047947152284905,52.89528721268289 33.309071626281366,52.62883671594318 32.9806825038977,52.67324514017673" stroke="#4dd2ff" stroke-linecap="round" stroke-linejoin="round" stroke-width="0.5"><title>2022-10-15 3.9km</title></polyline><polyline fill="none" points="138.40636810078286,37.314947169681545 137.479775687214,36.74833970121108 135.54601760674268,35.13568476989167 133.93455253960565,33.56661098002223 133.49139964627102,33.04358547896845 134.49856531294063,33.828123561048415 135.3848710998427,34.69983134767972 136.51289664697833,35.52795258135302 138.72866111411713,37.40211750235176 142.4753173950594,40.06080661440501 144.08678246219642,41.281184588733595 144.57022198219784,41.586278697592206 146.06082716933452,42.28363608272048 146.78598644956946,43.11174693348585 148.03487187670544,43.98344134108629 149.64633694384247,45.33456519048195 150.81464911741205,46.11908733093878 151.66066827764735,46.86002397380071 154.48073214502074,48.86490681016585 156.21305709215812,50.390356690913904 157.58280239929445,51.26204061001772 159.11369421286508,52.787484446016606 159.79856686666608,53.31049287575297 160.96687904023565,54.44367625564337 161.89347145380452,55.18460270256037 162.86035049404018,55.75119290250586 164.02866266760975,56.14344734547194 164.55238881427795,56.36136637063464 164.95525508141145,56.71003664750606 165.39840797474608,57.36379287508316 166.2041405083146,58.191883082385175 168.41990497568622,59.84806009673048 168.94363112235442,60.41464592918055 170.111943295924,61.1555650633527 171.03853570949286,62.11440024303738 172.81114728329703,63.33473372843582 173.9794594568666,64.24998222704744 175.51035127067007,65.25239566084929 177.88726224470884,67.12646849494195 178.69299477827735,67.56229855469428 179.13614767161198,67.91096237645252 179.86130695184693,69.08770129142795 182.60079756588675,72.18207788665313 183.60796323302202,73.4895561991143 184.69570215325803,75.27643865696155 185.94458758016117,78.24003695353167 186.1460207134951,79.19884505943628 186.38774047372863,80.89854660438141 186.54888698039576,82.72898908262141 186.54888698039576,83.51346273557283 186.4280271003954,84.29793537140358 186.4280271003954,85.25673387869028 186.10573408706114,87.0 186.1863073403947,86.7820920094382 186.1460207134951,85.99762259388808 186.34745384706184,83.99286280054366 186.30716722039506,81.63944065547548 186.02516083372757,79.15526290575508 185.54172131349333,77.41197418479715 184.69570215325803,75.36360351991607 184.09140275302343,74.09971177804982 183.72882311278954,73.4895561991143 183.24538359278813,72.96656521316618 182.39936443255283,71.78983384202002 180.82818599208258,69.91577545233304 180.5461796054151,69.61069563007914 180.22388659208082,69.34919851733139 179.82102032518014,68.91336974478327 179.1764342985116,67.95454534009332 175.34920476400293,64.99089666432701 174.50318560400046,64.46789833222283 173.8183129504323,63.988482797227334 173.1737269232981,63.42190031171776 171.23996884282678,61.896483290183824 169.95079678925686,60.76331387006212 166.8084399085492,58.32263406412676 165.2372614678461,57.05870672338642 164.91496845451184,56.579285317217 164.31066905451007,55.92552824190352 163.6660830276087,55.53327365760924 163.10207025404088,55.271770460065454 161.69203832023777,54.2693404891761 160.32229301333427,53.136156782798935 159.67770698666573,52.7439003897598 157.78423553262837,51.174872274685185 155.36703793192282,49.60584008990554 153.63471298478544,48.16755701205693 149.92834333050996,45.5089035317651 148.59888465004042,44.28853408707073 147.55143235670403,43.50400957243983 146.34283355623484,42.50156010076171 145.65796090266667,41.76061811920954 145.0939481293317,41.41193922550883 143.96592258219607,40.97609032585751 142.71703715529293,39.75571173615754 141.42786510149017,38.88401123590302 140.62213256815448,38.53533068409888 139.85668666101992,38.01230947946897 138.16464834054932,36.70475448935758 137.31862918054685,36.00739067204995 135.86831062007695,34.961343438655604 133.57197289937176,33.04358547896845 133.4511130193714,33.0 133.77340603270568,33.39226919657085 134.49856531294063,33.87170898017939 136.11003038007766,35.35361136315623 140.34012618125416,38.57891576399561" stroke="#4dd2ff" stroke-linecap="round" stroke-linejoin="round" stroke-width="0.5"><title>2022-10-12 5.0km</title></polyline><polyline fill="none" points="18.37721518985927,102.79457581136376 15.916455696104094,100.82254197471775 14.822784810094163,100.08302782062674 14.18481012666598,99.54071693273727 13.0,98.7519003287307 14.640506329014897,100.1323287889827 18.924050632864237,103.38618485390907 22.159493670798838,105.70331534498837 24.620253164554015,107.62603468867019 25.212658227887005,108.02043798880186 25.941772151971236,108.31624031456886 26.670886075822636,108.80924390687142 27.7645569620654,109.94315082090907 30.27088607591577,111.81655812717509 31.3645569619257,112.80255991226295 40.341772151878104,119.55663393915165 41.48101265798323,120.54262457077857 44.762025316245854,123.1554928739206 46.311392404837534,124.14147832000162 47.95189873385243,124.93026565405307 48.72658227826469,126.06414585368475 49.3645569619257,126.55713665881194 49.911392404930666,127.09942613437306 52.23544303770177,128.77559088694397 53.14683544286527,129.76156823540805 54.422784809954464,130.59964786458295 55.42531645554118,131.53632388281403 60.3468354428187,134.98722446593456 63.08101265807636,137.15635306871263 63.76455696183257,137.60003761772532 64.58481012634002,138.43810764781665 65.54177215183154,139.76915793924127 67.0,141.2480996712693 66.04303797450848,140.3114369455143 64.99493670859374,138.73389682522975 64.53924050601199,138.14231834269594 63.39999999990687,137.45214279991342 61.30379746807739,135.7267008983181 59.75443037948571,134.54353822290432 59.16202531638555,134.19844872393878 58.250632911222056,133.36037350189872 57.24810126586817,132.71949175733607 55.015189873287454,131.04333666461753 52.91898734169081,129.12068312050542 50.18481012643315,127.19802417460596 49.22784810117446,126.21204313251656 48.63544303784147,125.81765031797113 47.67848101258278,124.78236809821101 45.53670886065811,123.6977850451367 43.66835443023592,122.26810475764796 43.2582278479822,121.82441026810557 40.75189873413183,119.70453262445517 39.38481012638658,118.81714003300294 37.972151898546144,117.68324782466516 36.83291139220819,116.94375189393759 35.92151898727752,116.30285477417056" stroke="#4dd2ff" stroke-linecap="round" stroke-linejoin="round" stroke-width="0.5"><title>2022-10-09 3.0km</title></polyline><polyline fill="none" points="139.3447684389539,103.56636667612474 137.5849056604784,102.2135545690544 134.20411663781852,99.85865314095281 133.0,98.95677388610784 134.11149228131399,99.70834001299227 140.78044596896507,105.06948815268697 142.5403087476734,106.32208690099651 143.65180102922022,106.72291802393738 145.22641509445384,108.12582513445523 147.03259005141445,109.17800360976253 148.32933104620315,110.48069856408983 150.04288164665923,111.73328756471165 150.83018867927603,112.63515024795197 151.43224699841812,113.13618456659606 152.35849056602456,113.73742527258582 159.30531732412055,119.04836226440966 160.69468267564662,120.00031838187715 161.43567753001116,120.40114162041573 162.77873070328496,121.55350714433007 165.69639794179238,123.85823246376822 166.9931389365811,124.76007942267461 168.24356775311753,125.21100246347487 168.66037735831924,125.4615151375765 169.03087478573434,125.81223272980424 169.26243567769416,126.46356493182248 169.49399656942114,126.66397471737582 171.90222984575666,128.56786480004666 173.52315608924255,129.62001234659692 174.1715265866369,130.2713409823482 175.2367066894658,131.0228732659598 176.85763293295167,132.4758333778591 178.01543739275075,133.22736327908933 179.497427101247,134.58011505496688 182.09090909082443,136.6342886464554 182.6929674099665,137.23550903762225 184.12864493997768,138.18744026101194 184.82332761585712,138.43794826115482 185.19382504280657,138.63835459627444 185.84219554020092,139.33977631444577 186.35162950260565,140.29170465789502 186.76843910804018,140.84282047161832 186.90737564326264,141.04322611389216 187.0,141.04322611389216 186.2126929673832,139.64038540580077 185.10120068630204,138.53815143590327 184.68439108063467,138.38784666825086 181.25728987995535,135.73245708504692 179.68267581495456,134.6302169219707 178.4322469981853,133.67828083003405 175.97770154383034,131.67420058796415 175.2367066894658,130.922669008316 173.98627787316218,130.12103442836087 172.92109777010046,129.1690921644331 171.16123499139212,128.06684159947326 170.46655231551267,127.36540851223981 170.32761578052305,127.26520372770028 170.00343053159304,127.26520372770028 169.81818181835115,127.16499892866705 169.0771869639866,126.16295014525531 168.15094339614734,125.31120754394215 167.13207547180355,124.81018199713435 166.57632933091372,124.70997684448957 165.51114922808483,124.15884824673412 165.27958833612502,123.95843773911474 164.90909090917557,123.4073085457785 164.4459691250231,123.05658974073594 163.89022298459895,122.40525434783194 162.77873070328496,121.65371275192592 160.8336192111019,119.79990667599486 159.35162950260565,118.64753824612126 157.59176672366448,117.64547718968242 155.18353344779462,115.69145397649845" stroke="#4dd2ff" stroke-linecap="round" stroke-linejoin="round" stroke-width="0.5"><title>2022-10-08 3.0km</title></polyline><polyline fill="none" points="25.730038022855297,163.09649113356136 25.07300380244851,162.60779899719637 24.04638783284463,162.0302532457863 22.198479087557644,160.4753196873935 17.065399239538237,157.09887902904302 13.944486692082137,154.65539070399245 13.041064638877288,153.90012871689396 13.0,153.76684709370602 13.246387832798064,153.90012871689396 14.35513307992369,154.74424499459565 16.44942965777591,156.56575512955897 19.200760456267744,158.65382110280916 21.746768060838804,160.69745329295984 23.841064638923854,162.0302532457863 24.703422053251415,162.4300926697906 25.730038022855297,163.18534420768265 26.71558935381472,164.07387424435 28.80988593166694,165.8065041329828 30.16501901159063,167.05044053768506 32.83422053232789,169.00519267463824 33.90190114080906,169.89371432474582 34.9695817490574,170.64895672060084 35.7908745247405,171.3597722481354 37.392395437229425,172.42599400313338 38.46007604571059,173.27008491830202 39.85627376451157,174.64728340459988 40.43117870739661,175.04711464711 41.21140684420243,175.9356275909813 42.771863118046895,177.26839460653719 43.26463878317736,177.44609665771713 44.00380228133872,177.4905221624067 44.61977186310105,177.7126496382407 45.0304182509426,178.11247889319202 46.09809885919094,179.00098742038244 47.2068441065494,180.20047190139303 47.822813688311726,180.55587426247075 48.39771863119677,180.91127641877392 49.05475285160355,181.53322969947476 49.54752851719968,181.84420610457892 50.081368821207434,182.5105835873983 53.53079847921617,184.9983864944661 55.296577946748585,186.37555878824787 56.0768060835544,187.17520580551354 57.965779467718676,188.4635238192277 58.82813688204624,188.86334610375343 59.73155893548392,189.7074145200313 60.01901140669361,190.06281140237115 60.3885931558907,190.68475545372348 62.35969581757672,192.8615546937799 63.59163498110138,194.41640658996766 64.16653992398642,195.34931584610604 65.27528517111205,197.65937078819843 66.13764258543961,199.7917215168709 66.42509505688213,200.81347029522294 66.75361216743477,202.36830214509973 66.83574144472368,203.523317553394 67.0,204.41178947268054 66.71254752832465,205.16698959789937 66.67148288968019,205.74449495208682 66.67148288968019,206.1887294719345 66.71254752832465,206.23315290629398 66.83574144472368,206.0110357023077 66.87680608360097,205.7000714823953 66.83574144472368,204.94487200991716 66.91787072247826,204.2340951912338 66.91787072247826,203.21235207933933 66.79467680607922,202.10175982053624 66.5072243346367,200.50250345485983 65.93231939175166,198.6366991205723 65.15209125471301,196.90416147059295 64.20760456286371,195.21604318160098 63.59163498110138,194.28313372388948 62.277566539822146,192.63943267433206 61.16882129269652,191.39554788701935 60.01901140669361,190.28493434982374 59.40304182516411,189.48529136471916 58.04790874524042,188.3302496667602 57.10342205315828,187.79715276882052 55.05019011418335,186.28670905559557 53.85931558930315,185.22051126597216 53.61292775673792,184.8206866197288" stroke="#4dd2ff" stroke-linecap="round" stroke-linejoin="round" stroke-width="0.5"><title>2022-10-04 3.0km</title></polyline><polyline fill="none" points="151.37228300981224,178.02074518811423 152.33762197359465,177.5856106490828 162.19212389714085,183.9820568114519 174.13819357613102,193.90294136706507 176.63198589952663,197.20986668369733 179.12577822315507,206.47786356083816 180.1313396440819,207.0 183.46980356099084,206.43435217050137 183.91225058608688,205.69465805619257 183.71113830199465,202.69236088375328 182.6251319674775,202.03968561138026 181.0966786078643,197.55796303250827 181.86090528778732,196.64420968905324 183.46980356099084,196.47016127646202 182.8664667084813,191.94488495058613 180.29222947126254,187.9417276387685 176.7124308135826,186.15770333557157 177.27554520894773,184.9393422473804 175.1839774537366,182.89423061115667 178.80399856856093,178.06425862468313 179.00511085265316,175.5839877325925 167.86349031049758,167.01174499781337 165.65125518478453,164.61845753586385 163.23790777497925,163.40005300345365 149.6427173661068,153.0 149.2807152546011,154.2619406642625 146.54558819020167,153.65272825903958 145.54002676904202,154.34897095779888 144.8160225462634,157.56908299896168 145.3389144851826,158.65695480874274 142.60378742055036,158.9180437514442 136.77153118001297,166.6201167893014 136.08774941391312,169.01339632004965 139.34576841723174,176.236691586324 140.23066246765666,174.8007421772345 142.24178530904464,174.9747968328884 145.8215839669574,174.0610093313153 151.61361775081605,177.9772317483439 152.09628723259084,179.02155343827326 151.29183809598908,179.45668694295455 152.13650968950242,178.8910133257741" stroke="#4dd2ff" stroke-linecap="round" stroke-linejoin="round" stroke-width="0.5"><title>2022-05-14 4.4km</title></polyline><polyline fill="none" points="21.723756461578887,221.6943481694325 20.799630377499852,219.55203197247465 20.931648389494512,218.6236892024608 23.4894973722985,215.28519703811617 24.46313021093374,215.28519703811617 24.31460994738154,214.8031650417979 25.13972252246458,213.0714127264655 26.030844103661366,213.44632920264849 26.360889133706223,213.33921026730968 26.26187562465202,213.0178531835263 26.459902642702218,213.0 32.97829198592808,217.69534295471385 36.82331658585463,221.01595004404953 38.85309352056356,222.39059694607568 40.78385694633471,224.72926441520394 41.67497852741508,226.47878748214862 41.92251229996327,227.8176998548879 41.82349879096728,229.9063887148659 41.39444025186822,230.37053940475744 40.701345688838046,230.63831825356465 41.047892970382236,235.2619207600219 40.10726463474566,241.1528723872907 40.338296155794524,242.0097264184442 40.849865952390246,242.29534377079108 41.42744475492509,244.0625938228477 39.727712850202806,248.97155566122092 39.793721856200136,251.0779167653527 38.62206199957291,252.07753950427286 38.539550742076244,252.41669630382967 39.31515656260308,253.4698644621094 36.92233009485062,256.07599017076427 36.36125354381511,257.16484280156146 33.67138654895825,260.4670715506072 40.91587495832937,266.9286028046772 41.06439522182336,267.0 47.813816086156294,259.3425337236986 48.77094667323399,259.4674826228875 49.46404123632237,258.71778828365495 49.00197819422465,258.2536906524765 49.00197819422465,257.557542577546 50.932741619995795,254.5230281483091 52.61597127321875,255.2191847400827 52.56646451872075,255.05853339235182 53.60610636335332,255.34413571642654 52.8470027942094,255.68328804909834 53.985658147896174,254.9335822721623 54.117676159890834,255.04068323614774 54.035164902335964,254.4873277575971 53.87014238740085,255.2191847400827 53.358572590805124,255.54048712344957 53.32556808780646,255.36198585075908 53.87014238740085,255.36198585075908 52.83050054276828,255.46908662978967 53.85364013584331,255.39768611555337 53.82063563284464,255.57618736255972 53.17704782425426,255.54048712344957 53.39157709380379,255.46908662978967 53.11103881825693,255.57618736255972 53.34207033930579,255.48693675511458 53.32556808780646,255.7189882676903 53.07803431531647,255.89748928345216 52.02189021912636,254.8264812618727 51.345297907537315,254.68367984288489 51.11426638654666,254.8443314334727 52.104401476623025,253.18425997978193 52.83050054276828,251.18501939441194 54.76126396848122,243.17004486577935 55.503865286009386,241.45634186196548 55.850412567553576,241.25997930315498 56.279471106710844,241.75981096523174 57.50063771777786,242.2417905422917 58.65579532290576,242.11683296410774 59.200369622558355,242.6523649985611 59.101356113445945,243.20574688576744 58.3752570473589,243.97333907167194 57.43462871178053,246.70451990677975 57.38512195722433,247.8291150368168 57.731669238826726,249.63202674635977 57.3686197057832,251.30997240313445 53.9526536448393,257.78959215292707 50.734714602003805,262.6982823058206 49.480543487821706,263.5193628123816 48.50691064924467,263.5015132650151 47.6652958226623,263.0374245836283 47.10421927162679,262.30559066809656 45.91605716344202,259.39608325964946 37.763944921432994,251.93473650253145 37.20286837039748,250.3103465703898 37.367890885449015,246.72237066294474 37.037845855462365,245.90123454850982 36.24573778331978,245.45496378064854 35.437127459736075,245.3478586768324 34.84304640558548,245.8476820987562 34.595512633095495,246.72237066294474" stroke="#4dd2ff" stroke-linecap="round" stroke-linejoin="round" stroke-width="0.5"><title>2021-12-11 11.3km</title></polyline></svg>