<?xml version="1.0" encoding="utf-8" ?>
<svg baseProfile="full" height="300mm" version="1.1" viewBox="0,0,200,300" width="200mm" xmlns="http://www.w3.org/2000/svg" xmlns:ev="http://www.w3.org/2001/xml-events" xmlns:xlink="http://www.w3.org/1999/xlink"><defs /><rect fill="#222222" height="300" width="200" x="0" y="0" /><text fill="#FFFFFF" style="font-size:12px; font-family:Arial; font-weight:bold;" x="10" y="20">Over 3km Runs</text><text fill="#FFFFFF" style="font-size:4px; font-family:Arial" x="10" y="280">ATHLETE</text><text fill="#FFFFFF" style="font-size:9px; font-family:Arial" x="10" y="290">hanyang</text><text fill="#FFFFFF" style="font-size:4px; font-family:Arial" x="120" y="280">STATISTICS</text><text fill="#FFFFFF" style="font-size:3px; font-family:Arial" x="120" y="285">Number: 9</text><text fill="#FFFFFF" style="font-size:3px; font-family:Arial" x="120" y="290">Weekly: 1.5</text><text fill="#FFFFFF" style="font-size:3px; font-family:Arial" x="141" y="285">Total: 43.8 km</text><text fill="#FFFFFF" style="font-size:3px; font-family:Arial" x="141" y="290">Avg: 4.9 km</text><text fill="#FFFFFF" style="font-size:3px; font-family:Arial" x="167" y="285">Min: 3.0 km</text><text fill="#FFFFFF" style="font-size:3px; font-family:Arial" x="167" y="290">Max: 11.3 km</text><polyline fill="none" points="18.50090189743787,36.938573975348845 17.044707105727866,36.019575665763114 15.831211446318775,35.188099806488026 15.062664195196703,34.57543265540153 13.404220127034932,33.04376207344467 15.103114050580189,34.31286082993029 16.114360433537513,35.23186172218993 18.298652620753273,37.02609755139565 21.777340178377926,39.345467719307635 24.20433149742894,41.22721436584834 24.97287874855101,41.57730612199521 25.458277012454346,41.92739767633611 25.86277556559071,42.23372762079816 26.145924552809447,42.62758017942542 27.44031992298551,43.809136323223356 30.999907191377133,46.391047304379754 36.137038816930726,50.50457771966467 37.35053447657265,51.29227185511263 39.17077796603553,52.91141770320246 40.30337391491048,53.74286929925438 42.002267838222906,55.14320625690743 42.77081508934498,55.62457134050783 43.418012774549425,55.84337352513103 44.26745973620564,56.32473805377958 44.914657421410084,57.024903960118536 47.30119888507761,59.16915702744154 47.786597148980945,59.47547827626113 48.919193097855896,60.394441096053924 49.889989625662565,61.05084225907922 51.58888354920782,62.58244221424684 53.44957689382136,64.02651863498613 55.55296937050298,65.47059162298683 57.73726155771874,67.17721891013207 58.74850794067606,67.78985317709157 59.2339062045794,68.22744870377937 60.44740186422132,69.89030883059604 62.18674564291723,71.94699795427732 63.44069115770981,73.60984789999202 64.12833869829774,75.01013906096341 64.89688594941981,76.80425739416387 65.38228421332315,78.51085284317378 65.98903204291128,79.99865009245696 66.39353059628047,82.49289024830796 66.43398045143113,83.41181825095555 66.39353059628047,84.46201998065226 66.3126308855135,85.33718670211965 66.02948189829476,87.0 66.43398045143113,84.11195293912897 66.59577987296507,82.18658060522284 66.43398045143113,81.70523656840669 66.15083146444522,79.254751923203 65.90813233237714,78.24830000917427 65.4227340684738,77.06681085220771 63.92608942161314,74.48503025382524 63.278891736641526,73.7848844716209 62.18674564291723,72.34083124744939 60.73055085144006,70.72173718712293 59.75975432363339,69.36519559810404 59.15300649381243,68.18368916533655 58.829407651210204,67.78985317709157 58.222659821622074,67.30849773361115 57.57546213641763,66.95842080784496 56.15971720009111,65.82066940603545 54.13722443440929,64.33283743442735 52.27653108956292,63.23884101281874 51.79113282565959,62.80124189250637 50.45628760010004,61.31340252555674 49.40459136175923,60.6132415625616 48.51469454471953,59.69427907373756 48.19109570235014,59.43171810725471 46.734900910640135,58.55651406629477 45.238256263779476,57.19994531053817 44.550608723424375,56.499779606063385 43.45846262970008,55.93089437694289 42.40676639135927,55.318248149589635 40.70787246781401,53.917911595490295 40.343823770061135,53.480305760283954 39.08987825526856,52.73637511685956 38.4831304254476,52.03620426723501 37.87638259562664,51.46731485752389 36.46063765930012,50.50457771966467 34.4381448936183,49.45431728329277 33.50779822119512,48.57909886573907 32.41565212723799,47.878923223761376 31.080806901911274,46.78489716706099 29.745961676351726,45.95343604614027 27.07627122523263,43.63409111351939 25.620076433522627,42.014920533285476 25.175128025235608,41.62106757739093 24.163881642278284,41.13969139527762 22.95038598240353,40.30822254595114 21.979589455062523,39.60803736880189 21.170592348556966,38.82032807957148 20.199795820750296,38.207664592773654 19.228999293176457,37.59500048792688 18.33910247590393,37.15738289174624 13.444669982418418,33.0 18.58180160797201,37.11362111469498 21.57509090169333,39.170421223156154" stroke="#4dd2ff" stroke-linecap="round" stroke-linejoin="round" stroke-width="0.5"><title>2022-10-25 5.0km</title></polyline><polyline fill="none" points="78.67372576659545,37.254194911627565 76.18599481182173,35.43097219965421 73.61801447160542,33.26046177634271 78.07185537437908,36.77668473467929 78.8743492309004,37.42783488210989 82.00407527061179,39.59833029046422 84.33130745426752,41.33472098677885 84.85292846080847,41.63858884410001 85.37454946758226,41.8556372197927 85.85604578140192,42.20291445823386 86.93941248743795,43.33156410057563 88.62464958569035,44.6338495220989 89.38701874925755,45.37181001139106 90.55063484120183,46.32681636174675 93.11861518165097,48.10659688414307 94.92422635830007,49.58250845159637 97.77307954849675,51.62273319455562 98.97682033316232,52.53432074014563 99.5385660326574,53.14204500435153 99.97993765352294,53.532724564836826 101.30405251658522,54.487717979587615 102.14667106582783,55.18225769401761 102.58804268669337,55.4861185674672 102.90904022939503,55.5729359316756 103.31028715753928,55.96361391595565 104.1529057067819,56.224065764807165 104.47390324948356,56.44110888603609 105.23627241281793,57.39609769108938 105.87826749798842,57.83018301118864 106.15914034773596,58.17745104210917 106.80113543267362,58.56812733766856 108.16537498869002,59.65333794069011 109.00799353793263,60.47809669171693 110.97410348593257,61.780345053062774 112.17784427036531,62.82214171567466 115.38781969598494,65.12276963185286 115.8693160098046,65.55684938572813 117.79530126508325,67.07612606190378 119.23979020654224,68.07450579205761 120.28303222008981,69.50696077663451 122.40964093944058,71.8509706792538 123.97450395929627,74.06474943802459 124.65662373718806,75.23674666503211 125.25849412963726,76.66918462509057 126.06098798592575,79.4038294578786 126.22148675704375,80.7494437887799 126.50235960679129,82.39890241849935 126.50235960679129,83.48407010757364 126.46223491407,84.17857640329748 126.301736142952,85.43736702436581 125.98073860025033,87.0 126.14123737136833,84.78626875550253 126.18136206432246,83.09340996458195 126.26161144999787,82.35549567022827 126.18136206432246,80.83625751343789 125.78011513617821,78.75272467080504 125.45911759347655,77.5373271862045 124.8973718942143,75.88785525067942 124.1350027306471,74.3251934631262 123.65350641682744,73.45704627479427 120.00215937034227,69.11629157303832 119.15954082086682,68.03109801211394 116.95268271607347,66.51182374358177 115.26744561758824,65.03595364355715 114.0637048331555,64.5150574510917 113.06058751256205,63.42985560389934 111.45559979975224,62.257835413794965 110.45248247939162,61.3028543140972 109.4894898517523,60.65172996930778 107.64375398191623,59.089028670976404 107.04188358969986,58.69835271325428 106.07889096206054,57.91700003761798 105.23627241281793,57.13564634893555 104.43377855652943,56.26747439522296 103.59116000728682,55.65975328342756 102.86891553667374,55.44270988064818 102.22692045150325,55.052031558647286 100.42130927462131,53.48931573732989 99.25769318290986,52.70795630675275 97.53233139170334,51.18864340230357 95.88721898617223,50.0600084788166 94.60322881583124,49.278644600883126 92.87786702462472,47.97636921930825 90.43026076257229,45.97954150044825 88.62464958569035,44.807487365673296 86.93941248743795,43.33156410057563 85.49492354597896,41.8556372197927 84.49180622538552,41.33472098677885 82.44544689171016,39.77196958538843 81.88370119221509,39.51151062431745 79.23547146632336,37.644884774810635 76.70761581859551,35.51779245393118 75.42362564848736,34.60617916012416 74.05938609247096,33.39069262234261 73.49764039320871,33.0 73.97913670679554,33.34728234342765 75.90512196230702,35.083691057458054 77.95148129598238,36.60304457653547 79.71696777991019,38.07898432575166 81.72320242109708,39.46810078661656" stroke="#4dd2ff" stroke-linecap="round" stroke-linejoin="round" stroke-width="0.5"><title>2022-10-19 5.1km</title></polyline><polyline fill="none" points="138.16212334530428,36.64159612392541 137.05381005606614,36.108680962002836 135.57605900452472,35.1760783198406 133.11314058466814,33.0 133.7288701897487,33.266458982543554 135.90444812714122,34.68757161067333 138.244220625842,36.46395778772421 140.46084720361978,37.70742506510578 142.43118193931878,39.261755633866414 143.9499816314783,40.32758004392963 144.7299057978671,40.72726372256875 145.2635381219443,41.082537885871716 145.67402452533133,41.43781184445834 146.53604597225785,42.503632491396274 147.80855382233858,43.39181495597586 148.62952662911266,44.05795096443035 149.61469399696216,44.76849524665158 151.37978553096764,46.27839912637137 152.3239042586647,46.811305494979024 153.26802298612893,47.477437807712704 154.41738491528668,48.45443056419026 155.15626044152305,49.253787122201174 156.34667101083323,49.96432541456306 157.8244220628403,50.98572277481435 158.8095894306898,51.96270997042302 160.12314592092298,52.984104019298684 160.61572960508056,53.47259622695856 161.47775105200708,54.09431302227313 162.01138337608427,54.582804350124206 162.8734048230108,55.11570353899151 164.55639907647856,55.781826877209824 165.00793412025087,56.225908702705055 165.17212868155912,56.66999020834919 165.54156644456089,57.15847949491581 166.44463653163984,57.957824765413534 168.3739226271864,59.33447252359474 168.74336039018817,59.77855178969912 170.22111144196242,60.755525049287826 171.7809597745072,62.17657429899555 174.44912139582448,63.997288862767164 175.06485100090504,64.66340260358993 175.68058060551994,65.1518855561153 177.24042893829755,66.12885029974859 179.45705551607534,67.81633121037157 180.15488240146078,68.61566266097361 180.3601256031543,69.0153279977967 180.85270928707905,69.59262191544985 182.74094674224034,71.76857105444651 184.0955518730916,73.5892572896555 185.20386516209692,75.45434493100038 185.6554002056364,76.52010676427744 186.27112981071696,78.74043799983338 186.4353243720252,79.45094230648829 186.3942757314071,80.20585223514354 186.72266485425644,82.3373576325248 186.76371349440888,83.35870135744335 186.68161621387117,85.09054119844222 186.55847029271536,86.06747434724821 186.35322709125467,86.91118809382897 186.3942757314071,87.0 186.47637301217765,86.9555940485443 186.59951893310063,86.20069238397991 186.76371349440888,85.71222610858968 186.80476213479415,85.00172901712358 186.8868594155647,83.40310756798135 186.84581077517942,82.514982749708 186.76371349440888,82.07091986079467 186.47637301217765,79.095690255519 185.94274068786763,77.1862069744966 185.4091083635576,75.80959908012301 184.95757332001813,74.87705650209682 184.05450323270634,73.27840880083386 182.6588494614698,71.50212871539406 181.63263345323503,70.30313676450169 180.6885147257708,69.32617863605265 179.53915279661305,67.8607385403593 178.67713134968653,67.4166650963598 177.15833165775985,65.86240552313393 176.66574797360227,65.41833063971717 175.7626778865233,64.79662526544416 174.20282955397852,63.553212635801174 173.17661354551092,62.931505380547605 171.41152201150544,61.554865655256435 170.63159784511663,60.755525049287826 169.93377095949836,60.355854357476346 169.3590899950359,59.77855178969912 168.3739226271864,59.15684072748991 166.89617157541215,57.957824765413534 166.4035878914874,57.646968394576106 165.99310148810036,57.24729568726616 165.6236637250986,57.114071394025814 165.17212868155912,56.625582072127145 164.7616422784049,56.003867829917 164.47430179594085,55.73741867695935 163.11969666508958,55.07129529083613 162.13452929724008,54.44957948097726 161.4367024116218,53.73904635885265 161.1083132890053,53.16173759417143 160.32838912284933,52.762061978690326 159.34322175499983,52.09593537717592 158.60434622876346,51.56303357757861 157.53708158037625,50.586045748437755 157.33183837868273,50.54163717397023 157.2907897385303,50.674862887884956 157.24974109814502,51.34099102515029 156.67506013344973,51.38539954199223 156.3877196512185,51.518625073484145 155.48464956390671,52.22916075511603 155.03311452036723,52.451202987576835 154.0479471522849,52.89528721268289 153.30907162628137,52.62883671594318 152.9806825038977,52.67324514017673" stroke="#4dd2ff" stroke-linecap="round" stroke-linejoin="round" stroke-width="0.5"><title>2022-10-15 3.9km</title></polyline><polyline fill="none" points="18.406368100782856,127.31494716968155 17.479775687213987,126.74833970121108 15.54601760674268,125.13568476989167 13.934552539605647,123.56661098002223 13.49139964627102,123.04358547896845 14.498565312940627,123.82812356104841 15.384871099842712,124.69983134767972 16.512896646978334,125.52795258135302 18.72866111411713,127.40211750235176 22.475317395059392,130.060806614405 24.086782462196425,131.2811845887336 24.570221982197836,131.5862786975922 26.060827169334516,132.28363608272048 26.785986449569464,133.11174693348585 28.034871876705438,133.9834413410863 29.64633694384247,135.33456519048195 30.814649117412046,136.11908733093878 31.660668277647346,136.8600239738007 34.48073214502074,138.86490681016585 36.213057092158124,140.3903566909139 37.58280239929445,141.26204061001772 39.113694212865084,142.7874844460166 39.79856686666608,143.31049287575297 40.96687904023565,144.44367625564337 41.89347145380452,145.18460270256037 42.860350494040176,145.75119290250586 44.02866266760975,146.14344734547194 44.55238881427795,146.36136637063464 44.95525508141145,146.71003664750606 45.39840797474608,147.36379287508316 46.204140508314595,148.19188308238517 48.41990497568622,149.84806009673048 48.94363112235442,150.41464592918055 50.11194329592399,151.1555650633527 51.03853570949286,152.11440024303738 52.81114728329703,153.33473372843582 53.97945945686661,154.24998222704744 55.51035127067007,155.2523956608493 57.887262244708836,157.12646849494195 58.69299477827735,157.56229855469428 59.13614767161198,157.91096237645252 59.86130695184693,159.08770129142795 62.60079756588675,162.18207788665313 63.60796323302202,163.4895561991143 64.69570215325803,165.27643865696155 65.94458758016117,168.24003695353167 66.14602071349509,169.19884505943628 66.38774047372863,170.8985466043814 66.54888698039576,172.7289890826214 66.54888698039576,173.51346273557283 66.42802710039541,174.29793537140358 66.42802710039541,175.25673387869028 66.10573408706114,177.0 66.1863073403947,176.7820920094382 66.14602071349509,175.99762259388808 66.34745384706184,173.99286280054366 66.30716722039506,171.63944065547548 66.02516083372757,169.15526290575508 65.54172131349333,167.41197418479715 64.69570215325803,165.36360351991607 64.09140275302343,164.09971177804982 63.72882311278954,163.4895561991143 63.24538359278813,162.96656521316618 62.39936443255283,161.78983384202002 60.82818599208258,159.91577545233304 60.54617960541509,159.61069563007914 60.22388659208082,159.3491985173314 59.82102032518014,158.91336974478327 59.176434298511595,157.95454534009332 55.349204764002934,154.990896664327 54.503185604000464,154.46789833222283 53.8183129504323,153.98848279722733 53.17372692329809,153.42190031171776 51.239968842826784,151.89648329018382 49.950796789256856,150.76331387006212 46.80843990854919,148.32263406412676 45.23726146784611,147.05870672338642 44.914968454511836,146.579285317217 44.31066905451007,145.92552824190352 43.66608302760869,145.53327365760924 43.10207025404088,145.27177046006545 41.69203832023777,144.2693404891761 40.322293013334274,143.13615678279893 39.677706986665726,142.7439003897598 37.78423553262837,141.17487227468519 35.36703793192282,139.60584008990554 33.63471298478544,138.16755701205693 29.92834333050996,135.5089035317651 28.598884650040418,134.28853408707073 27.551432356704026,133.50400957243983 26.342833556234837,132.5015601007617 25.657960902666673,131.76061811920954 25.093948129331693,131.41193922550883 23.96592258219607,130.9760903258575 22.717037155292928,129.75571173615754 21.42786510149017,128.88401123590302 20.622132568154484,128.53533068409888 19.85668666101992,128.01230947946897 18.16464834054932,126.70475448935758 17.31862918054685,126.00739067204995 15.868310620076954,124.9613434386556 13.571972899371758,123.04358547896845 13.451113019371405,123.0 13.77340603270568,123.39226919657085 14.498565312940627,123.87170898017939 16.11003038007766,125.35361136315623 20.340126181254163,128.5789157639956" stroke="#4dd2ff" stroke-linecap="round" stroke-linejoin="round" stroke-width="0.5"><title>2022-10-12 5.0km</title></polyline><polyline fill="none" points="78.37721518985927,132.79457581136376 75.9164556961041,130.82254197471775 74.82278481009416,130.08302782062674 74.18481012666598,129.54071693273727 73.0,128.7519003287307 74.6405063290149,130.1323287889827 78.92405063286424,133.38618485390907 82.15949367079884,135.70331534498837 84.62025316455401,137.6260346886702 85.212658227887,138.02043798880186 85.94177215197124,138.31624031456886 86.67088607582264,138.80924390687142 87.7645569620654,139.94315082090907 90.27088607591577,141.81655812717509 91.3645569619257,142.80255991226295 100.3417721518781,149.55663393915165 101.48101265798323,150.54262457077857 104.76202531624585,153.1554928739206 106.31139240483753,154.14147832000162 107.95189873385243,154.93026565405307 108.72658227826469,156.06414585368475 109.3645569619257,156.55713665881194 109.91139240493067,157.09942613437306 112.23544303770177,158.77559088694397 113.14683544286527,159.76156823540805 114.42278480995446,160.59964786458295 115.42531645554118,161.53632388281403 120.3468354428187,164.98722446593456 123.08101265807636,167.15635306871263 123.76455696183257,167.60003761772532 124.58481012634002,168.43810764781665 125.54177215183154,169.76915793924127 127.0,171.2480996712693 126.04303797450848,170.3114369455143 124.99493670859374,168.73389682522975 124.53924050601199,168.14231834269594 123.39999999990687,167.45214279991342 121.30379746807739,165.7267008983181 119.75443037948571,164.54353822290432 119.16202531638555,164.19844872393878 118.25063291122206,163.36037350189872 117.24810126586817,162.71949175733607 115.01518987328745,161.04333666461753 112.91898734169081,159.12068312050542 110.18481012643315,157.19802417460596 109.22784810117446,156.21204313251656 108.63544303784147,155.81765031797113 107.67848101258278,154.782368098211 105.53670886065811,153.6977850451367 103.66835443023592,152.26810475764796 103.2582278479822,151.82441026810557 100.75189873413183,149.70453262445517 99.38481012638658,148.81714003300294 97.97215189854614,147.68324782466516 96.83291139220819,146.9437518939376 95.92151898727752,146.30285477417056" stroke="#4dd2ff" stroke-linecap="round" stroke-linejoin="round" stroke-width="0.5"><title>2022-10-09 3.0km</title></polyline><polyline fill="none" points="139.3447684389539,133.56636667612474 137.5849056604784,132.2135545690544 134.20411663781852,129.8586531409528 133.0,128.95677388610784 134.11149228131399,129.70834001299227 140.78044596896507,135.06948815268697 142.5403087476734,136.3220869009965 143.65180102922022,136.72291802393738 145.22641509445384,138.12582513445523 147.03259005141445,139.17800360976253 148.32933104620315,140.48069856408983 150.04288164665923,141.73328756471165 150.83018867927603,142.63515024795197 151.43224699841812,143.13618456659606 152.35849056602456,143.73742527258582 159.30531732412055,149.04836226440966 160.69468267564662,150.00031838187715 161.43567753001116,150.40114162041573 162.77873070328496,151.55350714433007 165.69639794179238,153.85823246376822 166.9931389365811,154.7600794226746 168.24356775311753,155.21100246347487 168.66037735831924,155.4615151375765 169.03087478573434,155.81223272980424 169.26243567769416,156.46356493182248 169.49399656942114,156.66397471737582 171.90222984575666,158.56786480004666 173.52315608924255,159.62001234659692 174.1715265866369,160.2713409823482 175.2367066894658,161.0228732659598 176.85763293295167,162.4758333778591 178.01543739275075,163.22736327908933 179.497427101247,164.58011505496688 182.09090909082443,166.6342886464554 182.6929674099665,167.23550903762225 184.12864493997768,168.18744026101194 184.82332761585712,168.43794826115482 185.19382504280657,168.63835459627444 185.84219554020092,169.33977631444577 186.35162950260565,170.29170465789502 186.76843910804018,170.84282047161832 186.90737564326264,171.04322611389216 187.0,171.04322611389216 186.2126929673832,169.64038540580077 185.10120068630204,168.53815143590327 184.68439108063467,168.38784666825086 181.25728987995535,165.73245708504692 179.68267581495456,164.6302169219707 178.4322469981853,163.67828083003405 175.97770154383034,161.67420058796415 175.2367066894658,160.922669008316 173.98627787316218,160.12103442836087 172.92109777010046,159.1690921644331 171.16123499139212,158.06684159947326 170.46655231551267,157.3654085122398 170.32761578052305,157.26520372770028 170.00343053159304,157.26520372770028 169.81818181835115,157.16499892866705 169.0771869639866,156.1629501452553 168.15094339614734,155.31120754394215 167.13207547180355,154.81018199713435 166.57632933091372,154.70997684448957 165.51114922808483,154.15884824673412 165.27958833612502,153.95843773911474 164.90909090917557,153.4073085457785 164.4459691250231,153.05658974073594 163.89022298459895,152.40525434783194 162.77873070328496,151.65371275192592 160.8336192111019,149.79990667599486 159.35162950260565,148.64753824612126 157.59176672366448,147.64547718968242 155.18353344779462,145.69145397649845" stroke="#4dd2ff" stroke-linecap="round" stroke-linejoin="round" stroke-width="0.5"><title>2022-10-08 3.0km</title></polyline><polyline fill="none" points="25.730038022855297,223.09649113356136 25.07300380244851,222.60779899719637 24.04638783284463,222.0302532457863 22.198479087557644,220.4753196873935 17.065399239538237,217.09887902904302 13.944486692082137,214.65539070399245 13.041064638877288,213.90012871689396 13.0,213.76684709370602 13.246387832798064,213.90012871689396 14.35513307992369,214.74424499459565 16.44942965777591,216.56575512955897 19.200760456267744,218.65382110280916 21.746768060838804,220.69745329295984 23.841064638923854,222.0302532457863 24.703422053251415,222.4300926697906 25.730038022855297,223.18534420768265 26.71558935381472,224.07387424435 28.80988593166694,225.8065041329828 30.16501901159063,227.05044053768506 32.83422053232789,229.00519267463824 33.90190114080906,229.89371432474582 34.9695817490574,230.64895672060084 35.7908745247405,231.3597722481354 37.392395437229425,232.42599400313338 38.46007604571059,233.27008491830202 39.85627376451157,234.64728340459988 40.43117870739661,235.04711464711 41.21140684420243,235.9356275909813 42.771863118046895,237.26839460653719 43.26463878317736,237.44609665771713 44.00380228133872,237.4905221624067 44.61977186310105,237.7126496382407 45.0304182509426,238.11247889319202 46.09809885919094,239.00098742038244 47.2068441065494,240.20047190139303 47.822813688311726,240.55587426247075 48.39771863119677,240.91127641877392 49.05475285160355,241.53322969947476 49.54752851719968,241.84420610457892 50.081368821207434,242.5105835873983 53.53079847921617,244.9983864944661 55.296577946748585,246.37555878824787 56.0768060835544,247.17520580551354 57.965779467718676,248.4635238192277 58.82813688204624,248.86334610375343 59.73155893548392,249.7074145200313 60.01901140669361,250.06281140237115 60.3885931558907,250.68475545372348 62.35969581757672,252.8615546937799 63.59163498110138,254.41640658996766 64.16653992398642,255.34931584610604 65.27528517111205,257.65937078819843 66.13764258543961,259.7917215168709 66.42509505688213,260.81347029522294 66.75361216743477,262.36830214509973 66.83574144472368,263.523317553394 67.0,264.41178947268054 66.71254752832465,265.1669895978994 66.67148288968019,265.7444949520868 66.67148288968019,266.1887294719345 66.71254752832465,266.233152906294 66.83574144472368,266.0110357023077 66.87680608360097,265.7000714823953 66.83574144472368,264.94487200991716 66.91787072247826,264.2340951912338 66.91787072247826,263.2123520793393 66.79467680607922,262.10175982053624 66.5072243346367,260.50250345485983 65.93231939175166,258.6366991205723 65.15209125471301,256.90416147059295 64.20760456286371,255.21604318160098 63.59163498110138,254.28313372388948 62.277566539822146,252.63943267433206 61.16882129269652,251.39554788701935 60.01901140669361,250.28493434982374 59.40304182516411,249.48529136471916 58.04790874524042,248.3302496667602 57.10342205315828,247.79715276882052 55.05019011418335,246.28670905559557 53.85931558930315,245.22051126597216 53.61292775673792,244.8206866197288" stroke="#4dd2ff" stroke-linecap="round" stroke-linejoin="round" stroke-width="0.5"><title>2022-10-04 3.0km</title></polyline><polyline fill="none" points="91.37228300981224,238.02074518811423 92.33762197359465,237.5856106490828 102.19212389714085,243.9820568114519 114.13819357613102,253.90294136706507 116.63198589952663,257.2098666836973 119.12577822315507,266.47786356083816 120.13133964408189,267.0 123.46980356099084,266.43435217050137 123.91225058608688,265.69465805619257 123.71113830199465,262.6923608837533 122.6251319674775,262.03968561138026 121.0966786078643,257.55796303250827 121.86090528778732,256.64420968905324 123.46980356099084,256.470161276462 122.86646670848131,251.94488495058613 120.29222947126254,247.9417276387685 116.71243081358261,246.15770333557157 117.27554520894773,244.9393422473804 115.18397745373659,242.89423061115667 118.80399856856093,238.06425862468313 119.00511085265316,235.5839877325925 107.86349031049758,227.01174499781337 105.65125518478453,224.61845753586385 103.23790777497925,223.40005300345365 89.64271736610681,213.0 89.28071525460109,214.2619406642625 86.54558819020167,213.65272825903958 85.54002676904202,214.34897095779888 84.81602254626341,217.56908299896168 85.33891448518261,218.65695480874274 82.60378742055036,218.9180437514442 76.77153118001297,226.6201167893014 76.08774941391312,229.01339632004965 79.34576841723174,236.236691586324 80.23066246765666,234.8007421772345 82.24178530904464,234.9747968328884 85.8215839669574,234.0610093313153 91.61361775081605,237.9772317483439 92.09628723259084,239.02155343827326 91.29183809598908,239.45668694295455 92.13650968950242,238.8910133257741" stroke="#4dd2ff" stroke-linecap="round" stroke-linejoin="round" stroke-width="0.5"><title>2022-05-14 4.4km</title></polyline><polyline fill="none" points="141.7237564615789,221.6943481694325 140.79963037749985,219.55203197247465 140.9316483894945,218.6236892024608 143.4894973722985,215.28519703811617 144.46313021093374,215.28519703811617 144.31460994738154,214.8031650417979 145.13972252246458,213.0714127264655 146.03084410366137,213.44632920264849 146.36088913370622,213.33921026730968 146.26187562465202,213.0178531835263 146.45990264270222,213.0 152.97829198592808,217.69534295471385 156.82331658585463,221.01595004404953 158.85309352056356,222.39059694607568 160.7838569463347,224.72926441520394 161.67497852741508,226.47878748214862 161.92251229996327,227.8176998548879 161.82349879096728,229.9063887148659 161.39444025186822,230.37053940475744 160.70134568883805,230.63831825356465 161.04789297038224,235.2619207600219 160.10726463474566,241.1528723872907 160.33829615579452,242.0097264184442 160.84986595239025,242.29534377079108 161.4274447549251,244.0625938228477 159.7277128502028,248.97155566122092 159.79372185620014,251.0779167653527 158.6220619995729,252.07753950427286 158.53955074207624,252.41669630382967 159.31515656260308,253.4698644621094 156.92233009485062,256.07599017076427 156.3612535438151,257.16484280156146 153.67138654895825,260.4670715506072 160.91587495832937,266.9286028046772 161.06439522182336,267.0 167.8138160861563,259.3425337236986 168.770946673234,259.4674826228875 169.46404123632237,258.71778828365495 169.00197819422465,258.2536906524765 169.00197819422465,257.557542577546 170.9327416199958,254.5230281483091 172.61597127321875,255.2191847400827 172.56646451872075,255.05853339235182 173.60610636335332,255.34413571642654 172.8470027942094,255.68328804909834 173.98565814789617,254.9335822721623 174.11767615989083,255.04068323614774 174.03516490233596,254.4873277575971 173.87014238740085,255.2191847400827 173.35857259080512,255.54048712344957 173.32556808780646,255.36198585075908 173.87014238740085,255.36198585075908 172.83050054276828,255.46908662978967 173.8536401358433,255.39768611555337 173.82063563284464,255.57618736255972 173.17704782425426,255.54048712344957 173.3915770938038,255.46908662978967 173.11103881825693,255.57618736255972 173.3420703393058,255.48693675511458 173.32556808780646,255.7189882676903 173.07803431531647,255.89748928345216 172.02189021912636,254.8264812618727 171.34529790753732,254.68367984288489 171.11426638654666,254.8443314334727 172.10440147662302,253.18425997978193 172.83050054276828,251.18501939441194 174.76126396848122,243.17004486577935 175.5038652860094,241.45634186196548 175.85041256755358,241.25997930315498 176.27947110671084,241.75981096523174 177.50063771777786,242.2417905422917 178.65579532290576,242.11683296410774 179.20036962255836,242.6523649985611 179.10135611344595,243.20574688576744 178.3752570473589,243.97333907167194 177.43462871178053,246.70451990677975 177.38512195722433,247.8291150368168 177.73166923882673,249.63202674635977 177.3686197057832,251.30997240313445 173.9526536448393,257.78959215292707 170.7347146020038,262.6982823058206 169.4805434878217,263.5193628123816 168.50691064924467,263.5015132650151 167.6652958226623,263.0374245836283 167.1042192716268,262.30559066809656 165.91605716344202,259.39608325964946 157.763944921433,251.93473650253145 157.20286837039748,250.3103465703898 157.36789088544901,246.72237066294474 157.03784585546236,245.90123454850982 156.24573778331978,245.45496378064854 155.43712745973608,245.3478586768324 154.84304640558548,245.8476820987562 154.5955126330955,246.72237066294474" stroke="#4dd2ff" stroke-linecap="round" stroke-linejoin="round" stroke-width="0.5"><title>2021-12-11 11.3km</title></polyline></svg>