<?xml version="1.0" encoding="utf-8" ?>
<svg baseProfile="full" height="300mm" version="1.1" viewBox="0,0,200,300" width="200mm" xmlns="http://www.w3.org/2000/svg" xmlns:ev="http://www.w3.org/2001/xml-events" xmlns:xlink="http://www.w3.org/1999/xlink"><defs /><rect fill="#222222" height="300" width="200" x="0" y="0" /><text fill="#FFFFFF" style="font-size:12px; font-family:Arial; font-weight:bold;" x="10" y="20">Over 3km Runs</text><text fill="#FFFFFF" style="font-size:4px; font-family:Arial" x="10" y="280">ATHLETE</text><text fill="#FFFFFF" style="font-size:9px; font-family:Arial" x="10" y="290">hanyang</text><text fill="#FFFFFF" style="font-size:4px; font-family:Arial" x="120" y="280">STATISTICS</text><text fill="#FFFFFF" style="font-size:3px; font-family:Arial" x="120" y="285">Number: 2</text><text fill="#FFFFFF" style="font-size:3px; font-family:Arial" x="120" y="290">Weekly: 1.0</text><text fill="#FFFFFF" style="font-size:3px; font-family:Arial" x="141" y="285">Total: 15.7 km</text><text fill="#FFFFFF" style="font-size:3px; font-family:Arial" x="141" y="290">Avg: 7.9 km</text><text fill="#FFFFFF" style="font-size:3px; font-family:Arial" x="167" y="285">Min: 4.4 km</text><text fill="#FFFFFF" style="font-size:3px; font-family:Arial" x="167" y="290">Max: 11.3 km</text><polyline fill="none" points="82.74456601962447,86.04149037622847 84.6752439471893,85.17122129816562 104.38424779428169,97.96411362290382 128.27638715226203,117.80588273413014 133.26397179905325,124.41973336739466 138.25155644631013,142.95572712167632 140.26267928816378,144.0 146.93960712198168,142.86870434100274 147.82450117217377,141.38931611238513 147.4222766039893,135.38472176750656 145.250263934955,134.07937122276053 142.1933572157286,125.11592606501654 143.72181057557464,123.28841937810648 146.93960712198168,122.94032255292404 145.73293341696262,113.88976990117226 140.5844589425251,105.883455277537 133.42486162716523,102.31540667114314 134.55109041789547,99.87868449476082 130.36795490747318,95.78846122231334 137.60799713712186,86.12851724936627 138.01022170530632,81.16797546518501 115.72698062099516,64.02348999562673 111.30251036956906,59.23691507172771 106.4758155499585,56.8001060069073 79.28543473221362,36.0 78.56143050920218,38.52388132852502 73.09117638040334,37.305456518079154 71.08005353808403,38.69794191559777 69.63204509252682,45.13816599792335 70.67782897036523,47.31390961748548 65.20757484110072,47.836087502888404 53.54306236002594,63.24023357860278 52.17549882782623,68.0267926400993 58.69153683446348,82.47338317264803 60.461324935313314,79.601484354469 64.48357061808929,79.94959366577677 71.64316793391481,78.12201866263058 83.2272355016321,85.95446349668782 84.19257446518168,88.04310687654652 82.58367619197816,88.9133738859091 84.27301937900484,87.78202665154822" stroke="#4dd2ff" stroke-linecap="round" stroke-linejoin="round" stroke-width="0.5"><title>2022-05-14 4.4km</title></polyline><polyline fill="none" points="63.447512923157774,173.38869633886497 61.599260754999705,169.1040639449493 61.863296778989024,167.24737840492162 66.978994744597,160.57039407623233 68.92626042186748,160.57039407623233 68.62921989476308,159.60633008359582 70.27944504492916,156.142825452931 72.06168820732273,156.89265840529697 72.72177826741245,156.67842053461936 72.52375124930404,156.03570636705263 72.91980528540444,156.0 85.95658397185616,165.3906859094277 93.64663317170925,172.03190008809906 97.70618704112712,174.78119389215135 101.56771389266942,179.4585288304079 103.34995705483016,182.95757496429724 103.84502459992655,185.6353997097758 103.64699758193456,189.8127774297318 102.78888050373644,190.74107880951487 101.40269137767609,191.2766365071293 102.09578594076447,200.5238415200438 100.21452926949132,212.3057447745814 100.67659231158905,214.01945283688838 101.69973190478049,214.59068754158216 102.85488950985018,218.1251876456954 99.45542570040561,227.94311132244184 99.58744371240027,232.15583353070542 97.24412399914581,234.15507900854573 97.07910148415249,234.83339260765933 98.63031312520616,236.9397289242188 93.84466018970124,242.15198034152854 92.72250708763022,244.32968560312293 87.3427730979165,250.93414310121443 101.83174991665874,263.8572056093544 102.12879044364672,264.0 115.62763217231259,248.68506744739716 117.54189334646799,248.93496524577495 118.92808247264475,247.4355765673099 118.0039563884493,246.50738130495301 118.0039563884493,245.11508515509195 121.86548323999159,239.0460562966182 125.2319425464375,240.43836948016542 125.1329290374415,240.11706678470364 127.21221272670664,240.68827143285307 125.6940055884188,241.36657609819667 127.97131629579235,239.86716454432462 128.23535231978167,240.08136647229549 128.07032980467193,238.97465551519417 127.7402847748017,240.43836948016542 126.71714518161025,241.08097424689913 126.65113617561292,240.72397170151817 127.7402847748017,240.72397170151817 125.66100108553655,240.93817325957934 127.70728027168661,240.79537223110674 127.64127126568928,241.15237472511944 126.35409564850852,241.08097424689913 126.78315418760758,240.93817325957934 126.22207763651386,241.15237472511944 126.68414067861158,240.97387351022917 126.65113617561292,241.43797653538059 126.15606863063294,241.79497856690432 124.04378043825272,239.65296252374537 122.69059581507463,239.36735968576977 122.22853277309332,239.68866286694538 124.20880295324605,236.36851995956386 125.66100108553655,232.37003878882388 129.52252793696243,216.3400897315587 131.00773057201877,212.91268372393097 131.70082513510715,212.51995860630996 132.5589422134217,213.51962193046347 135.00127543555573,214.48358108458342 137.31159064581152,214.2336659282155 138.4007392451167,215.3047299971222 138.2027122268919,216.41149377153488 136.7505140947178,217.9466781433439 134.86925742356107,223.4090398135595 134.77024391444866,225.6582300736336 135.46333847765345,229.26405349271954 134.7372394115664,232.6199448062689 127.9053072896786,245.57918430585414 121.46942920400761,255.39656461164122 118.96108697564341,257.0387256247632 117.01382129848935,257.0030265300302 115.3305916453246,256.0748491672566 114.20843854325358,254.6111813361931 111.83211432688404,248.79216651929892 95.52788984286599,233.8694730050629 94.40573674079496,230.62069314077962 94.73578177089803,223.44474132588948 94.07569171092473,221.80246909701964 92.49147556663956,220.90992756129708 90.87425491947215,220.6957173536648 89.68609281117097,221.6953641975124 89.19102526619099,223.44474132588948" stroke="#4dd2ff" stroke-linecap="round" stroke-linejoin="round" stroke-width="0.5"><title>2021-12-11 11.3km</title></polyline></svg>