<?xml version="1.0" encoding="utf-8" ?>
<svg baseProfile="full" height="300mm" version="1.1" viewBox="0,0,200,300" width="200mm" xmlns="http://www.w3.org/2000/svg" xmlns:ev="http://www.w3.org/2001/xml-events" xmlns:xlink="http://www.w3.org/1999/xlink"><defs /><rect fill="#222222" height="300" width="200" x="0" y="0" /><text fill="#FFFFFF" style="font-size:12px; font-family:Arial; font-weight:bold;" x="10" y="20">Over 3km Runs</text><text fill="#FFFFFF" style="font-size:4px; font-family:Arial" x="10" y="280">ATHLETE</text><text fill="#FFFFFF" style="font-size:9px; font-family:Arial" x="10" y="290">hanyang</text><text fill="#FFFFFF" style="font-size:4px; font-family:Arial" x="120" y="280">STATISTICS</text><text fill="#FFFFFF" style="font-size:3px; font-family:Arial" x="120" y="285">Number: 12</text><text fill="#FFFFFF" style="font-size:3px; font-family:Arial" x="120" y="290">Weekly: 1.7</text><text fill="#FFFFFF" style="font-size:3px; font-family:Arial" x="141" y="285">Total: 59.8 km</text><text fill="#FFFFFF" style="font-size:3px; font-family:Arial" x="141" y="290">Avg: 5.0 km</text><text fill="#FFFFFF" style="font-size:3px; font-family:Arial" x="167" y="285">Min: 3.0 km</text><text fill="#FFFFFF" style="font-size:3px; font-family:Arial" x="167" y="290">Max: 11.3 km</text><polyline fill="none" points="18.53568853600882,37.06327409448568 17.12223434727639,35.97099878825247 13.447253457037732,33.0 14.33571037556976,33.567986187990755 18.939532589633018,37.28172891959548 22.008747399318963,39.42258204059908 24.108736479654908,41.03913959255442 25.19911542511545,41.60711824981263 25.764497100375593,42.08771515957778 26.410647586686537,42.786764530232176 28.712558693950996,44.49069399491418 31.054854206275195,46.32568960200297 31.70100469258614,46.93735357042169 33.15484328661114,47.94222875050036 33.9625313943252,48.46651079208823 34.850988312857226,49.29662309761625 37.718281095381826,51.393743860244285 39.45481052715331,52.70444065408083 40.34326744568534,53.27240838500438 41.2317243644502,54.05882436496904 41.837490445235744,54.40834225091385 42.56440974213183,55.23844642273616 44.66439882223494,56.199618254671805 45.0682428763248,56.68020359944785 45.31054930831306,57.11709903675364 45.83554657874629,57.597683654457796 47.20861636195332,58.646230589132756 47.975920064141974,59.34526087180711 48.945145793491974,60.04429034865461 50.15667795506306,61.092833053320646 52.82204871089198,63.01515663677128 54.27588730491698,64.23845029011136 58.03163700597361,67.07822961587226 59.323937978362665,68.21413762314478 59.808550842804834,68.82577951508574 61.10085181542672,70.13643863517791 63.645069354912266,73.32569732971024 64.61429508426227,74.85478801652789 65.0181391381193,75.7285523925093 65.78544284054078,78.08770992065547 66.22967129992321,79.79154020670103 66.4719777321443,81.53905347723048 66.55274654296227,83.28656171337934 66.51236213743687,85.2088149585179 66.43159332685173,85.9078146283282 66.14890248910524,87.0 66.14890248910524,86.34468901297078 66.35082451603375,84.46612692676717 66.43159332685173,82.32543280650862 66.31044011050835,80.92742440517759 66.06813367828727,79.44203694845783 65.38159878668375,77.03919659653911 64.65467948955484,75.33535857900279 63.68545376043767,73.63151577551616 62.35276838252321,71.97135664505186 59.88931965385564,69.30635485466337 59.323937978362665,68.60733605304267 58.839325113687664,67.82093893829733 57.70856176293455,67.03454080387019 55.77011030423455,65.76756388699869 54.03358087246306,64.41320632491261 52.05474500847049,63.05884573829826 50.64129081973806,61.79186051589204 50.15667795506306,61.3986576673924 49.67206509062089,61.092833053320646 49.025914604309946,60.48118336260086 47.572076010284945,59.38895023765508 47.087463145609945,58.9520564370323 45.10862728161737,57.55399415944703 44.42209239001386,56.50544533622451 44.0990171469748,56.199618254671805 41.07018674258143,54.583101118332706 40.22211422980763,53.92775510577485 37.718281095381826,51.6121935226256 36.30482690688223,50.607324424083345 35.335601177532226,50.03935419715708 34.08368461066857,49.121862706611864 31.054854206275195,46.500450798776 29.681784423068166,45.53926359320758 28.47025226172991,44.84021739580203 27.743332964600995,44.141170392453205 26.61256961361505,43.26736050506588 25.60295947897248,42.000333931529894 24.956808992661536,41.56342760269763 24.391427317168564,41.30128365434939 21.726056561572477,39.291509617702104 18.97991699515842,37.369110827567056 18.09146007662639,36.67005521082319 16.63762148260139,35.75254349084571 15.304936104919761,34.660265823302325 13.528022267855704,33.08738252503099 15.70878015877679,34.83503038226627 17.001081131165847,35.75254349084571 19.827989508397877,37.89340201113373 24.18950529047288,41.082830277329776 25.441421857336536,41.82557143783197 25.845265911193565,42.1314057688578 26.57218520832248,42.961526746919844 28.631789882900193,44.621765293879434 29.277940369211137,45.01497902069241 30.166397287975997,45.75771536456887 30.489472531015053,46.10723803524161 31.29716063872911,46.58783137833234 32.952921259682626,47.85484836617252 35.17406355612911,49.64614372840151 38.122125149471685,51.74326328234747 39.2528885002248,52.70444065408083 41.02980233728886,54.01513461500872 41.6759528235998,54.583101118332706 43.08940701233223,55.58796362875728 44.58363001141697,56.41806618589908 44.987474065274,56.898651357449125 45.0278584707994,57.07340950722573 44.90670525468886,57.07340950722573 44.745167633052915,56.898651357449125 44.17978595755994,56.112239060224965 41.99902806663886,54.93261870217975 40.22211422980763,53.578236942819785 39.050966473296285,52.617060956021305 37.79904990643263,51.21898407378467 35.9413672585506,50.214114323665854 35.01252593449317,49.64614372840151 32.912536854157224,47.98591893806588 31.78177350340411,47.243185323197395" stroke="#4dd2ff" stroke-linecap="round" stroke-linejoin="round" stroke-width="0.5"><title>2022-11-11 6.0km</title></polyline><polyline fill="none" points="95.86703910632059,50.92763289558934 97.07374301692471,51.776161444198806 98.22011173190549,52.75523185933707 99.96983240242116,53.66902995907003 101.65921787754633,54.77864069840871 103.0469273745548,55.88825007900596 103.89162011188455,56.736773982760496 105.27932960912585,57.45475512690609 106.24469273770228,58.172735702304635 107.93407821236178,59.67396597616607 110.10614525154233,61.30573519220343 111.4938547485508,62.61114844970871 113.66592178796418,64.37345336435828 116.20000000018626,66.7231879197061 117.58770949742757,67.76751243323088 120.54413407854736,70.57412860030308 121.20782122923993,71.4226387537783 122.17318435758352,72.98911694984417 123.50055865943432,74.6861319403979 123.9229050280992,75.66517760488205 124.46592178801075,76.51368299196474 125.00893854768947,78.08015238877852 125.25027932994999,79.5813496868941 125.55195530736819,80.82146731833927 125.91396648064256,81.7352371190791 126.2759776536841,83.17115923034726 126.63798882695846,83.82385034713661 126.81899441359565,83.82385034713661 126.93966480460949,83.75858125655213 126.93966480460949,83.4322357334313 126.6983240225818,82.71427516901167 126.57765363133512,80.95200591778848 125.91396648064256,78.34123035822995 125.25027932994999,76.51368299196474 123.37988826818764,73.18492653407156 122.11284916242585,71.55317870690487 118.49273743038066,67.8327826752793 116.86368715087883,66.39683626248734 115.47597765363753,64.9608875742415 114.38994413428009,64.17764187639114 110.95083798910491,60.914110848272685 106.96871508425102,57.58529709215509 106.30502793309279,56.93258707859786 106.00335195544176,56.8673160513863 105.58100558700971,56.8673160513863 105.70167597779073,57.25894214399159 106.42569832433946,58.23800663551083 107.69273743033409,59.15179920644732 109.02011173218489,60.52248633513227 111.1318435757421,62.0889833723777 117.82905027945526,67.76751243323088 118.79441340803169,68.81183574331226 119.94078212301247,69.72561765252613 120.60446927370504,70.57412860030308 123.13854748639278,74.16397382016294 123.98324022372253,74.94721088762162 124.82793296128511,77.10110933298711 125.43128491658717,80.23404338862747 126.2759776536841,82.97535180370323 126.51731843594462,83.62804306135513 126.81899441359565,83.75858125655213 126.93966480460949,83.69331216131104 126.93966480460949,83.4322357334313 126.6983240225818,82.58373682340607 126.63798882695846,81.27835233387304 125.73296089400537,77.94961337570567 125.43128491658717,77.10110933298711 125.0692737433128,76.38314375333721 124.94860335206613,75.92625627008965 124.52625698340125,75.01248061278602 123.37988826818764,73.11965667747427 122.59553072648123,72.0753383312258 119.82011173199862,69.13818653090857 117.76871508406475,67.18008004245348 116.20000000018626,65.74413259536959 113.484916201327,63.45966605853755 111.07150838011876,61.109923041425645 109.20111731882207,59.73923680122243 107.81340782158077,58.30327756394399 106.18435754207894,56.9978581010364 104.97765363147482,56.41041872929782 104.49497206718661,56.4756897893385 104.3743016764056,57.06312911893474 104.55530726280995,57.25894214399159 107.0290502794087,58.8907157087815 108.23575419001281,59.86977843713248 109.50279329624027,61.109923041425645 112.39888268173672,63.65547770156991 113.66592178796418,64.89561712532304 115.65698324027471,66.20102521171793 120.72513966518454,70.63939864042914 122.3541899442207,72.79330732347444 124.58659217879176,76.44841337495018 124.88826815667562,77.29691802873276 125.25027932994999,79.71188846474979 125.43128491658717,80.42985140741803 126.09497206727974,82.06158325326396 126.33631284930743,83.17115923034726 126.6983240225818,83.82385034713661 127.0,84.08492666226812 126.75865921820514,82.12685246596811 126.45698324055411,80.8867366205086 125.85363128525205,78.53703878610395 125.18994413432665,76.77476141270017 123.31955307279713,73.18492653407156 122.65586592210457,72.20587819028879 119.75977653637528,69.00764623004943 118.01005586609244,67.50643141765613 115.71731843613088,65.41778058547061 113.36424581031315,63.52493661100743 111.4938547485508,61.827900720760226 110.64916201122105,61.30573519220343 108.41675977665,59.086528339015786 105.58100558700971,56.671502941520885 103.83128491649404,55.62716564111179 102.98659217916429,54.909183049050625 99.6078212291468,52.75523185933707 95.92737430194393,50.73181850236142 92.06592178763822,48.12095588154625 89.35083798901178,46.61970646830741 88.38547486066818,45.90171673934674 86.93743016780354,45.11845456802985 85.67039106157608,44.1393759016064 83.25698324036784,42.70339194405824 79.81787709519267,40.28832288336707 78.61117318458855,39.63560041051824 77.46480446937494,38.85233282262925 73.90502793318592,36.3067084858194 73.18100558663718,35.91507333773188 73.0,35.91507333773188 73.0,36.11089093290502 73.18100558663718,36.3067084858194 74.14636871521361,36.959433356591035" stroke="#4dd2ff" stroke-linecap="round" stroke-linejoin="round" stroke-width="0.5"><title>2022-11-09 5.0km</title></polyline><polyline fill="none" points="138.57037512841634,37.36205280513968 135.6673967828974,35.13740980217699 134.05463103507645,33.741551194514614 133.32888644887134,33.0 133.69175874209031,33.130862041551154 134.21590761002153,33.43620669498341 134.82069476530887,34.090516148135066 137.3204816740472,35.92257885436993 138.20750283519737,36.751367304706946 140.22346001979895,38.32170020393096 141.43303433037363,39.063244879303966 144.49728925083764,41.375113624788355 145.98909756774083,42.16027458652388 147.19867187808268,43.33801411971217 148.6098419073969,44.34127191477455 149.3759056373965,45.12642902950756 151.4725011093542,46.5222613857477 153.32718171924353,47.91809052374447 155.14154318510555,49.6628724206239 157.84292581258342,51.320410565065686 158.68962782993913,52.19279723940417 159.2944149854593,52.89070567378076 159.93952128430828,53.370517255796585 160.62494672695175,53.67585170088569 161.4716487445403,54.679092364851385 162.72154219890945,55.37699793319916 163.93111650971696,55.85680754482746 164.57622280879878,56.20575975085376 164.85845681466162,56.51109276607167 165.54388225730509,57.55794764927123 166.79377571190707,58.38670648162952 168.24526488455012,59.608033219352365 170.7047326497268,61.30916278442601 171.5514346670825,62.09429789468413 177.27675307146274,66.41252280358458 178.00249765766785,67.06679661845556 178.8491996752564,67.59021516132634 179.57494426169433,68.2881058480707 179.85717826732434,68.85514143877663 180.3410079916939,69.50941261433763 182.71983746928163,71.99563663452864 183.60685863066465,73.21693592320662 184.37292236066423,74.48185044684215 185.743773246184,77.7531688590534 186.34856040147133,80.02127258462133 186.67111355112866,82.94362447672756 186.55015611997806,84.86277327185962 186.3888795452658,85.73511162289651 185.94536896469072,86.91276640369324 185.82441153354011,87.0 185.82441153354011,86.60744871746283 186.2679221141152,84.38298664317699 186.34856040147133,83.64149746950716 186.22760297055356,82.02766495314427 186.22760297055356,81.11170404427685 186.1066455396358,80.37021086522145 186.06632639560848,79.84680336876772 185.78409238997847,79.1489260030794 185.34058180940337,77.27337659773184 184.49387979181483,75.26696847740095 183.36494376836345,73.21693592320662 181.83281630836427,71.34136814519297 180.74419942847453,70.12006507377373 179.85717826732434,69.33494036999764 179.29271025583148,68.68066900596023 178.970157106407,68.1136332518654 178.7282422441058,67.80830608744873 177.8412210829556,66.97956015070667 176.5913276283536,66.23804966692114 174.93824273720384,64.84226276358822 174.01090243225917,64.27522341499571 171.30951980501413,62.35600937192794 170.7047326497268,61.83258630434284 170.0193072068505,61.00383218872594 169.61611577006988,60.698501439066604 168.4065414594952,60.13145820988575 168.20494574098848,59.956983263313305 167.92271173512563,59.477176900953054 167.55983944190666,59.171845381497405 167.15664800512604,58.91013252804987 166.5115417058114,58.692038397013675 166.02771198144183,58.34308762400178 165.54388225730509,57.8632799826446 164.89877595822327,57.601566563593224 164.77781852707267,57.47070981154684 164.25366965937428,56.38023577834247 163.85047822236083,56.031283672957215 163.60856336005963,55.85680754482746 162.96345706121065,55.72595041577006 161.4716487445403,55.02804524957901 160.30239357752725,54.199281819863245 159.6169681348838,53.41413647169247 158.36707468051463,52.32365513214609 157.84292581258342,51.62574604409747 157.23813865729608,51.05869431758765 156.47207492706366,50.578880903543904 155.02058575418778,49.88096980412956 153.60941572510637,48.746862551837694 152.6014371328056,47.78723167878343 151.51282025314867,46.91483865608461 149.65813964349218,45.64986654021777 148.89207591325976,45.34452804730972 148.56952276360244,45.08280921651749 148.00505475210957,44.64661091385642 146.71484215394594,43.33801411971217 146.1100549986586,42.5092346870224 145.14239554991946,41.72407417796785 144.17473610141315,41.24425336549757 142.924842647044,40.415471066429745 140.58633231301792,38.53980167338159 135.70771592645906,35.48637395113474 134.05463103507645,34.003274928661995 133.53048216714524,33.39258603978669 133.369205592433,33.17448271578178 133.369205592433,33.130862041551154 133.4901630235836,33.130862041551154 134.37718418473378,33.741551194514614 134.86101390910335,34.22137795394519 137.5220773925539,36.35878344334196 139.73963029542938,37.97273768944433" stroke="#4dd2ff" stroke-linecap="round" stroke-linejoin="round" stroke-width="0.5"><title>2022-11-07 5.0km</title></polyline><polyline fill="none" points="18.50090189743787,96.93857397534885 17.044707105727866,96.01957566576311 15.831211446318775,95.18809980648803 15.062664195196703,94.57543265540153 13.404220127034932,93.04376207344467 15.103114050580189,94.31286082993029 16.114360433537513,95.23186172218993 18.298652620753273,97.02609755139565 21.777340178377926,99.34546771930763 24.20433149742894,101.22721436584834 24.97287874855101,101.5773061219952 25.458277012454346,101.92739767633611 25.86277556559071,102.23372762079816 26.145924552809447,102.62758017942542 27.44031992298551,103.80913632322336 30.999907191377133,106.39104730437975 36.137038816930726,110.50457771966467 37.35053447657265,111.29227185511263 39.17077796603553,112.91141770320246 40.30337391491048,113.74286929925438 42.002267838222906,115.14320625690743 42.77081508934498,115.62457134050783 43.418012774549425,115.84337352513103 44.26745973620564,116.32473805377958 44.914657421410084,117.02490396011854 47.30119888507761,119.16915702744154 47.786597148980945,119.47547827626113 48.919193097855896,120.39444109605392 49.889989625662565,121.05084225907922 51.58888354920782,122.58244221424684 53.44957689382136,124.02651863498613 55.55296937050298,125.47059162298683 57.73726155771874,127.17721891013207 58.74850794067606,127.78985317709157 59.2339062045794,128.22744870377937 60.44740186422132,129.89030883059604 62.18674564291723,131.94699795427732 63.44069115770981,133.60984789999202 64.12833869829774,135.0101390609634 64.89688594941981,136.80425739416387 65.38228421332315,138.51085284317378 65.98903204291128,139.99865009245696 66.39353059628047,142.49289024830796 66.43398045143113,143.41181825095555 66.39353059628047,144.46201998065226 66.3126308855135,145.33718670211965 66.02948189829476,147.0 66.43398045143113,144.11195293912897 66.59577987296507,142.18658060522284 66.43398045143113,141.7052365684067 66.15083146444522,139.254751923203 65.90813233237714,138.24830000917427 65.4227340684738,137.0668108522077 63.92608942161314,134.48503025382524 63.278891736641526,133.7848844716209 62.18674564291723,132.3408312474494 60.73055085144006,130.72173718712293 59.75975432363339,129.36519559810404 59.15300649381243,128.18368916533655 58.829407651210204,127.78985317709157 58.222659821622074,127.30849773361115 57.57546213641763,126.95842080784496 56.15971720009111,125.82066940603545 54.13722443440929,124.33283743442735 52.27653108956292,123.23884101281874 51.79113282565959,122.80124189250637 50.45628760010004,121.31340252555674 49.40459136175923,120.6132415625616 48.51469454471953,119.69427907373756 48.19109570235014,119.43171810725471 46.734900910640135,118.55651406629477 45.238256263779476,117.19994531053817 44.550608723424375,116.49977960606338 43.45846262970008,115.93089437694289 42.40676639135927,115.31824814958964 40.70787246781401,113.9179115954903 40.343823770061135,113.48030576028395 39.08987825526856,112.73637511685956 38.4831304254476,112.03620426723501 37.87638259562664,111.46731485752389 36.46063765930012,110.50457771966467 34.4381448936183,109.45431728329277 33.50779822119512,108.57909886573907 32.41565212723799,107.87892322376138 31.080806901911274,106.78489716706099 29.745961676351726,105.95343604614027 27.07627122523263,103.63409111351939 25.620076433522627,102.01492053328548 25.175128025235608,101.62106757739093 24.163881642278284,101.13969139527762 22.95038598240353,100.30822254595114 21.979589455062523,99.60803736880189 21.170592348556966,98.82032807957148 20.199795820750296,98.20766459277365 19.228999293176457,97.59500048792688 18.33910247590393,97.15738289174624 13.444669982418418,93.0 18.58180160797201,97.11362111469498 21.57509090169333,99.17042122315615" stroke="#4dd2ff" stroke-linecap="round" stroke-linejoin="round" stroke-width="0.5"><title>2022-10-25 5.0km</title></polyline><polyline fill="none" points="78.67372576659545,97.25419491162756 76.18599481182173,95.4309721996542 73.61801447160542,93.26046177634271 78.07185537437908,96.77668473467929 78.8743492309004,97.42783488210989 82.00407527061179,99.59833029046422 84.33130745426752,101.33472098677885 84.85292846080847,101.63858884410001 85.37454946758226,101.8556372197927 85.85604578140192,102.20291445823386 86.93941248743795,103.33156410057563 88.62464958569035,104.6338495220989 89.38701874925755,105.37181001139106 90.55063484120183,106.32681636174675 93.11861518165097,108.10659688414307 94.92422635830007,109.58250845159637 97.77307954849675,111.62273319455562 98.97682033316232,112.53432074014563 99.5385660326574,113.14204500435153 99.97993765352294,113.53272456483683 101.30405251658522,114.48771797958761 102.14667106582783,115.18225769401761 102.58804268669337,115.4861185674672 102.90904022939503,115.5729359316756 103.31028715753928,115.96361391595565 104.1529057067819,116.22406576480716 104.47390324948356,116.44110888603609 105.23627241281793,117.39609769108938 105.87826749798842,117.83018301118864 106.15914034773596,118.17745104210917 106.80113543267362,118.56812733766856 108.16537498869002,119.65333794069011 109.00799353793263,120.47809669171693 110.97410348593257,121.78034505306277 112.17784427036531,122.82214171567466 115.38781969598494,125.12276963185286 115.8693160098046,125.55684938572813 117.79530126508325,127.07612606190378 119.23979020654224,128.0745057920576 120.28303222008981,129.50696077663451 122.40964093944058,131.8509706792538 123.97450395929627,134.0647494380246 124.65662373718806,135.23674666503211 125.25849412963726,136.66918462509057 126.06098798592575,139.4038294578786 126.22148675704375,140.7494437887799 126.50235960679129,142.39890241849935 126.50235960679129,143.48407010757364 126.46223491407,144.17857640329748 126.301736142952,145.4373670243658 125.98073860025033,147.0 126.14123737136833,144.78626875550253 126.18136206432246,143.09340996458195 126.26161144999787,142.35549567022827 126.18136206432246,140.8362575134379 125.78011513617821,138.75272467080504 125.45911759347655,137.5373271862045 124.8973718942143,135.88785525067942 124.1350027306471,134.3251934631262 123.65350641682744,133.45704627479427 120.00215937034227,129.11629157303832 119.15954082086682,128.03109801211394 116.95268271607347,126.51182374358177 115.26744561758824,125.03595364355715 114.0637048331555,124.5150574510917 113.06058751256205,123.42985560389934 111.45559979975224,122.25783541379496 110.45248247939162,121.3028543140972 109.4894898517523,120.65172996930778 107.64375398191623,119.0890286709764 107.04188358969986,118.69835271325428 106.07889096206054,117.91700003761798 105.23627241281793,117.13564634893555 104.43377855652943,116.26747439522296 103.59116000728682,115.65975328342756 102.86891553667374,115.44270988064818 102.22692045150325,115.05203155864729 100.42130927462131,113.48931573732989 99.25769318290986,112.70795630675275 97.53233139170334,111.18864340230357 95.88721898617223,110.0600084788166 94.60322881583124,109.27864460088313 92.87786702462472,107.97636921930825 90.43026076257229,105.97954150044825 88.62464958569035,104.8074873656733 86.93941248743795,103.33156410057563 85.49492354597896,101.8556372197927 84.49180622538552,101.33472098677885 82.44544689171016,99.77196958538843 81.88370119221509,99.51151062431745 79.23547146632336,97.64488477481063 76.70761581859551,95.51779245393118 75.42362564848736,94.60617916012416 74.05938609247096,93.39069262234261 73.49764039320871,93.0 73.97913670679554,93.34728234342765 75.90512196230702,95.08369105745805 77.95148129598238,96.60304457653547 79.71696777991019,98.07898432575166 81.72320242109708,99.46810078661656" stroke="#4dd2ff" stroke-linecap="round" stroke-linejoin="round" stroke-width="0.5"><title>2022-10-19 5.1km</title></polyline><polyline fill="none" points="138.16212334530428,96.64159612392541 137.05381005606614,96.10868096200284 135.57605900452472,95.1760783198406 133.11314058466814,93.0 133.7288701897487,93.26645898254355 135.90444812714122,94.68757161067333 138.244220625842,96.46395778772421 140.46084720361978,97.70742506510578 142.43118193931878,99.26175563386641 143.9499816314783,100.32758004392963 144.7299057978671,100.72726372256875 145.2635381219443,101.08253788587172 145.67402452533133,101.43781184445834 146.53604597225785,102.50363249139627 147.80855382233858,103.39181495597586 148.62952662911266,104.05795096443035 149.61469399696216,104.76849524665158 151.37978553096764,106.27839912637137 152.3239042586647,106.81130549497902 153.26802298612893,107.4774378077127 154.41738491528668,108.45443056419026 155.15626044152305,109.25378712220117 156.34667101083323,109.96432541456306 157.8244220628403,110.98572277481435 158.8095894306898,111.96270997042302 160.12314592092298,112.98410401929868 160.61572960508056,113.47259622695856 161.47775105200708,114.09431302227313 162.01138337608427,114.5828043501242 162.8734048230108,115.11570353899151 164.55639907647856,115.78182687720982 165.00793412025087,116.22590870270506 165.17212868155912,116.66999020834919 165.54156644456089,117.15847949491581 166.44463653163984,117.95782476541353 168.3739226271864,119.33447252359474 168.74336039018817,119.77855178969912 170.22111144196242,120.75552504928783 171.7809597745072,122.17657429899555 174.44912139582448,123.99728886276716 175.06485100090504,124.66340260358993 175.68058060551994,125.1518855561153 177.24042893829755,126.12885029974859 179.45705551607534,127.81633121037157 180.15488240146078,128.6156626609736 180.3601256031543,129.0153279977967 180.85270928707905,129.59262191544985 182.74094674224034,131.7685710544465 184.0955518730916,133.5892572896555 185.20386516209692,135.45434493100038 185.6554002056364,136.52010676427744 186.27112981071696,138.74043799983338 186.4353243720252,139.4509423064883 186.3942757314071,140.20585223514354 186.72266485425644,142.3373576325248 186.76371349440888,143.35870135744335 186.68161621387117,145.09054119844222 186.55847029271536,146.0674743472482 186.35322709125467,146.91118809382897 186.3942757314071,147.0 186.47637301217765,146.9555940485443 186.59951893310063,146.2006923839799 186.76371349440888,145.71222610858968 186.80476213479415,145.00172901712358 186.8868594155647,143.40310756798135 186.84581077517942,142.514982749708 186.76371349440888,142.07091986079467 186.47637301217765,139.095690255519 185.94274068786763,137.1862069744966 185.4091083635576,135.809599080123 184.95757332001813,134.87705650209682 184.05450323270634,133.27840880083386 182.6588494614698,131.50212871539406 181.63263345323503,130.3031367645017 180.6885147257708,129.32617863605265 179.53915279661305,127.8607385403593 178.67713134968653,127.4166650963598 177.15833165775985,125.86240552313393 176.66574797360227,125.41833063971717 175.7626778865233,124.79662526544416 174.20282955397852,123.55321263580117 173.17661354551092,122.9315053805476 171.41152201150544,121.55486565525644 170.63159784511663,120.75552504928783 169.93377095949836,120.35585435747635 169.3590899950359,119.77855178969912 168.3739226271864,119.15684072748991 166.89617157541215,117.95782476541353 166.4035878914874,117.6469683945761 165.99310148810036,117.24729568726616 165.6236637250986,117.11407139402581 165.17212868155912,116.62558207212714 164.7616422784049,116.003867829917 164.47430179594085,115.73741867695935 163.11969666508958,115.07129529083613 162.13452929724008,114.44957948097726 161.4367024116218,113.73904635885265 161.1083132890053,113.16173759417143 160.32838912284933,112.76206197869033 159.34322175499983,112.09593537717592 158.60434622876346,111.56303357757861 157.53708158037625,110.58604574843775 157.33183837868273,110.54163717397023 157.2907897385303,110.67486288788496 157.24974109814502,111.34099102515029 156.67506013344973,111.38539954199223 156.3877196512185,111.51862507348415 155.48464956390671,112.22916075511603 155.03311452036723,112.45120298757683 154.0479471522849,112.89528721268289 153.30907162628137,112.62883671594318 152.9806825038977,112.67324514017673" stroke="#4dd2ff" stroke-linecap="round" stroke-linejoin="round" stroke-width="0.5"><title>2022-10-15 3.9km</title></polyline><polyline fill="none" points="18.406368100782856,157.31494716968155 17.479775687213987,156.74833970121108 15.54601760674268,155.13568476989167 13.934552539605647,153.56661098002223 13.49139964627102,153.04358547896845 14.498565312940627,153.82812356104841 15.384871099842712,154.69983134767972 16.512896646978334,155.52795258135302 18.72866111411713,157.40211750235176 22.475317395059392,160.060806614405 24.086782462196425,161.2811845887336 24.570221982197836,161.5862786975922 26.060827169334516,162.28363608272048 26.785986449569464,163.11174693348585 28.034871876705438,163.9834413410863 29.64633694384247,165.33456519048195 30.814649117412046,166.11908733093878 31.660668277647346,166.8600239738007 34.48073214502074,168.86490681016585 36.213057092158124,170.3903566909139 37.58280239929445,171.26204061001772 39.113694212865084,172.7874844460166 39.79856686666608,173.31049287575297 40.96687904023565,174.44367625564337 41.89347145380452,175.18460270256037 42.860350494040176,175.75119290250586 44.02866266760975,176.14344734547194 44.55238881427795,176.36136637063464 44.95525508141145,176.71003664750606 45.39840797474608,177.36379287508316 46.204140508314595,178.19188308238517 48.41990497568622,179.84806009673048 48.94363112235442,180.41464592918055 50.11194329592399,181.1555650633527 51.03853570949286,182.11440024303738 52.81114728329703,183.33473372843582 53.97945945686661,184.24998222704744 55.51035127067007,185.2523956608493 57.887262244708836,187.12646849494195 58.69299477827735,187.56229855469428 59.13614767161198,187.91096237645252 59.86130695184693,189.08770129142795 62.60079756588675,192.18207788665313 63.60796323302202,193.4895561991143 64.69570215325803,195.27643865696155 65.94458758016117,198.24003695353167 66.14602071349509,199.19884505943628 66.38774047372863,200.8985466043814 66.54888698039576,202.7289890826214 66.54888698039576,203.51346273557283 66.42802710039541,204.29793537140358 66.42802710039541,205.25673387869028 66.10573408706114,207.0 66.1863073403947,206.7820920094382 66.14602071349509,205.99762259388808 66.34745384706184,203.99286280054366 66.30716722039506,201.63944065547548 66.02516083372757,199.15526290575508 65.54172131349333,197.41197418479715 64.69570215325803,195.36360351991607 64.09140275302343,194.09971177804982 63.72882311278954,193.4895561991143 63.24538359278813,192.96656521316618 62.39936443255283,191.78983384202002 60.82818599208258,189.91577545233304 60.54617960541509,189.61069563007914 60.22388659208082,189.3491985173314 59.82102032518014,188.91336974478327 59.176434298511595,187.95454534009332 55.349204764002934,184.990896664327 54.503185604000464,184.46789833222283 53.8183129504323,183.98848279722733 53.17372692329809,183.42190031171776 51.239968842826784,181.89648329018382 49.950796789256856,180.76331387006212 46.80843990854919,178.32263406412676 45.23726146784611,177.05870672338642 44.914968454511836,176.579285317217 44.31066905451007,175.92552824190352 43.66608302760869,175.53327365760924 43.10207025404088,175.27177046006545 41.69203832023777,174.2693404891761 40.322293013334274,173.13615678279893 39.677706986665726,172.7439003897598 37.78423553262837,171.17487227468519 35.36703793192282,169.60584008990554 33.63471298478544,168.16755701205693 29.92834333050996,165.5089035317651 28.598884650040418,164.28853408707073 27.551432356704026,163.50400957243983 26.342833556234837,162.5015601007617 25.657960902666673,161.76061811920954 25.093948129331693,161.41193922550883 23.96592258219607,160.9760903258575 22.717037155292928,159.75571173615754 21.42786510149017,158.88401123590302 20.622132568154484,158.53533068409888 19.85668666101992,158.01230947946897 18.16464834054932,156.70475448935758 17.31862918054685,156.00739067204995 15.868310620076954,154.9613434386556 13.571972899371758,153.04358547896845 13.451113019371405,153.0 13.77340603270568,153.39226919657085 14.498565312940627,153.8717089801794 16.11003038007766,155.35361136315623 20.340126181254163,158.5789157639956" stroke="#4dd2ff" stroke-linecap="round" stroke-linejoin="round" stroke-width="0.5"><title>2022-10-12 5.0km</title></polyline><polyline fill="none" points="78.37721518985927,162.79457581136376 75.9164556961041,160.82254197471775 74.82278481009416,160.08302782062674 74.18481012666598,159.54071693273727 73.0,158.7519003287307 74.6405063290149,160.1323287889827 78.92405063286424,163.38618485390907 82.15949367079884,165.70331534498837 84.62025316455401,167.6260346886702 85.212658227887,168.02043798880186 85.94177215197124,168.31624031456886 86.67088607582264,168.80924390687142 87.7645569620654,169.94315082090907 90.27088607591577,171.81655812717509 91.3645569619257,172.80255991226295 100.3417721518781,179.55663393915165 101.48101265798323,180.54262457077857 104.76202531624585,183.1554928739206 106.31139240483753,184.14147832000162 107.95189873385243,184.93026565405307 108.72658227826469,186.06414585368475 109.3645569619257,186.55713665881194 109.91139240493067,187.09942613437306 112.23544303770177,188.77559088694397 113.14683544286527,189.76156823540805 114.42278480995446,190.59964786458295 115.42531645554118,191.53632388281403 120.3468354428187,194.98722446593456 123.08101265807636,197.15635306871263 123.76455696183257,197.60003761772532 124.58481012634002,198.43810764781665 125.54177215183154,199.76915793924127 127.0,201.2480996712693 126.04303797450848,200.3114369455143 124.99493670859374,198.73389682522975 124.53924050601199,198.14231834269594 123.39999999990687,197.45214279991342 121.30379746807739,195.7267008983181 119.75443037948571,194.54353822290432 119.16202531638555,194.19844872393878 118.25063291122206,193.36037350189872 117.24810126586817,192.71949175733607 115.01518987328745,191.04333666461753 112.91898734169081,189.12068312050542 110.18481012643315,187.19802417460596 109.22784810117446,186.21204313251656 108.63544303784147,185.81765031797113 107.67848101258278,184.782368098211 105.53670886065811,183.6977850451367 103.66835443023592,182.26810475764796 103.2582278479822,181.82441026810557 100.75189873413183,179.70453262445517 99.38481012638658,178.81714003300294 97.97215189854614,177.68324782466516 96.83291139220819,176.9437518939376 95.92151898727752,176.30285477417056" stroke="#4dd2ff" stroke-linecap="round" stroke-linejoin="round" stroke-width="0.5"><title>2022-10-09 3.0km</title></polyline><polyline fill="none" points="139.3447684389539,163.56636667612474 137.5849056604784,162.2135545690544 134.20411663781852,159.8586531409528 133.0,158.95677388610784 134.11149228131399,159.70834001299227 140.78044596896507,165.06948815268697 142.5403087476734,166.3220869009965 143.65180102922022,166.72291802393738 145.22641509445384,168.12582513445523 147.03259005141445,169.17800360976253 148.32933104620315,170.48069856408983 150.04288164665923,171.73328756471165 150.83018867927603,172.63515024795197 151.43224699841812,173.13618456659606 152.35849056602456,173.73742527258582 159.30531732412055,179.04836226440966 160.69468267564662,180.00031838187715 161.43567753001116,180.40114162041573 162.77873070328496,181.55350714433007 165.69639794179238,183.85823246376822 166.9931389365811,184.7600794226746 168.24356775311753,185.21100246347487 168.66037735831924,185.4615151375765 169.03087478573434,185.81223272980424 169.26243567769416,186.46356493182248 169.49399656942114,186.66397471737582 171.90222984575666,188.56786480004666 173.52315608924255,189.62001234659692 174.1715265866369,190.2713409823482 175.2367066894658,191.0228732659598 176.85763293295167,192.4758333778591 178.01543739275075,193.22736327908933 179.497427101247,194.58011505496688 182.09090909082443,196.6342886464554 182.6929674099665,197.23550903762225 184.12864493997768,198.18744026101194 184.82332761585712,198.43794826115482 185.19382504280657,198.63835459627444 185.84219554020092,199.33977631444577 186.35162950260565,200.29170465789502 186.76843910804018,200.84282047161832 186.90737564326264,201.04322611389216 187.0,201.04322611389216 186.2126929673832,199.64038540580077 185.10120068630204,198.53815143590327 184.68439108063467,198.38784666825086 181.25728987995535,195.73245708504692 179.68267581495456,194.6302169219707 178.4322469981853,193.67828083003405 175.97770154383034,191.67420058796415 175.2367066894658,190.922669008316 173.98627787316218,190.12103442836087 172.92109777010046,189.1690921644331 171.16123499139212,188.06684159947326 170.46655231551267,187.3654085122398 170.32761578052305,187.26520372770028 170.00343053159304,187.26520372770028 169.81818181835115,187.16499892866705 169.0771869639866,186.1629501452553 168.15094339614734,185.31120754394215 167.13207547180355,184.81018199713435 166.57632933091372,184.70997684448957 165.51114922808483,184.15884824673412 165.27958833612502,183.95843773911474 164.90909090917557,183.4073085457785 164.4459691250231,183.05658974073594 163.89022298459895,182.40525434783194 162.77873070328496,181.65371275192592 160.8336192111019,179.79990667599486 159.35162950260565,178.64753824612126 157.59176672366448,177.64547718968242 155.18353344779462,175.69145397649845" stroke="#4dd2ff" stroke-linecap="round" stroke-linejoin="round" stroke-width="0.5"><title>2022-10-08 3.0km</title></polyline><polyline fill="none" points="25.730038022855297,223.09649113356136 25.07300380244851,222.60779899719637 24.04638783284463,222.0302532457863 22.198479087557644,220.4753196873935 17.065399239538237,217.09887902904302 13.944486692082137,214.65539070399245 13.041064638877288,213.90012871689396 13.0,213.76684709370602 13.246387832798064,213.90012871689396 14.35513307992369,214.74424499459565 16.44942965777591,216.56575512955897 19.200760456267744,218.65382110280916 21.746768060838804,220.69745329295984 23.841064638923854,222.0302532457863 24.703422053251415,222.4300926697906 25.730038022855297,223.18534420768265 26.71558935381472,224.07387424435 28.80988593166694,225.8065041329828 30.16501901159063,227.05044053768506 32.83422053232789,229.00519267463824 33.90190114080906,229.89371432474582 34.9695817490574,230.64895672060084 35.7908745247405,231.3597722481354 37.392395437229425,232.42599400313338 38.46007604571059,233.27008491830202 39.85627376451157,234.64728340459988 40.43117870739661,235.04711464711 41.21140684420243,235.9356275909813 42.771863118046895,237.26839460653719 43.26463878317736,237.44609665771713 44.00380228133872,237.4905221624067 44.61977186310105,237.7126496382407 45.0304182509426,238.11247889319202 46.09809885919094,239.00098742038244 47.2068441065494,240.20047190139303 47.822813688311726,240.55587426247075 48.39771863119677,240.91127641877392 49.05475285160355,241.53322969947476 49.54752851719968,241.84420610457892 50.081368821207434,242.5105835873983 53.53079847921617,244.9983864944661 55.296577946748585,246.37555878824787 56.0768060835544,247.17520580551354 57.965779467718676,248.4635238192277 58.82813688204624,248.86334610375343 59.73155893548392,249.7074145200313 60.01901140669361,250.06281140237115 60.3885931558907,250.68475545372348 62.35969581757672,252.8615546937799 63.59163498110138,254.41640658996766 64.16653992398642,255.34931584610604 65.27528517111205,257.65937078819843 66.13764258543961,259.7917215168709 66.42509505688213,260.81347029522294 66.75361216743477,262.36830214509973 66.83574144472368,263.523317553394 67.0,264.41178947268054 66.71254752832465,265.1669895978994 66.67148288968019,265.7444949520868 66.67148288968019,266.1887294719345 66.71254752832465,266.233152906294 66.83574144472368,266.0110357023077 66.87680608360097,265.7000714823953 66.83574144472368,264.94487200991716 66.91787072247826,264.2340951912338 66.91787072247826,263.2123520793393 66.79467680607922,262.10175982053624 66.5072243346367,260.50250345485983 65.93231939175166,258.6366991205723 65.15209125471301,256.90416147059295 64.20760456286371,255.21604318160098 63.59163498110138,254.28313372388948 62.277566539822146,252.63943267433206 61.16882129269652,251.39554788701935 60.01901140669361,250.28493434982374 59.40304182516411,249.48529136471916 58.04790874524042,248.3302496667602 57.10342205315828,247.79715276882052 55.05019011418335,246.28670905559557 53.85931558930315,245.22051126597216 53.61292775673792,244.8206866197288" stroke="#4dd2ff" stroke-linecap="round" stroke-linejoin="round" stroke-width="0.5"><title>2022-10-04 3.0km</title></polyline><polyline fill="none" points="91.37228300981224,238.02074518811423 92.33762197359465,237.5856106490828 102.19212389714085,243.9820568114519 114.13819357613102,253.90294136706507 116.63198589952663,257.2098666836973 119.12577822315507,266.47786356083816 120.13133964408189,267.0 123.46980356099084,266.43435217050137 123.91225058608688,265.69465805619257 123.71113830199465,262.6923608837533 122.6251319674775,262.03968561138026 121.0966786078643,257.55796303250827 121.86090528778732,256.64420968905324 123.46980356099084,256.470161276462 122.86646670848131,251.94488495058613 120.29222947126254,247.9417276387685 116.71243081358261,246.15770333557157 117.27554520894773,244.9393422473804 115.18397745373659,242.89423061115667 118.80399856856093,238.06425862468313 119.00511085265316,235.5839877325925 107.86349031049758,227.01174499781337 105.65125518478453,224.61845753586385 103.23790777497925,223.40005300345365 89.64271736610681,213.0 89.28071525460109,214.2619406642625 86.54558819020167,213.65272825903958 85.54002676904202,214.34897095779888 84.81602254626341,217.56908299896168 85.33891448518261,218.65695480874274 82.60378742055036,218.9180437514442 76.77153118001297,226.6201167893014 76.08774941391312,229.01339632004965 79.34576841723174,236.236691586324 80.23066246765666,234.8007421772345 82.24178530904464,234.9747968328884 85.8215839669574,234.0610093313153 91.61361775081605,237.9772317483439 92.09628723259084,239.02155343827326 91.29183809598908,239.45668694295455 92.13650968950242,238.8910133257741" stroke="#4dd2ff" stroke-linecap="round" stroke-linejoin="round" stroke-width="0.5"><title>2022-05-14 4.4km</title></polyline><polyline fill="none" points="141.7237564615789,221.6943481694325 140.79963037749985,219.55203197247465 140.9316483894945,218.6236892024608 143.4894973722985,215.28519703811617 144.46313021093374,215.28519703811617 144.31460994738154,214.8031650417979 145.13972252246458,213.0714127264655 146.03084410366137,213.44632920264849 146.36088913370622,213.33921026730968 146.26187562465202,213.0178531835263 146.45990264270222,213.0 152.97829198592808,217.69534295471385 156.82331658585463,221.01595004404953 158.85309352056356,222.39059694607568 160.7838569463347,224.72926441520394 161.67497852741508,226.47878748214862 161.92251229996327,227.8176998548879 161.82349879096728,229.9063887148659 161.39444025186822,230.37053940475744 160.70134568883805,230.63831825356465 161.04789297038224,235.2619207600219 160.10726463474566,241.1528723872907 160.33829615579452,242.0097264184442 160.84986595239025,242.29534377079108 161.4274447549251,244.0625938228477 159.7277128502028,248.97155566122092 159.79372185620014,251.0779167653527 158.6220619995729,252.07753950427286 158.53955074207624,252.41669630382967 159.31515656260308,253.4698644621094 156.92233009485062,256.07599017076427 156.3612535438151,257.16484280156146 153.67138654895825,260.4670715506072 160.91587495832937,266.9286028046772 161.06439522182336,267.0 167.8138160861563,259.3425337236986 168.770946673234,259.4674826228875 169.46404123632237,258.71778828365495 169.00197819422465,258.2536906524765 169.00197819422465,257.557542577546 170.9327416199958,254.5230281483091 172.61597127321875,255.2191847400827 172.56646451872075,255.05853339235182 173.60610636335332,255.34413571642654 172.8470027942094,255.68328804909834 173.98565814789617,254.9335822721623 174.11767615989083,255.04068323614774 174.03516490233596,254.4873277575971 173.87014238740085,255.2191847400827 173.35857259080512,255.54048712344957 173.32556808780646,255.36198585075908 173.87014238740085,255.36198585075908 172.83050054276828,255.46908662978967 173.8536401358433,255.39768611555337 173.82063563284464,255.57618736255972 173.17704782425426,255.54048712344957 173.3915770938038,255.46908662978967 173.11103881825693,255.57618736255972 173.3420703393058,255.48693675511458 173.32556808780646,255.7189882676903 173.07803431531647,255.89748928345216 172.02189021912636,254.8264812618727 171.34529790753732,254.68367984288489 171.11426638654666,254.8443314334727 172.10440147662302,253.18425997978193 172.83050054276828,251.18501939441194 174.76126396848122,243.17004486577935 175.5038652860094,241.45634186196548 175.85041256755358,241.25997930315498 176.27947110671084,241.75981096523174 177.50063771777786,242.2417905422917 178.65579532290576,242.11683296410774 179.20036962255836,242.6523649985611 179.10135611344595,243.20574688576744 178.3752570473589,243.97333907167194 177.43462871178053,246.70451990677975 177.38512195722433,247.8291150368168 177.73166923882673,249.63202674635977 177.3686197057832,251.30997240313445 173.9526536448393,257.78959215292707 170.7347146020038,262.6982823058206 169.4805434878217,263.5193628123816 168.50691064924467,263.5015132650151 167.6652958226623,263.0374245836283 167.1042192716268,262.30559066809656 165.91605716344202,259.39608325964946 157.763944921433,251.93473650253145 157.20286837039748,250.3103465703898 157.36789088544901,246.72237066294474 157.03784585546236,245.90123454850982 156.24573778331978,245.45496378064854 155.43712745973608,245.3478586768324 154.84304640558548,245.8476820987562 154.5955126330955,246.72237066294474" stroke="#4dd2ff" stroke-linecap="round" stroke-linejoin="round" stroke-width="0.5"><title>2021-12-11 11.3km</title></polyline></svg>