<?xml version="1.0" encoding="utf-8" ?>
<svg baseProfile="full" height="300mm" version="1.1" viewBox="0,0,200,300" width="200mm" xmlns="http://www.w3.org/2000/svg" xmlns:ev="http://www.w3.org/2001/xml-events" xmlns:xlink="http://www.w3.org/1999/xlink"><defs /><rect fill="#222222" height="300" width="200" x="0" y="0" /><text fill="#FFFFFF" style="font-size:12px; font-family:Arial; font-weight:bold;" x="10" y="20">Over 3km Runs</text><text fill="#FFFFFF" style="font-size:4px; font-family:Arial" x="10" y="280">ATHLETE</text><text fill="#FFFFFF" style="font-size:9px; font-family:Arial" x="10" y="290">hanyang</text><text fill="#FFFFFF" style="font-size:4px; font-family:Arial" x="120" y="280">STATISTICS</text><text fill="#FFFFFF" style="font-size:3px; font-family:Arial" x="120" y="285">Number: 5</text><text fill="#FFFFFF" style="font-size:3px; font-family:Arial" x="120" y="290">Weekly: 1.7</text><text fill="#FFFFFF" style="font-size:3px; font-family:Arial" x="141" y="285">Total: 24.8 km</text><text fill="#FFFFFF" style="font-size:3px; font-family:Arial" x="141" y="290">Avg: 5.0 km</text><text fill="#FFFFFF" style="font-size:3px; font-family:Arial" x="167" y="285">Min: 3.0 km</text><text fill="#FFFFFF" style="font-size:3px; font-family:Arial" x="167" y="290">Max: 11.3 km</text><polyline fill="none" points="21.169620252912864,47.05943441513227 17.88860759488307,44.43005596625153 16.430379746714607,43.44403709413018 15.579746835399419,42.72095591027755 14.0,41.66920043824939 16.187341772252694,43.5097717185854 21.898734177229926,47.84824647183996 26.212658227654174,50.93775379325962 29.4936708859168,53.50137958483538 30.28354430361651,54.027250651677605 31.255696202395484,54.421653752739076 32.22784810094163,55.07899187580915 33.68607594934292,56.590867761173286 37.027848101221025,59.08874416950857 38.48607594915666,60.40341321629239 50.45569620234892,69.4088452521828 51.97468354413286,70.72349942766596 56.349367088405415,74.20732383179711 58.41518987319432,75.5219710933161 60.602531645214185,76.57368753867922 61.63544303760864,78.08552780479658 62.48607594915666,78.74284887837712 63.21518987300806,79.46590151247801 66.31392405019142,81.70078784920042 67.52911392366514,83.01542431378039 69.23037974652834,84.13286381942453 70.56708860746585,85.38176517706597 77.1291139239911,89.982965954463 80.77468354417942,92.87513742485316 81.68607594911009,93.46671682363376 82.77974683512002,94.5841435304028 84.05569620244205,96.35887725226348 86.0,98.3307995616924 84.72405063267797,97.08191592729418 83.32658227812499,94.97852910024812 82.71898734150454,94.18975779018365 81.1999999997206,93.26952373317908 78.40506329084747,90.96893453103257 76.33924050582573,89.39138429710874 75.54936708835885,88.9312649652129 74.33417721488513,87.81383133580675 72.99746835441329,86.95932234305656 70.02025316446088,84.7244488861179 67.22531645535491,82.16091082728235 63.57974683516659,79.59736556606367 62.30379746807739,78.28272417664994 61.51392405037768,77.75686709058937 60.237974683288485,76.37649079755647 57.38227848079987,74.93038006010465 54.89113924023695,73.02413967676694 54.34430379723199,72.43254702410195 51.002531645586714,69.60604349919595 49.17974683502689,68.42285337724024 47.29620253131725,66.91099709947594 45.77721518976614,65.9250025251531 44.56202531629242,65.0704730321304" stroke="#4dd2ff" stroke-linecap="round" stroke-linejoin="round" stroke-width="0.5"><title>2022-10-09 3.0km</title></polyline><polyline fill="none" points="122.45969125209376,48.08848890149966 120.11320754745975,46.28473942540586 115.60548885073513,43.14487085462315 114.0,41.94236518145772 115.48198970849626,42.94445335067576 124.37392795900814,50.09265087021049 126.72041166387498,51.76278253464261 128.20240137237124,52.297224031877704 130.3018867925275,54.167766845959704 132.7101200686302,55.57067147974158 134.4391080616042,57.30759808543371 136.72384219570085,58.977716752910055 137.773584905779,60.18020033062203 138.57632933137938,60.84824608883355 139.81132075493224,61.64990036340896 149.07375643239357,68.73114968591835 150.92624356783926,70.00042450916953 151.91423670691438,70.53485549392644 153.70497427135706,72.07134285912616 157.595197255956,75.14430995169096 159.32418524893,76.34677256352734 160.99142367090099,76.94800328463316 161.54716981132515,77.28202018345473 162.04116638121195,77.74964363971958 162.34991423692554,78.6180865757633 162.65866209287196,78.88529962318717 165.86963979457505,81.42381973337615 168.03087478573434,82.8266831288347 168.89536878233775,83.6951213098364 170.31560891959816,84.69716435461305 172.47684391099028,86.63444450381212 174.0205831907224,87.63648437213851 175.99656946840696,89.44015340664191 179.45454545482062,92.17905152856838 180.25728988018818,92.98067871684907 182.17152658686973,94.24992034799652 183.097770154709,94.58393101487309 183.59176672413014,94.85113946173806 184.45626072050072,95.78636841924163 185.13550600386225,97.0556062104879 185.6912521442864,97.7904272955493 185.87650085776113,98.05763481854228 186.0,98.05763481854228 184.95025728992186,96.1871805411065 183.46826758189127,94.71753524790984 182.91252144123428,94.51712889102055 178.34305317350663,90.97660944674863 176.24356775335036,89.50695589598035 174.57632933114655,88.23770777339814 171.30360205867328,85.5656007839134 170.31560891959816,84.56355867779348 168.64837049762718,83.49471257120604 167.22813036036678,82.22545621928293 164.88164665549994,80.75578879931709 163.95540308766067,79.82054468296701 163.77015437418595,79.68693830358097 163.33790737576783,79.68693830358097 163.0909090912901,79.5533319049282 162.10291595198214,78.2172668603016 160.86792452842928,77.08161005860893 159.50943396240473,76.41357599617913 158.76843910827301,76.2799691259861 157.3481989710126,75.5451309956261 157.03945111506619,75.27791698550573 156.54545454587787,74.5430780610186 155.9279588337522,74.07545298768673 155.1869639796205,73.20700579707045 153.70497427135706,72.20495033590123 151.11149228177965,69.73320890130708 149.13550600362942,68.19671766151441 146.78902229852974,66.8606362529099 143.5780445970595,64.2552719686646" stroke="#4dd2ff" stroke-linecap="round" stroke-linejoin="round" stroke-width="0.5"><title>2022-10-08 3.0km</title></polyline><polyline fill="none" points="30.973384030163288,127.46198817808181 30.09733840287663,126.81039866287028 28.728517110226676,126.0403376610484 26.26463878317736,123.96709291654406 19.420532319229096,119.46517203870462 15.259315589210019,116.20718760526506 14.054752851836383,115.20017162244767 14.0,115.02246279158862 14.328517110319808,115.20017162244767 15.806844106409699,116.32565999275539 18.59923954354599,118.75434017274529 22.267680608201772,121.53842813707888 25.662357414141297,124.26327105722157 28.45475285174325,126.0403376610484 29.604562737513334,126.57345689303475 30.973384030163288,127.58045894355746 32.28745247144252,128.76516565907514 35.07984790857881,131.07533884397708 36.88669201545417,132.73392071691342 40.44562737620436,135.34025689953705 41.869201520690694,136.52495243295562 43.29277566540986,137.53194229409564 44.38783269934356,138.47969633084722 46.52319391607307,139.90132533747237 47.94676806079224,141.02677989104996 49.80836501903832,142.8630445394083 50.57490494288504,143.39615286281332 51.61520912521519,144.58083678793628 53.69581749057397,146.3578594753635 54.35285171098076,146.59479554358404 55.33840304147452,146.6540295498562 56.15969581739046,146.95019951759605 56.70722433459014,147.4833051909227 58.130798478843644,148.6679832271766 59.609125475166366,150.26729586848523 60.4304182510823,150.74116568325553 61.19695817469619,151.2150352249737 62.07300380198285,152.04430626594694 62.730038022622466,152.45894147269428 63.441825094865635,153.3474447831395 68.04106463864446,156.664515325916 70.39543726225384,158.50074505095836 71.43574144458398,159.56694107397925 73.95437262346968,161.28469842561753 75.10418250923976,161.81779480498517 76.30874524707906,162.94321936002234 76.69201520876959,163.4170818697894 77.18479087413289,164.24634060490644 79.81292775645852,167.14873959170654 81.45551330782473,169.2218754532514 82.22205323167145,170.4657544614165 83.70038022799417,173.5458277175203 84.85019011376426,176.38896202249452 85.23346007568762,177.75129372696392 85.67148288968019,179.82440286013298 85.7809885928873,181.36442340450594 86.0,182.5490526302019 85.61673003761098,183.5559861304937 85.56197718600743,184.3259932693909 85.56197718600743,184.91830596252112 85.61673003761098,184.97753720835317 85.7809885928873,184.68138093641028 85.83574144472368,184.26676197646884 85.7809885928873,183.25982934655622 85.89049429632723,182.31212692160625 85.89049429632723,180.94980277243303 85.72623574128374,179.46901309402892 85.34296577936038,177.33667127316585 84.57642585528083,174.84893216070486 83.53612167271785,172.5388819607906 82.27680608350784,170.28805757540977 81.45551330782473,169.0441782984999 79.70342205301858,166.8525768990512 78.22509505669586,165.19406384933973 76.69201520876959,163.713245799765 75.87072243331932,162.64705515292007 74.06387832667679,161.10699955560267 72.80456273723394,160.3962036917219 70.06692015193403,158.38227874075528 68.4790874524042,156.96068168792408 68.1505703420844,156.4275821595802" stroke="#4dd2ff" stroke-linecap="round" stroke-linejoin="round" stroke-width="0.5"><title>2022-10-04 3.0km</title></polyline><polyline fill="none" points="138.49637734610587,147.3609935841523 139.78349596471526,146.78081419877708 152.92283186293207,155.3094090819941 168.85092476801947,168.53725515608676 172.17598119936883,172.94648891163524 175.50103763095103,185.30381808115635 176.84178619203158,186.0 181.29307141457684,185.24580289400183 181.8830007815268,184.25954407494282 181.61485106917098,180.2564811783377 180.1668426231481,179.38624748185975 178.12890481040813,173.4106173767359 179.14787371712737,172.19227958546253 181.29307141457684,171.9602150353603 180.48862227797508,165.92651326750638 177.05630596145056,160.58897018508287 172.283241084544,158.21027111419244 173.03406027844176,156.5857896632515 170.24530327157117,153.8589741482865 175.07199809141457,147.41901149967453 175.34014780353755,144.11198364349548 160.4846537471749,132.68232666380936 157.53500691289082,129.49127671454335 154.31721036648378,127.8667373379576 136.19028982147574,114.0 135.70762033946812,115.68258755240822 132.06078425352462,114.87030434544431 130.7200356919784,115.79862794373184 129.75469672842883,120.09211066528223 130.45188598008826,121.54260641167639 126.80504989391193,121.8907250019256 119.0287082400173,132.16015571908792 118.11699921847321,135.35119509341894 122.46102455630898,144.98225544847082 123.64088328997605,143.06765623629326 126.3223804119043,143.29972911055665 131.09544528927654,142.08134577510646 138.81815700116567,147.30297566449735 139.46171631012112,148.69540458440315 138.38911746116355,149.27558259066427 139.51534625259228,148.52135110105155" stroke="#4dd2ff" stroke-linecap="round" stroke-linejoin="round" stroke-width="0.5"><title>2022-05-14 4.4km</title></polyline><polyline fill="none" points="25.631675282143988,205.59246422591968 24.399507169960998,202.7360426299565 24.575531185953878,201.49825226992834 27.985996496398002,197.0469293841452 29.28417361457832,197.0469293841452 29.086146596469916,196.40422005573055 30.186296696658246,194.09521696862066 31.374458804843016,194.59510560354101 31.81451884494163,194.4522803564032 31.682500832830556,194.02380424470175 31.94653685693629,194.0 40.6377226478653,200.2604572729324 45.764422114472836,204.68793339206604 48.470791360829026,206.5207959281106 51.04514259507414,209.63901922028163 52.23330470325891,211.97171664287453 52.563349733361974,213.75693313984084 52.4313317212509,216.5418516198406 51.859253669157624,217.16071920635295 50.93512758507859,217.51775767141953 51.397190627176315,223.68256101338193 50.143019512994215,231.53716318306397 50.451061540981755,232.67963522460195 51.133154603186995,233.06045836105477 51.90325967327226,235.41679176379694 49.63695046689827,241.96207421497093 49.72496247489471,244.77055568713695 48.16274933272507,246.10338600570685 48.052734322845936,246.5555950717826 49.086875416804105,247.95981928281253 45.896440126467496,251.43465356100933 45.14833805838134,252.88645706875832 41.56184873194434,257.28942873416236 51.22116661106702,265.9048037395696 51.419193629175425,266.0 60.41842144820839,255.79004496493144 61.694595564273186,255.956643497193 62.618721648468636,254.95705104488297 62.00263759237714,254.3382542032923 62.00263759237714,253.4100567700516 64.57698882662226,249.3640375310788 66.82129503099713,250.29224632011028 66.75528602488339,250.07804452313576 68.14147515106015,250.45884762192145 67.12933705898467,250.91105073213112 68.6475441971561,249.91144302953035 68.82356821314897,250.05424431487336 68.71355320315342,249.31643701012945 68.49352318316232,250.29224632011028 67.8114301210735,250.72064949793275 67.76742411707528,250.4826478010218 68.49352318316232,250.4826478010218 67.10733405698556,250.62544883973897 68.4715201810468,250.53024815407116 68.427514177165,250.768249816756 67.56939709896687,250.72064949793275 67.85543612507172,250.62544883973897 67.48138509097043,250.768249816756 67.78942711907439,250.64924900681945 67.76742411707528,250.95865102356765 67.43737908708863,251.1966523779265 66.02918695879634,249.76864168251632 65.12706387671642,249.57823979051318 64.81902184872888,249.79244191129692 66.1392019687919,247.5790133063856 67.10733405698556,244.91335919254925 69.6816852913471,234.2267264877155 70.67182038142346,231.9417891492776 71.13388342340477,231.67997240420664 71.70596147561446,232.34641462031868 73.33418362366501,232.98905405637925 74.87439376383554,232.82244395214366 75.600492830039,233.53648666475783 75.46847481792793,234.27432918103295 74.50034272985067,235.29778542890563 73.24617161566857,238.93935987571604 73.18016260967124,240.43882004907937 73.64222565176897,242.8427023284603 73.15815960767213,245.07996320418897 68.60353819315787,253.71945620389306 64.31295280263294,260.2643764077511 62.640724650467746,261.3591504165088 61.342547532287426,261.3353510200395 60.2203944302164,260.7165661115141 59.47229236213025,259.7407875574718 57.8880762179615,255.86144434619928 47.01859322853852,245.91298200338497 46.27049116056878,243.74712876052945 46.490521180676296,238.96316088392632 46.05046114057768,237.86831273135613 44.99431704438757,237.27328504086472 43.91616994631477,237.13047823577654 43.12406187411398,237.79690946501796 42.79401684412733,238.96316088392632" stroke="#4dd2ff" stroke-linecap="round" stroke-linejoin="round" stroke-width="0.5"><title>2021-12-11 11.3km</title></polyline></svg>