<?xml version="1.0" encoding="utf-8" ?>
<svg baseProfile="full" height="300mm" version="1.1" viewBox="0,0,200,300" width="200mm" xmlns="http://www.w3.org/2000/svg" xmlns:ev="http://www.w3.org/2001/xml-events" xmlns:xlink="http://www.w3.org/1999/xlink"><defs /><rect fill="#222222" height="300" width="200" x="0" y="0" /><text fill="#FFFFFF" style="font-size:12px; font-family:Arial; font-weight:bold;" x="10" y="20">Over 3km Runs</text><text fill="#FFFFFF" style="font-size:4px; font-family:Arial" x="10" y="280">ATHLETE</text><text fill="#FFFFFF" style="font-size:9px; font-family:Arial" x="10" y="290">hanyang</text><text fill="#FFFFFF" style="font-size:4px; font-family:Arial" x="120" y="280">STATISTICS</text><text fill="#FFFFFF" style="font-size:3px; font-family:Arial" x="120" y="285">Number: 8</text><text fill="#FFFFFF" style="font-size:3px; font-family:Arial" x="120" y="290">Weekly: 1.6</text><text fill="#FFFFFF" style="font-size:3px; font-family:Arial" x="141" y="285">Total: 38.8 km</text><text fill="#FFFFFF" style="font-size:3px; font-family:Arial" x="141" y="290">Avg: 4.8 km</text><text fill="#FFFFFF" style="font-size:3px; font-family:Arial" x="167" y="285">Min: 3.0 km</text><text fill="#FFFFFF" style="font-size:3px; font-family:Arial" x="167" y="290">Max: 11.3 km</text><polyline fill="none" points="18.673725766595453,37.254194911627565 16.18599481182173,35.43097219965421 13.61801447160542,33.26046177634271 18.071855374379084,36.77668473467929 18.874349230900407,37.42783488210989 22.004075270611793,39.59833029046422 24.331307454267517,41.33472098677885 24.85292846080847,41.63858884410001 25.374549467582256,41.8556372197927 25.856045781401917,42.20291445823386 26.93941248743795,43.33156410057563 28.62464958569035,44.6338495220989 29.38701874925755,45.37181001139106 30.550634841201827,46.32681636174675 33.118615181650966,48.10659688414307 34.924226358300075,49.58250845159637 37.77307954849675,51.62273319455562 38.97682033316232,52.53432074014563 39.5385660326574,53.14204500435153 39.97993765352294,53.532724564836826 41.304052516585216,54.487717979587615 42.14667106582783,55.18225769401761 42.58804268669337,55.4861185674672 42.90904022939503,55.5729359316756 43.31028715753928,55.96361391595565 44.152905706781894,56.224065764807165 44.473903249483556,56.44110888603609 45.236272412817925,57.39609769108938 45.87826749798842,57.83018301118864 46.159140347735956,58.17745104210917 46.80113543267362,58.56812733766856 48.16537498869002,59.65333794069011 49.007993537932634,60.47809669171693 50.974103485932574,61.780345053062774 52.17784427036531,62.82214171567466 55.387819695984945,65.12276963185286 55.869316009804606,65.55684938572813 57.79530126508325,67.07612606190378 59.23979020654224,68.07450579205761 60.28303222008981,69.50696077663451 62.40964093944058,71.8509706792538 63.97450395929627,74.06474943802459 64.65662373718806,75.23674666503211 65.25849412963726,76.66918462509057 66.06098798592575,79.4038294578786 66.22148675704375,80.7494437887799 66.50235960679129,82.39890241849935 66.50235960679129,83.48407010757364 66.46223491407,84.17857640329748 66.301736142952,85.43736702436581 65.98073860025033,87.0 66.14123737136833,84.78626875550253 66.18136206432246,83.09340996458195 66.26161144999787,82.35549567022827 66.18136206432246,80.83625751343789 65.78011513617821,78.75272467080504 65.45911759347655,77.5373271862045 64.8973718942143,75.88785525067942 64.1350027306471,74.3251934631262 63.65350641682744,73.45704627479427 60.00215937034227,69.11629157303832 59.15954082086682,68.03109801211394 56.95268271607347,66.51182374358177 55.26744561758824,65.03595364355715 54.0637048331555,64.5150574510917 53.06058751256205,63.42985560389934 51.455599799752235,62.257835413794965 50.45248247939162,61.3028543140972 49.489489851752296,60.65172996930778 47.643753981916234,59.089028670976404 47.041883589699864,58.69835271325428 46.07889096206054,57.91700003761798 45.236272412817925,57.13564634893555 44.43377855652943,56.26747439522296 43.59116000728682,55.65975328342756 42.86891553667374,55.44270988064818 42.22692045150325,55.052031558647286 40.42130927462131,53.48931573732989 39.25769318290986,52.70795630675275 37.53233139170334,51.18864340230357 35.88721898617223,50.0600084788166 34.603228815831244,49.278644600883126 32.87786702462472,47.97636921930825 30.43026076257229,45.97954150044825 28.62464958569035,44.807487365673296 26.93941248743795,43.33156410057563 25.494923545978963,41.8556372197927 24.491806225385517,41.33472098677885 22.445446891710162,39.77196958538843 21.883701192215085,39.51151062431745 19.23547146632336,37.644884774810635 16.707615818595514,35.51779245393118 15.42362564848736,34.60617916012416 14.059386092470959,33.39069262234261 13.497640393208712,33.0 13.979136706795543,33.34728234342765 15.905121962307021,35.083691057458054 17.951481295982376,36.60304457653547 19.716967779910192,38.07898432575166 21.723202421097085,39.46810078661656" stroke="#4dd2ff" stroke-linecap="round" stroke-linejoin="round" stroke-width="0.5"><title>2022-10-19 5.1km</title></polyline><polyline fill="none" points="138.16212334530428,36.64159612392541 137.05381005606614,36.108680962002836 135.57605900452472,35.1760783198406 133.11314058466814,33.0 133.7288701897487,33.266458982543554 135.90444812714122,34.68757161067333 138.244220625842,36.46395778772421 140.46084720361978,37.70742506510578 142.43118193931878,39.261755633866414 143.9499816314783,40.32758004392963 144.7299057978671,40.72726372256875 145.2635381219443,41.082537885871716 145.67402452533133,41.43781184445834 146.53604597225785,42.503632491396274 147.80855382233858,43.39181495597586 148.62952662911266,44.05795096443035 149.61469399696216,44.76849524665158 151.37978553096764,46.27839912637137 152.3239042586647,46.811305494979024 153.26802298612893,47.477437807712704 154.41738491528668,48.45443056419026 155.15626044152305,49.253787122201174 156.34667101083323,49.96432541456306 157.8244220628403,50.98572277481435 158.8095894306898,51.96270997042302 160.12314592092298,52.984104019298684 160.61572960508056,53.47259622695856 161.47775105200708,54.09431302227313 162.01138337608427,54.582804350124206 162.8734048230108,55.11570353899151 164.55639907647856,55.781826877209824 165.00793412025087,56.225908702705055 165.17212868155912,56.66999020834919 165.54156644456089,57.15847949491581 166.44463653163984,57.957824765413534 168.3739226271864,59.33447252359474 168.74336039018817,59.77855178969912 170.22111144196242,60.755525049287826 171.7809597745072,62.17657429899555 174.44912139582448,63.997288862767164 175.06485100090504,64.66340260358993 175.68058060551994,65.1518855561153 177.24042893829755,66.12885029974859 179.45705551607534,67.81633121037157 180.15488240146078,68.61566266097361 180.3601256031543,69.0153279977967 180.85270928707905,69.59262191544985 182.74094674224034,71.76857105444651 184.0955518730916,73.5892572896555 185.20386516209692,75.45434493100038 185.6554002056364,76.52010676427744 186.27112981071696,78.74043799983338 186.4353243720252,79.45094230648829 186.3942757314071,80.20585223514354 186.72266485425644,82.3373576325248 186.76371349440888,83.35870135744335 186.68161621387117,85.09054119844222 186.55847029271536,86.06747434724821 186.35322709125467,86.91118809382897 186.3942757314071,87.0 186.47637301217765,86.9555940485443 186.59951893310063,86.20069238397991 186.76371349440888,85.71222610858968 186.80476213479415,85.00172901712358 186.8868594155647,83.40310756798135 186.84581077517942,82.514982749708 186.76371349440888,82.07091986079467 186.47637301217765,79.095690255519 185.94274068786763,77.1862069744966 185.4091083635576,75.80959908012301 184.95757332001813,74.87705650209682 184.05450323270634,73.27840880083386 182.6588494614698,71.50212871539406 181.63263345323503,70.30313676450169 180.6885147257708,69.32617863605265 179.53915279661305,67.8607385403593 178.67713134968653,67.4166650963598 177.15833165775985,65.86240552313393 176.66574797360227,65.41833063971717 175.7626778865233,64.79662526544416 174.20282955397852,63.553212635801174 173.17661354551092,62.931505380547605 171.41152201150544,61.554865655256435 170.63159784511663,60.755525049287826 169.93377095949836,60.355854357476346 169.3590899950359,59.77855178969912 168.3739226271864,59.15684072748991 166.89617157541215,57.957824765413534 166.4035878914874,57.646968394576106 165.99310148810036,57.24729568726616 165.6236637250986,57.114071394025814 165.17212868155912,56.625582072127145 164.7616422784049,56.003867829917 164.47430179594085,55.73741867695935 163.11969666508958,55.07129529083613 162.13452929724008,54.44957948097726 161.4367024116218,53.73904635885265 161.1083132890053,53.16173759417143 160.32838912284933,52.762061978690326 159.34322175499983,52.09593537717592 158.60434622876346,51.56303357757861 157.53708158037625,50.586045748437755 157.33183837868273,50.54163717397023 157.2907897385303,50.674862887884956 157.24974109814502,51.34099102515029 156.67506013344973,51.38539954199223 156.3877196512185,51.518625073484145 155.48464956390671,52.22916075511603 155.03311452036723,52.451202987576835 154.0479471522849,52.89528721268289 153.30907162628137,52.62883671594318 152.9806825038977,52.67324514017673" stroke="#4dd2ff" stroke-linecap="round" stroke-linejoin="round" stroke-width="0.5"><title>2022-10-15 3.9km</title></polyline><polyline fill="none" points="18.406368100782856,97.31494716968155 17.479775687213987,96.74833970121108 15.54601760674268,95.13568476989167 13.934552539605647,93.56661098002223 13.49139964627102,93.04358547896845 14.498565312940627,93.82812356104841 15.384871099842712,94.69983134767972 16.512896646978334,95.52795258135302 18.72866111411713,97.40211750235176 22.475317395059392,100.06080661440501 24.086782462196425,101.2811845887336 24.570221982197836,101.5862786975922 26.060827169334516,102.28363608272048 26.785986449569464,103.11174693348585 28.034871876705438,103.98344134108629 29.64633694384247,105.33456519048195 30.814649117412046,106.11908733093878 31.660668277647346,106.86002397380071 34.48073214502074,108.86490681016585 36.213057092158124,110.3903566909139 37.58280239929445,111.26204061001772 39.113694212865084,112.7874844460166 39.79856686666608,113.31049287575297 40.96687904023565,114.44367625564337 41.89347145380452,115.18460270256037 42.860350494040176,115.75119290250586 44.02866266760975,116.14344734547194 44.55238881427795,116.36136637063464 44.95525508141145,116.71003664750606 45.39840797474608,117.36379287508316 46.204140508314595,118.19188308238517 48.41990497568622,119.84806009673048 48.94363112235442,120.41464592918055 50.11194329592399,121.1555650633527 51.03853570949286,122.11440024303738 52.81114728329703,123.33473372843582 53.97945945686661,124.24998222704744 55.51035127067007,125.25239566084929 57.887262244708836,127.12646849494195 58.69299477827735,127.56229855469428 59.13614767161198,127.91096237645252 59.86130695184693,129.08770129142795 62.60079756588675,132.18207788665313 63.60796323302202,133.4895561991143 64.69570215325803,135.27643865696155 65.94458758016117,138.24003695353167 66.14602071349509,139.19884505943628 66.38774047372863,140.8985466043814 66.54888698039576,142.7289890826214 66.54888698039576,143.51346273557283 66.42802710039541,144.29793537140358 66.42802710039541,145.25673387869028 66.10573408706114,147.0 66.1863073403947,146.7820920094382 66.14602071349509,145.99762259388808 66.34745384706184,143.99286280054366 66.30716722039506,141.63944065547548 66.02516083372757,139.15526290575508 65.54172131349333,137.41197418479715 64.69570215325803,135.36360351991607 64.09140275302343,134.09971177804982 63.72882311278954,133.4895561991143 63.24538359278813,132.96656521316618 62.39936443255283,131.78983384202002 60.82818599208258,129.91577545233304 60.54617960541509,129.61069563007914 60.22388659208082,129.3491985173314 59.82102032518014,128.91336974478327 59.176434298511595,127.95454534009332 55.349204764002934,124.99089666432701 54.503185604000464,124.46789833222283 53.8183129504323,123.98848279722733 53.17372692329809,123.42190031171776 51.239968842826784,121.89648329018382 49.950796789256856,120.76331387006212 46.80843990854919,118.32263406412676 45.23726146784611,117.05870672338642 44.914968454511836,116.579285317217 44.31066905451007,115.92552824190352 43.66608302760869,115.53327365760924 43.10207025404088,115.27177046006545 41.69203832023777,114.2693404891761 40.322293013334274,113.13615678279893 39.677706986665726,112.7439003897598 37.78423553262837,111.17487227468519 35.36703793192282,109.60584008990554 33.63471298478544,108.16755701205693 29.92834333050996,105.5089035317651 28.598884650040418,104.28853408707073 27.551432356704026,103.50400957243983 26.342833556234837,102.50156010076171 25.657960902666673,101.76061811920954 25.093948129331693,101.41193922550883 23.96592258219607,100.97609032585751 22.717037155292928,99.75571173615754 21.42786510149017,98.88401123590302 20.622132568154484,98.53533068409888 19.85668666101992,98.01230947946897 18.16464834054932,96.70475448935758 17.31862918054685,96.00739067204995 15.868310620076954,94.9613434386556 13.571972899371758,93.04358547896845 13.451113019371405,93.0 13.77340603270568,93.39226919657085 14.498565312940627,93.87170898017939 16.11003038007766,95.35361136315623 20.340126181254163,98.57891576399561" stroke="#4dd2ff" stroke-linecap="round" stroke-linejoin="round" stroke-width="0.5"><title>2022-10-12 5.0km</title></polyline><polyline fill="none" points="138.37721518985927,102.79457581136376 135.9164556961041,100.82254197471775 134.82278481009416,100.08302782062674 134.18481012666598,99.54071693273727 133.0,98.7519003287307 134.6405063290149,100.1323287889827 138.92405063286424,103.38618485390907 142.15949367079884,105.70331534498837 144.62025316455401,107.62603468867019 145.212658227887,108.02043798880186 145.94177215197124,108.31624031456886 146.67088607582264,108.80924390687142 147.7645569620654,109.94315082090907 150.27088607591577,111.81655812717509 151.3645569619257,112.80255991226295 160.3417721518781,119.55663393915165 161.48101265798323,120.54262457077857 164.76202531624585,123.1554928739206 166.31139240483753,124.14147832000162 167.95189873385243,124.93026565405307 168.7265822782647,126.06414585368475 169.3645569619257,126.55713665881194 169.91139240493067,127.09942613437306 172.23544303770177,128.77559088694397 173.14683544286527,129.76156823540805 174.42278480995446,130.59964786458295 175.42531645554118,131.53632388281403 180.3468354428187,134.98722446593456 183.08101265807636,137.15635306871263 183.76455696183257,137.60003761772532 184.58481012634002,138.43810764781665 185.54177215183154,139.76915793924127 187.0,141.2480996712693 186.04303797450848,140.3114369455143 184.99493670859374,138.73389682522975 184.539240506012,138.14231834269594 183.39999999990687,137.45214279991342 181.3037974680774,135.7267008983181 179.7544303794857,134.54353822290432 179.16202531638555,134.19844872393878 178.25063291122206,133.36037350189872 177.24810126586817,132.71949175733607 175.01518987328745,131.04333666461753 172.9189873416908,129.12068312050542 170.18481012643315,127.19802417460596 169.22784810117446,126.21204313251656 168.63544303784147,125.81765031797113 167.67848101258278,124.78236809821101 165.5367088606581,123.6977850451367 163.66835443023592,122.26810475764796 163.2582278479822,121.82441026810557 160.75189873413183,119.70453262445517 159.38481012638658,118.81714003300294 157.97215189854614,117.68324782466516 156.8329113922082,116.94375189393759 155.92151898727752,116.30285477417056" stroke="#4dd2ff" stroke-linecap="round" stroke-linejoin="round" stroke-width="0.5"><title>2022-10-09 3.0km</title></polyline><polyline fill="none" points="19.344768438953906,163.56636667612474 17.584905660478398,162.2135545690544 14.204116637818515,159.8586531409528 13.0,158.95677388610784 14.111492281313986,159.70834001299227 20.78044596896507,165.06948815268697 22.540308747673407,166.3220869009965 23.651801029220223,166.72291802393738 25.22641509445384,168.12582513445523 27.032590051414445,169.17800360976253 28.32933104620315,170.48069856408983 30.042881646659225,171.73328756471165 30.830188679276034,172.63515024795197 31.432246998418123,173.13618456659606 32.35849056602456,173.73742527258582 39.30531732412055,179.04836226440966 40.69468267564662,180.00031838187715 41.43567753001116,180.40114162041573 42.778730703284964,181.55350714433007 45.696397941792384,183.85823246376822 46.99313893658109,184.7600794226746 48.24356775311753,185.21100246347487 48.66037735831924,185.4615151375765 49.03087478573434,185.81223272980424 49.26243567769416,186.46356493182248 49.49399656942114,186.66397471737582 51.902229845756665,188.56786480004666 53.52315608924255,189.62001234659692 54.1715265866369,190.2713409823482 55.23670668946579,191.0228732659598 56.857632932951674,192.4758333778591 58.015437392750755,193.22736327908933 59.49742710124701,194.58011505496688 62.090909090824425,196.6342886464554 62.69296740996651,197.23550903762225 64.12864493997768,198.18744026101194 64.82332761585712,198.43794826115482 65.19382504280657,198.63835459627444 65.84219554020092,199.33977631444577 66.35162950260565,200.29170465789502 66.76843910804018,200.84282047161832 66.90737564326264,201.04322611389216 67.0,201.04322611389216 66.21269296738319,199.64038540580077 65.10120068630204,198.53815143590327 64.68439108063467,198.38784666825086 61.25728987995535,195.73245708504692 59.682675814954564,194.6302169219707 58.43224699818529,193.67828083003405 55.977701543830335,191.67420058796415 55.23670668946579,190.922669008316 53.98627787316218,190.12103442836087 52.92109777010046,189.1690921644331 51.16123499139212,188.06684159947326 50.46655231551267,187.3654085122398 50.32761578052305,187.26520372770028 50.00343053159304,187.26520372770028 49.81818181835115,187.16499892866705 49.077186963986605,186.1629501452553 48.15094339614734,185.31120754394215 47.132075471803546,184.81018199713435 46.57632933091372,184.70997684448957 45.51114922808483,184.15884824673412 45.279588336125016,183.95843773911474 44.909090909175575,183.4073085457785 44.44596912502311,183.05658974073594 43.89022298459895,182.40525434783194 42.778730703284964,181.65371275192592 40.833619211101905,179.79990667599486 39.35162950260565,178.64753824612126 37.59176672366448,177.64547718968242 35.183533447794616,175.69145397649845" stroke="#4dd2ff" stroke-linecap="round" stroke-linejoin="round" stroke-width="0.5"><title>2022-10-08 3.0km</title></polyline><polyline fill="none" points="145.7300380228553,163.09649113356136 145.0730038024485,162.60779899719637 144.04638783284463,162.0302532457863 142.19847908755764,160.4753196873935 137.06539923953824,157.09887902904302 133.94448669208214,154.65539070399245 133.0410646388773,153.90012871689396 133.0,153.76684709370602 133.24638783279806,153.90012871689396 134.3551330799237,154.74424499459565 136.4494296577759,156.56575512955897 139.20076045626774,158.65382110280916 141.7467680608388,160.69745329295984 143.84106463892385,162.0302532457863 144.70342205325142,162.4300926697906 145.7300380228553,163.18534420768265 146.71558935381472,164.07387424435 148.80988593166694,165.8065041329828 150.16501901159063,167.05044053768506 152.8342205323279,169.00519267463824 153.90190114080906,169.89371432474582 154.9695817490574,170.64895672060084 155.7908745247405,171.3597722481354 157.39239543722942,172.42599400313338 158.4600760457106,173.27008491830202 159.85627376451157,174.64728340459988 160.4311787073966,175.04711464711 161.21140684420243,175.9356275909813 162.7718631180469,177.26839460653719 163.26463878317736,177.44609665771713 164.00380228133872,177.4905221624067 164.61977186310105,177.7126496382407 165.0304182509426,178.11247889319202 166.09809885919094,179.00098742038244 167.2068441065494,180.20047190139303 167.82281368831173,180.55587426247075 168.39771863119677,180.91127641877392 169.05475285160355,181.53322969947476 169.54752851719968,181.84420610457892 170.08136882120743,182.5105835873983 173.53079847921617,184.9983864944661 175.29657794674858,186.37555878824787 176.0768060835544,187.17520580551354 177.96577946771868,188.4635238192277 178.82813688204624,188.86334610375343 179.73155893548392,189.7074145200313 180.0190114066936,190.06281140237115 180.3885931558907,190.68475545372348 182.35969581757672,192.8615546937799 183.59163498110138,194.41640658996766 184.16653992398642,195.34931584610604 185.27528517111205,197.65937078819843 186.1376425854396,199.7917215168709 186.42509505688213,200.81347029522294 186.75361216743477,202.36830214509973 186.83574144472368,203.523317553394 187.0,204.41178947268054 186.71254752832465,205.16698959789937 186.6714828896802,205.74449495208682 186.6714828896802,206.1887294719345 186.71254752832465,206.23315290629398 186.83574144472368,206.0110357023077 186.87680608360097,205.7000714823953 186.83574144472368,204.94487200991716 186.91787072247826,204.2340951912338 186.91787072247826,203.21235207933933 186.79467680607922,202.10175982053624 186.5072243346367,200.50250345485983 185.93231939175166,198.6366991205723 185.152091254713,196.90416147059295 184.2076045628637,195.21604318160098 183.59163498110138,194.28313372388948 182.27756653982215,192.63943267433206 181.16882129269652,191.39554788701935 180.0190114066936,190.28493434982374 179.4030418251641,189.48529136471916 178.04790874524042,188.3302496667602 177.10342205315828,187.79715276882052 175.05019011418335,186.28670905559557 173.85931558930315,185.22051126597216 173.61292775673792,184.8206866197288" stroke="#4dd2ff" stroke-linecap="round" stroke-linejoin="round" stroke-width="0.5"><title>2022-10-04 3.0km</title></polyline><polyline fill="none" points="31.372283009812236,238.02074518811423 32.33762197359465,237.5856106490828 42.192123897140846,243.9820568114519 54.138193576131016,253.90294136706507 56.631985899526626,257.2098666836973 59.125778223155066,266.47786356083816 60.13133964408189,267.0 63.46980356099084,266.43435217050137 63.912250586086884,265.69465805619257 63.71113830199465,262.6923608837533 62.6251319674775,262.03968561138026 61.096678607864305,257.55796303250827 61.86090528778732,256.64420968905324 63.46980356099084,256.470161276462 62.86646670848131,251.94488495058613 60.292229471262544,247.9417276387685 56.712430813582614,246.15770333557157 57.27554520894773,244.9393422473804 55.18397745373659,242.89423061115667 58.80399856856093,238.06425862468313 59.00511085265316,235.5839877325925 47.86349031049758,227.01174499781337 45.65125518478453,224.61845753586385 43.23790777497925,223.40005300345365 29.642717366106808,213.0 29.28071525460109,214.2619406642625 26.54558819020167,213.65272825903958 25.540026769042015,214.34897095779888 24.81602254626341,217.56908299896168 25.338914485182613,218.65695480874274 22.60378742055036,218.9180437514442 16.77153118001297,226.6201167893014 16.087749413913116,229.01339632004965 19.34576841723174,236.236691586324 20.230662467656657,234.8007421772345 22.241785309044644,234.9747968328884 25.821583966957405,234.0610093313153 31.613617750816047,237.9772317483439 32.09628723259084,239.02155343827326 31.29183809598908,239.45668694295455 32.13650968950242,238.8910133257741" stroke="#4dd2ff" stroke-linecap="round" stroke-linejoin="round" stroke-width="0.5"><title>2022-05-14 4.4km</title></polyline><polyline fill="none" points="141.7237564615789,221.6943481694325 140.79963037749985,219.55203197247465 140.9316483894945,218.6236892024608 143.4894973722985,215.28519703811617 144.46313021093374,215.28519703811617 144.31460994738154,214.8031650417979 145.13972252246458,213.0714127264655 146.03084410366137,213.44632920264849 146.36088913370622,213.33921026730968 146.26187562465202,213.0178531835263 146.45990264270222,213.0 152.97829198592808,217.69534295471385 156.82331658585463,221.01595004404953 158.85309352056356,222.39059694607568 160.7838569463347,224.72926441520394 161.67497852741508,226.47878748214862 161.92251229996327,227.8176998548879 161.82349879096728,229.9063887148659 161.39444025186822,230.37053940475744 160.70134568883805,230.63831825356465 161.04789297038224,235.2619207600219 160.10726463474566,241.1528723872907 160.33829615579452,242.0097264184442 160.84986595239025,242.29534377079108 161.4274447549251,244.0625938228477 159.7277128502028,248.97155566122092 159.79372185620014,251.0779167653527 158.6220619995729,252.07753950427286 158.53955074207624,252.41669630382967 159.31515656260308,253.4698644621094 156.92233009485062,256.07599017076427 156.3612535438151,257.16484280156146 153.67138654895825,260.4670715506072 160.91587495832937,266.9286028046772 161.06439522182336,267.0 167.8138160861563,259.3425337236986 168.770946673234,259.4674826228875 169.46404123632237,258.71778828365495 169.00197819422465,258.2536906524765 169.00197819422465,257.557542577546 170.9327416199958,254.5230281483091 172.61597127321875,255.2191847400827 172.56646451872075,255.05853339235182 173.60610636335332,255.34413571642654 172.8470027942094,255.68328804909834 173.98565814789617,254.9335822721623 174.11767615989083,255.04068323614774 174.03516490233596,254.4873277575971 173.87014238740085,255.2191847400827 173.35857259080512,255.54048712344957 173.32556808780646,255.36198585075908 173.87014238740085,255.36198585075908 172.83050054276828,255.46908662978967 173.8536401358433,255.39768611555337 173.82063563284464,255.57618736255972 173.17704782425426,255.54048712344957 173.3915770938038,255.46908662978967 173.11103881825693,255.57618736255972 173.3420703393058,255.48693675511458 173.32556808780646,255.7189882676903 173.07803431531647,255.89748928345216 172.02189021912636,254.8264812618727 171.34529790753732,254.68367984288489 171.11426638654666,254.8443314334727 172.10440147662302,253.18425997978193 172.83050054276828,251.18501939441194 174.76126396848122,243.17004486577935 175.5038652860094,241.45634186196548 175.85041256755358,241.25997930315498 176.27947110671084,241.75981096523174 177.50063771777786,242.2417905422917 178.65579532290576,242.11683296410774 179.20036962255836,242.6523649985611 179.10135611344595,243.20574688576744 178.3752570473589,243.97333907167194 177.43462871178053,246.70451990677975 177.38512195722433,247.8291150368168 177.73166923882673,249.63202674635977 177.3686197057832,251.30997240313445 173.9526536448393,257.78959215292707 170.7347146020038,262.6982823058206 169.4805434878217,263.5193628123816 168.50691064924467,263.5015132650151 167.6652958226623,263.0374245836283 167.1042192716268,262.30559066809656 165.91605716344202,259.39608325964946 157.763944921433,251.93473650253145 157.20286837039748,250.3103465703898 157.36789088544901,246.72237066294474 157.03784585546236,245.90123454850982 156.24573778331978,245.45496378064854 155.43712745973608,245.3478586768324 154.84304640558548,245.8476820987562 154.5955126330955,246.72237066294474" stroke="#4dd2ff" stroke-linecap="round" stroke-linejoin="round" stroke-width="0.5"><title>2021-12-11 11.3km</title></polyline></svg>