<?xml version="1.0" encoding="utf-8" ?>
<svg baseProfile="full" height="300mm" version="1.1" viewBox="0,0,200,300" width="200mm" xmlns="http://www.w3.org/2000/svg" xmlns:ev="http://www.w3.org/2001/xml-events" xmlns:xlink="http://www.w3.org/1999/xlink"><defs /><rect fill="#222222" height="300" width="200" x="0" y="0" /><text fill="#FFFFFF" style="font-size:12px; font-family:Arial; font-weight:bold;" x="10" y="20">Over 3km Runs</text><text fill="#FFFFFF" style="font-size:4px; font-family:Arial" x="10" y="280">ATHLETE</text><text fill="#FFFFFF" style="font-size:9px; font-family:Arial" x="10" y="290">hanyang</text><text fill="#FFFFFF" style="font-size:4px; font-family:Arial" x="120" y="280">STATISTICS</text><text fill="#FFFFFF" style="font-size:3px; font-family:Arial" x="120" y="285">Number: 1</text><text fill="#FFFFFF" style="font-size:3px; font-family:Arial" x="120" y="290">Weekly: 1.0</text><text fill="#FFFFFF" style="font-size:3px; font-family:Arial" x="141" y="285">Total: 11.3 km</text><text fill="#FFFFFF" style="font-size:3px; font-family:Arial" x="141" y="290">Avg: 11.3 km</text><text fill="#FFFFFF" style="font-size:3px; font-family:Arial" x="167" y="285">Min: 11.3 km</text><text fill="#FFFFFF" style="font-size:3px; font-family:Arial" x="167" y="290">Max: 11.3 km</text><polyline fill="none" points="45.171269384911284,95.08304450829746 42.398891132557765,88.65609591739485 42.794945168541744,85.87106760736788 50.46849211701192,75.8555911143194 53.38939063297585,75.8555911143194 52.94382984214462,74.40949512540828 55.41916756751016,69.21423817938194 58.09253231110051,70.33898760797456 59.08266740106046,70.0176308019436 58.78562687407248,69.05355955060804 59.37970792828128,69.0 78.93487595790066,83.08602886414155 90.4699497576803,93.04785013216315 96.55928056198172,97.17179083824158 102.35157083906233,104.18779324559728 105.02493558241986,109.43636244646041 105.76753690000623,113.45309956464916 105.47049637301825,119.71916614461225 104.18332075583749,121.11161821428686 102.10403706668876,121.91495476069394 103.14367891126312,135.78576228005113 100.32179390429519,153.4586171619012 101.01488846749999,156.02917925536167 102.54959785728715,156.88603131234413 104.28233426483348,162.18778146849945 99.18313855072483,176.9146669836482 99.38116556871682,183.23375029605813 95.86618599877693,186.2326185128186 95.61865222640336,187.25008891150355 97.94546968792565,190.40959338634275 90.76699028466828,198.2279705122928 89.08376063150354,201.49452840466984 81.01415964704938,211.40121465182165 102.74762487504631,230.78580841398798 103.1931856656447,231.0 123.44144825846888,208.0276011711103 126.3128400198184,208.40244786866242 128.39212370919995,206.15336485096486 127.00593458279036,204.76107195741497 127.00593458279036,202.67262773262337 132.7982248601038,193.56908444489818 137.84791381983086,195.65755422023358 137.69939355622046,195.17560017708456 140.81831909017637,196.03240714926505 138.54100838280283,197.0498641472659 141.95697444374673,194.80074681644328 142.3530284797307,195.12204970844323 142.1054947071243,193.4619832728058 141.61042716214433,195.65755422023358 140.07571777259,196.6214613703196 139.976704263594,196.08595755224815 141.61042716214433,196.08595755224815 138.49150162842125,196.40725988935446 141.56092040752992,196.193058346631 141.46190689876676,196.72856208769372 139.5311434729956,196.6214613703196 140.174731281586,196.40725988935446 139.33311645500362,196.72856208769372 140.02621101797558,196.4608102653292 139.976704263594,197.15696480305633 139.23410294600762,197.69246785034193 136.0656706574373,194.47944378561806 134.03589372267015,194.05103952868376 133.3427991596982,194.53299430041807 136.31320442981087,189.55277993931668 138.49150162842125,183.5550581832067 144.28379190550186,159.51013459730893 146.511595858261,154.3690255858819 147.55123770283535,153.77993790945038 148.83841332024895,155.27943289570976 152.5019131533336,156.72537162690423 155.9673859688919,156.35049889230868 157.60110886767507,157.9570949957124 157.30406834045425,159.61724065727321 155.12577114230953,161.92001721501583 152.3038861353416,170.11355972033925 152.1553658717312,173.4873451104504 153.19500771653838,178.89608023903565 152.1058591173496,183.92991720937425 141.85796093475074,203.3687764587812 132.20414380612783,218.09484691743273 128.44163046358153,220.5580884371302 125.52073194785044,220.50453979504528 122.99588746810332,219.11227375088492 121.31265781493858,216.91677200427512 117.74817149038427,208.18824977893382 93.2918347644154,185.80420950759435 91.60860511125065,180.93103971116943 92.10367265646346,170.16711198881967 91.11353756650351,167.70370364550035 88.73721334990114,166.36489134194562 86.31138237938285,166.0435760304681 84.52913921675645,167.54304629628314 83.7865378994029,170.16711198881967" stroke="#4DD2FF" stroke-linecap="round" stroke-linejoin="round" stroke-width="0.5"><title>2021-12-11 11.3km</title></polyline></svg>