<?xml version="1.0" encoding="utf-8" ?>
<svg baseProfile="full" height="200mm" version="1.1" viewBox="0,0,200,200" width="200mm" xmlns="http://www.w3.org/2000/svg" xmlns:ev="http://www.w3.org/2001/xml-events" xmlns:xlink="http://www.w3.org/1999/xlink"><defs /><rect fill="#1a1a1a" height="200" width="200" x="0" y="0" /><text alignment-baseline="middle" fill="#e1ed5e" style="dominant-baseline: central; font-size:9.0px; font-family:Arial;" text-anchor="middle" x="100.0" y="100.0">2022</text><line stroke="#e1ed5e" stroke-width="0.3" x1="100.0" x2="100.0" y1="15.0" y2="10.0" /><path d="M 100.0 14.0 a86.0,86.0 0 0,1 42.46469731375804,11.215312516191453" fill="none" id="id13" stroke="none" /><text fill="#e1ed5e" style="font-size:6.75px; font-family:Arial;" text-anchor="middle"><textPath startOffset="22.20632615414155" xlink:href="#id13">January</textPath></text><line stroke="#e1ed5e" stroke-width="0.3" x1="143.23703022742887" x2="145.7803849466894" y1="26.81831364943548" y2="22.513508569990506" /><path d="M 143.74570117128098 25.957352633546492 a86.0,86.0 0 0,1 28.547481713284135,27.462654790039103" fill="none" id="id14" stroke="none" /><text fill="#e1ed5e" style="font-size:6.75px; font-family:Arial;" text-anchor="middle"><textPath startOffset="19.985693538727396" xlink:href="#id14">February</textPath></text><path d="M 114.68862486808459 84.99185889309783 l 9.344054041446883 -9.547311802431608 a34.35898606116234,34.35898606116234 0 0,0 0.4191210557818938,0.4173212167721334 l -9.5070108973961 9.385054735009355" fill="#ff0000" stroke="none" /><path d="M 115.4437574822437 85.77008943001954 l 10.12703604298825 -9.33107227281813 a34.770467267908465,34.770467267908465 0 0,0 0.4017750000623793,0.44364998998911676 l -10.286154683666664 9.155369495559464" fill="#ff0701" stroke="none" /><path d="M 117.2510076193507 88.02491185347247 l 11.154495101540277 -7.74308753542722 a34.57859217855719,34.57859217855719 0 0,0 0.33520739900822555,0.49187549562405075 l -11.286126966217237 7.549934016532762" fill="#ff0400" stroke="none" /><line stroke="#e1ed5e" stroke-width="0.3" x1="172.23445277983987" x2="176.4835382374775" y1="55.19839476539836" y2="52.563006222186495" /><path d="M 173.08426987136738 54.67131705675599 a86.0,86.0 0 0,1 12.851231095245387,41.99856678651699" fill="none" id="id15" stroke="none" /><text fill="#e1ed5e" style="font-size:6.75px; font-family:Arial;" text-anchor="middle"><textPath startOffset="22.20632615414155" xlink:href="#id15">March</textPath></text><line stroke="#e1ed5e" stroke-width="0.3" x1="184.98032266829074" x2="189.97916517819016" y1="98.17113171792111" y2="98.06355123074" /><path d="M 185.9800911702706 98.14961562048488 a86.0,86.0 0 0,1 -9.607161424134198,41.387399972396054" fill="none" id="id16" stroke="none" /><text fill="#e1ed5e" style="font-size:6.75px; font-family:Arial;" text-anchor="middle"><textPath startOffset="21.466115282336823" xlink:href="#id16">April</textPath></text><line stroke="#e1ed5e" stroke-width="0.3" x1="174.80103733775053" x2="179.2010983576182" y1="140.37084112569926" y2="142.7455964860345" /><path d="M 175.68104954172406 140.8457921977663 a86.0,86.0 0 0,1 -30.038265399797805,32.042727171017184" fill="none" id="id17" stroke="none" /><text fill="#e1ed5e" style="font-size:6.75px; font-family:Arial;" text-anchor="middle"><textPath startOffset="22.206326154141568" xlink:href="#id17">May</textPath></text><path d="M 115.80600337817218 113.82643327865902 l 41.43061311245935 36.241774355460024 a76.04508980196479,76.04508980196479 0 0,0 -0.8703221124571255,0.9778161195669481 l -40.800632150353884 -36.94956464476784" fill="#41ffcc" stroke="none" /><line stroke="#e1ed5e" stroke-width="0.3" x1="143.8653032363475" x2="146.44561519142675" y1="172.8068346515853" y2="177.08958963109032" /><path d="M 144.38136562736335 173.6633856474863 a86.0,86.0 0 0,1 -40.68145358897372,12.25698825130547" fill="none" id="id18" stroke="none" /><text fill="#e1ed5e" style="font-size:6.75px; font-family:Arial;" text-anchor="middle"><textPath startOffset="21.466115282336833" xlink:href="#id18">June</textPath></text><line stroke="#e1ed5e" stroke-width="0.3" x1="102.19456741930631" x2="102.32365962044197" y1="184.97166512339345" y2="189.96999836594603" /><path d="M 102.22038585953345 185.97133177190398 a86.0,86.0 0 0,1 -42.740103519485714,-10.115201625700543" fill="none" id="id19" stroke="none" /><text fill="#e1ed5e" style="font-size:6.75px; font-family:Arial;" text-anchor="middle"><textPath startOffset="22.20632615414155" xlink:href="#id19">July</textPath></text><line stroke="#e1ed5e" stroke-width="0.3" x1="58.666819895761336" x2="56.23545636021788" y1="174.27360380694188" y2="178.64263932499728" /><path d="M 58.180547188652646 175.14741091055294 a86.0,86.0 0 0,1 -31.652253787137756,-30.449443065178592" fill="none" id="id20" stroke="none" /><text fill="#e1ed5e" style="font-size:6.75px; font-family:Arial;" text-anchor="middle"><textPath startOffset="22.20632615414155" xlink:href="#id20">August</textPath></text><path d="M 84.9287848128048 114.62390073753433 l -16.421094131078746 15.93371520424121 a43.88090060884004,43.88090060884004 0 0,0 -0.5213332010236525,-0.5466157770106281 l 16.692933883481356 -15.648692310648082" fill="#ffa50f" stroke="none" /><path d="M 83.72743513129214 113.27417163493432 l -25.672039408687937 20.941692970911554 a54.130169210089356,54.130169210089356 0 0,0 -0.5827553178971753,-0.7270768618031092 l 26.02871263863997 -20.496688275530186" fill="#bdff1f" stroke="none" /><line stroke="#e1ed5e" stroke-width="0.3" x1="26.63291911575756" x2="22.317208475507996" y1="142.92168965132927" y2="145.44649492493687" /><path d="M 25.769776987707644 143.4266507060508 a86.0,86.0 0 0,1 -11.730757126820373,-40.83630448921669" fill="none" id="id21" stroke="none" /><text fill="#e1ed5e" style="font-size:6.75px; font-family:Arial;" text-anchor="middle"><textPath startOffset="21.46611528233685" xlink:href="#id21">September</textPath></text><line stroke="#e1ed5e" stroke-width="0.3" x1="15.007084014347285" x2="10.007500721073583" y1="101.09737516637583" y2="101.16192664675087" /><path d="M 14.007167355692545 101.11028546245083 a86.0,86.0 0 0,1 10.666146001902534,-42.60595125391555" fill="none" id="id22" stroke="none" /><text fill="#e1ed5e" style="font-size:6.75px; font-family:Arial;" text-anchor="middle"><textPath startOffset="22.20632615414155" xlink:href="#id22">October</textPath></text><path d="M 79.01574976396665 99.18683210126434 l -37.56283664355184 -1.4556104030601553 a58.591029493160434,58.591029493160434 0 0,0 0.04772767164345849,-1.0074557143573304 l 37.53221536367488 2.101977224040495" fill="#7fff26" stroke="none" /><path d="M 79.12142395522702 97.74499172005258 l -37.279574966320276 -4.026412052320926 a58.49638254131415,58.49638254131415 0 0,0 0.11674108299397622,-1.0001663065144324 l 37.20474353032271 4.66752209716022" fill="#80ff25" stroke="none" /><path d="M 79.16333360222342 97.38593545837743 l -37.22698556371955 -4.670312472056392 a58.518798924646156,58.518798924646156 0 0,0 0.13399133250605316,-0.9983910618622406 l 37.141078232155664 5.310421875983293" fill="#80ff25" stroke="none" /><path d="M 79.32604984820605 96.31383870115002 l -61.201643727409746 -10.91224119617057 a83.16685775282674,83.16685775282674 0 0,0 0.2634182541962278,-1.4071908470538639 l 61.00473974930366 11.964110120687007" fill="#4cdbff" stroke="none" /><path d="M 79.54389044137918 95.25157060432595 l -47.63967018719451 -11.058486447231491 a69.90632165731003,69.90632165731003 0 0,0 0.28217919671223474,-1.1698149443213 l 47.442258190221466 11.876886623212188" fill="#37ff79" stroke="none" /><path d="M 79.91906864156998 93.8553929516997 l -60.24279407529007 -18.433821144900918 a84.0,84.0 0 0,0 0.4349780649271846,-1.378999334294342 l 59.91656052659468 19.468070645621676" fill="#4dd2ff" stroke="none" /><path d="M 80.65960295795068 91.81776055985345 l -57.36629075188865 -24.269653084396072 a83.28890250652327,83.28890250652327 0 0,0 0.5699709074854585,-1.315571438469386 l 56.940029134560504 25.253523667452058" fill="#4cdaff" stroke="none" /><line stroke="#e1ed5e" stroke-width="0.3" x1="26.266209847984243" x2="21.928928074336255" y1="57.711370442889674" y2="55.22380399835377" /><path d="M 25.398753493254645 57.213857153982495 a86.0,86.0 0 0,1 29.58750427330803,-30.492523968695096" fill="none" id="id23" stroke="none" /><text fill="#e1ed5e" style="font-size:6.75px; font-family:Arial;" text-anchor="middle"><textPath startOffset="21.46611528233685" xlink:href="#id23">November</textPath></text><path d="M 82.95767976084542 87.72973835380427 l -50.54280274927576 -36.390198362828066 a83.28018502411639,83.28018502411639 0 0,0 0.8476232941159939,-1.1561572205960085 l 49.908916842646136 37.254818027095574" fill="#4cdaff" stroke="none" /><path d="M 83.39014120810768 87.1503855733568 l -49.34987755985198 -38.177741700951884 a83.39351229540603,83.39351229540603 0 0,0 0.888124701419241,-1.1278281803269212 l 48.68539877783878 39.02156227523186" fill="#4cd9ff" stroke="none" /><line stroke="#e1ed5e" stroke-width="0.3" x1="56.762969772571076" x2="54.21961505331055" y1="26.818313649435495" y2="22.513508569990535" /><path d="M 56.25429882871897 25.957352633546506 a86.0,86.0 0 0,1 42.265352541879196,-11.944610805530505" fill="none" id="id24" stroke="none" /><text fill="#e1ed5e" style="font-size:6.75px; font-family:Arial;" text-anchor="middle"><textPath startOffset="22.20632615414155" xlink:href="#id24">December</textPath></text></svg>